<svg xmlns="http://www.w3.org/2000/svg" xmlns:xlink="http://www.w3.org/1999/xlink" width="579" height="428" viewBox="0 0 579 428">
  <defs>
    <linearGradient id="linear-gradient" x1="-0.38" y1="1.288" x2="2.404" y2="-1.384" gradientUnits="objectBoundingBox">
      <stop offset="0" stop-color="#fe7062"/>
      <stop offset="1" stop-color="#ff928e"/>
    </linearGradient>
    <linearGradient id="linear-gradient-2" x1="0.306" y1="0.889" x2="1.263" y2="-0.936" xlink:href="#linear-gradient"/>
    <linearGradient id="linear-gradient-3" x1="13.969" y1="0.116" x2="12.751" y2="1.618" gradientUnits="objectBoundingBox">
      <stop offset="0" stop-color="#09005d"/>
      <stop offset="1" stop-color="#1a0f91"/>
    </linearGradient>
    <linearGradient id="linear-gradient-4" x1="1.061" y1="0.98" x2="0.006" y2="0.261" xlink:href="#linear-gradient-3"/>
    <linearGradient id="linear-gradient-5" x1="2.608" y1="2.178" x2="0.775" y2="0.608" xlink:href="#linear-gradient-3"/>
    <clipPath id="clip-Web_1920_2">
      <rect width="579" height="428"/>
    </clipPath>
  </defs>
  <g id="Web_1920_2" data-name="Web 1920 – 2" clip-path="url(#clip-Web_1920_2)">
    <g id="Event" transform="translate(-319.551 -277.784)">
      <g id="Group_1396" data-name="Group 1396" transform="translate(369.694 305.784)">
        <g id="Group_1381" data-name="Group 1381" transform="translate(5.451 51.521)">
          <path id="Path_1091" data-name="Path 1091" d="M2804.667,1255c-5.089-60.334-17.826-210.185-20.606-232.088-3.495-27.529-32.2-21.458-32.2-21.458l-6.146,278.578h40.024a17.791,17.791,0,0,0,14.112-7.5A25.715,25.715,0,0,0,2804.667,1255Z" transform="translate(-2357.084 -979.685)" fill="#182160"/>
          <path id="Path_1092" data-name="Path 1092" d="M551.1,1286.053c-16.494-.309-29.581-12.383-29.231-26.967l5.387-224.564c.3-12.389,11.524-22.4,25.533-22.766l368.608-9.67a20.864,20.864,0,0,1,14.115,4.858,16.245,16.245,0,0,1,5.868,12.347L940.5,1276.77a15.427,15.427,0,0,1-5.554,11.607,19.785,19.785,0,0,1-13.258,4.628Z" transform="translate(-521.865 -980.716)" fill="#a1b2f2"/>
          <g id="Group_1377" data-name="Group 1377" transform="translate(9.839 34.415)">
            <path id="Path_1093" data-name="Path 1093" d="M512.207,1358.108a9.147,9.147,0,0,1-6.431-2.864,7.113,7.113,0,0,1-1.817-6.177c5.313-31.192,21.992-138.482,16.642-227.562a6.635,6.635,0,0,1,1.975-5.232,8.461,8.461,0,0,1,5.593-2.415l361.681-10.651c5.06-.062,9.221,3.521,9.3,8.008,1.538,37.452,7.266,191.679-.229,246.5-.385,3.272-3.5,5.758-7.2,5.757Z" transform="translate(-503.833 -1103.205)" fill="#91b3fa"/>
            <path id="Path_1094" data-name="Path 1094" d="M568.789,1389.693a8.9,8.9,0,0,1-6.25-2.773,6.87,6.87,0,0,1-1.765-5.981c5.164-30.205,21.376-134.1,16.176-220.365a6.411,6.411,0,0,1,1.92-5.067,8.237,8.237,0,0,1,5.437-2.338l351.537-10.317c4.917-.06,8.962,3.409,9.042,7.754,1.495,36.267,7.063,185.616-.221,238.705-.374,3.17-3.4,5.579-7,5.582Z" transform="translate(-553.607 -1137.742)" fill="#fff" opacity="0.6"/>
          </g>
          <path id="Path_1095" data-name="Path 1095" d="M1892.071,1523.073l-.412,19.445a5.32,5.32,0,0,0,5.285,5.429l19.946.112a5.32,5.32,0,0,0,5.345-5.2l.434-20.442a5.32,5.32,0,0,0-5.551-5.424l-19.966.885a5.32,5.32,0,0,0-5.081,5.194Z" transform="translate(-1657.849 -1413.918)" fill="#fff" opacity="0.72"/>
          <path id="Path_1096" data-name="Path 1096" d="M1318.845,1567.3l19.944.112a5.321,5.321,0,0,0,5.346-5.2l.369-17.387A5.32,5.32,0,0,0,1339,1539.4l-19.962.717a5.32,5.32,0,0,0-5.125,5.2l-.352,16.557a5.32,5.32,0,0,0,5.286,5.426Z" transform="translate(-1178.435 -1433.132)" fill="#fff" opacity="0.72"/>
          <path id="Path_1097" data-name="Path 1097" d="M1319.81,2425.552l-18.972-.184a5.8,5.8,0,0,0-5.857,5.683l-.377,17.766a5.8,5.8,0,0,0,5.555,5.925l18.959.8a5.8,5.8,0,0,0,6.046-5.673l.391-18.385a5.8,5.8,0,0,0-5.744-5.935Z" transform="translate(-1162.716 -2178.711)" fill="#fff" opacity="0.72"/>
          <path id="Path_1098" data-name="Path 1098" d="M1036.348,2445.934l.363-17.371a5.7,5.7,0,0,0-5.645-5.823l-19.172-.187a5.7,5.7,0,0,0-5.757,5.582l-.356,16.746a5.7,5.7,0,0,0,5.461,5.819l19.158.809a5.7,5.7,0,0,0,5.948-5.576Z" transform="translate(-923.196 -2176.264)" fill="#fff" opacity="0.72"/>
          <path id="Path_1099" data-name="Path 1099" d="M1049.207,1857.5l.3-14.26a6.136,6.136,0,0,0-6.146-6.266l-18.307.032a6.136,6.136,0,0,0-6.124,6.007l-.289,13.628a6.137,6.137,0,0,0,5.935,6.263l18.293.6a6.138,6.138,0,0,0,6.336-6.011Z" transform="translate(-933.86 -1685.859)" fill="#fff" opacity="0.72"/>
          <path id="Path_1100" data-name="Path 1100" d="M1042.31,2126.506l.463-21.811a5.7,5.7,0,0,0-5.515-5.819l-18.723-.614a6.137,6.137,0,0,0-6.336,6l-.467,22a5.7,5.7,0,0,0,5.7,5.823h19.175a5.7,5.7,0,0,0,5.7-5.58Z" transform="translate(-928.116 -1906.822)" fill="#fff" opacity="0.72"/>
          <path id="Path_1101" data-name="Path 1101" d="M1607.875,1558.455l19.944.112a5.321,5.321,0,0,0,5.346-5.2l.4-18.938a5.32,5.32,0,0,0-5.506-5.426l-19.962.717a5.32,5.32,0,0,0-5.125,5.2l-.385,18.109a5.32,5.32,0,0,0,5.286,5.426Z" transform="translate(-1418.127 -1424.214)" fill="#fff" opacity="0.72"/>
          <path id="Path_1102" data-name="Path 1102" d="M1331.389,2134.572l.433-20.4a5.8,5.8,0,0,0-5.61-5.925l-18.962-.621a5.8,5.8,0,0,0-5.99,5.676l-.447,21.018a5.8,5.8,0,0,0,5.8,5.925h18.975A5.8,5.8,0,0,0,1331.389,2134.572Z" transform="translate(-1167.854 -1914.916)" fill="#fff" opacity="0.72"/>
          <path id="Path_1103" data-name="Path 1103" d="M1622.679,1835.9l-21.78.04a4.4,4.4,0,0,0-4.391,4.307l-.416,19.615a4.4,4.4,0,0,0,4.255,4.492l21.765.712a4.4,4.4,0,0,0,4.544-4.3l.432-20.367a4.4,4.4,0,0,0-4.409-4.494Z" transform="translate(-1412.733 -1684.715)" fill="#fff" opacity="0.72"/>
          <path id="Path_1104" data-name="Path 1104" d="M1885.529,1840.843l-.4,18.681a5.531,5.531,0,0,0,5.349,5.644l19.505.639a5.531,5.531,0,0,0,5.711-5.41l.41-19.355a5.531,5.531,0,0,0-5.539-5.648l-19.52.035a5.531,5.531,0,0,0-5.52,5.413Z" transform="translate(-1652.443 -1684.169)" fill="#fff" opacity="0.72"/>
          <path id="Path_1105" data-name="Path 1105" d="M1311.486,1863.589l21.765.712a4.4,4.4,0,0,0,4.543-4.3l.405-19.079a4.4,4.4,0,0,0-4.407-4.493l-21.78.039a4.4,4.4,0,0,0-4.391,4.307l-.388,18.327a4.4,4.4,0,0,0,4.254,4.492Z" transform="translate(-1173.178 -1685.274)" fill="#fff" opacity="0.72"/>
          <path id="Path_1106" data-name="Path 1106" d="M1615.249,2117.708l-18.962-.62a5.8,5.8,0,0,0-5.99,5.676l-.419,19.8a5.8,5.8,0,0,0,5.8,5.925h18.976a5.8,5.8,0,0,0,5.8-5.684l.407-19.182a5.8,5.8,0,0,0-5.619-5.915Z" transform="translate(-1407.579 -1923.082)" fill="#fe7062" opacity="0.72"/>
          <path id="Path_1107" data-name="Path 1107" d="M1904.841,2127.035l-20.291-.664a5.138,5.138,0,0,0-5.3,5.026l-.423,19.936a5.138,5.138,0,0,0,5.136,5.247h20.3a5.138,5.138,0,0,0,5.138-5.03l.409-19.273a5.137,5.137,0,0,0-4.968-5.242Z" transform="translate(-1647.212 -1931.108)" fill="#fff" opacity="0.72"/>
          <path id="Path_1108" data-name="Path 1108" d="M1033.036,1574.474l15.138.086a7.376,7.376,0,0,0,7.411-7.215l.265-12.488a6.568,6.568,0,0,0-6.8-6.7l-16.846.6a7.215,7.215,0,0,0-6.954,7.058l-.221,10.429a8.058,8.058,0,0,0,8.009,8.229Z" transform="translate(-939.153 -1440.665)" fill="#fff" opacity="0.72"/>
          <path id="Path_1109" data-name="Path 1109" d="M807.059,2427a6.137,6.137,0,0,0-6.076-6.267l-6.594-.064c-5.012-.05-9.11,3.265-9.2,7.435l-.256,12.072c-.087,4.138,3.8,7.6,8.769,7.815l7.08.3a5.7,5.7,0,0,0,5.942-5.576Z" transform="translate(-750.984 -2174.615)" fill="#fff" opacity="0.72"/>
          <path id="Path_1110" data-name="Path 1110" d="M2469.131,2436.711l-12.969-.121a5.8,5.8,0,0,0-5.862,5.683l-.483,22.621a5.8,5.8,0,0,0,5.562,5.925l12.909.546c5.147.218,9.467-3.138,9.552-7.426l.412-19.4C2478.357,2440.278,2474.246,2436.759,2469.131,2436.711Z" transform="translate(-2121.395 -2188.477)" fill="#fff" opacity="0.72"/>
          <path id="Path_1111" data-name="Path 1111" d="M799.941,2126.436h6.436a6.136,6.136,0,0,0,6.135-6.007l.47-22.172a6.137,6.137,0,0,0-5.935-6.263l-6.479-.213c-5.109-.167-9.361,3.177-9.451,7.43l-.411,19.4C790.618,2122.905,794.789,2126.436,799.941,2126.436Z" transform="translate(-756.012 -1901.226)" fill="#fff" opacity="0.72"/>
          <path id="Path_1112" data-name="Path 1112" d="M806.557,1862.5l8.1.265a4.64,4.64,0,0,0,4.792-4.54l.34-16.014a4.641,4.641,0,0,0-4.648-4.74l-8.183.014c-4.958.009-8.984,3.3-9.069,7.437l-.207,9.759C797.595,1858.86,801.549,1862.343,806.557,1862.5Z" transform="translate(-762.087 -1686.396)" fill="#fff" opacity="0.72"/>
          <path id="Path_1113" data-name="Path 1113" d="M2488.564,1497.691l-13,.467a5.53,5.53,0,0,0-5.331,5.41l-.474,22.344a5.531,5.531,0,0,0,5.5,5.648l13.39.076c4.994.028,9.069-3.278,9.154-7.436l.4-18.69C2498.286,1501.089,2493.86,1497.5,2488.564,1497.691Z" transform="translate(-2137.924 -1397.366)" fill="#fff" opacity="0.72"/>
          <path id="Path_1114" data-name="Path 1114" d="M1608.645,2428.352l-18.972-.185a5.8,5.8,0,0,0-5.857,5.683l-.4,18.984a5.8,5.8,0,0,0,5.555,5.925l18.958.8a5.8,5.8,0,0,0,6.046-5.673l.416-19.6a5.8,5.8,0,0,0-5.743-5.936Z" transform="translate(-1402.221 -2181.153)" fill="#fff" opacity="0.72"/>
          <path id="Path_1115" data-name="Path 1115" d="M2482.013,1834.44l-13.18.024a5.531,5.531,0,0,0-5.519,5.413l-.451,21.256a5.531,5.531,0,0,0,5.348,5.644l13.234.433c5.109.167,9.361-3.177,9.451-7.43l.371-17.516C2491.359,1837.971,2487.176,1834.428,2482.013,1834.44Z" transform="translate(-2132.213 -1683.136)" fill="#fff" opacity="0.72"/>
          <path id="Path_1116" data-name="Path 1116" d="M2476.382,2145.728l-13.758-.45a5.138,5.138,0,0,0-5.3,5.025l-.371,17.5a5.138,5.138,0,0,0,5.136,5.247h13.825c4.971,0,9-3.3,9.092-7.436l.256-12.072C2485.354,2149.38,2481.4,2145.9,2476.382,2145.728Z" transform="translate(-2127.339 -1947.446)" fill="#fff" opacity="0.72"/>
          <path id="Path_1117" data-name="Path 1117" d="M2168.289,2140.85l-.4,18.72a5.139,5.139,0,0,0,5.137,5.247h20.3a5.138,5.138,0,0,0,5.138-5.03l.383-18.056a5.138,5.138,0,0,0-4.968-5.243l-20.29-.665a5.138,5.138,0,0,0-5.306,5.028Z" transform="translate(-1886.937 -1939.277)" fill="#fff" opacity="0.72"/>
          <path id="Path_1118" data-name="Path 1118" d="M2186.3,2433.962l-18.962-.184a5.8,5.8,0,0,0-5.862,5.683l-.453,21.4a5.8,5.8,0,0,0,5.562,5.925l18.949.8a5.8,5.8,0,0,0,6.046-5.683l.467-22.022a5.8,5.8,0,0,0-5.746-5.922Z" transform="translate(-1881.224 -2186.036)" fill="#fff" opacity="0.72"/>
          <path id="Path_1119" data-name="Path 1119" d="M812.806,1582.877l7.936.045a4.641,4.641,0,0,0,4.666-4.543l.332-15.664a4.641,4.641,0,0,0-4.806-4.736l-8.4.3c-4.811.173-8.612,3.42-8.7,7.429l-.2,9.343C803.544,1579.323,807.678,1582.853,812.806,1582.877Z" transform="translate(-767.271 -1449.11)" fill="#fff" opacity="0.72"/>
          <path id="Path_1120" data-name="Path 1120" d="M1897.468,2431.181l-18.643-.18a6.129,6.129,0,0,0-6.187,6l-.422,19.871a5.8,5.8,0,0,0,5.562,5.925l18.949.8a5.8,5.8,0,0,0,6.046-5.683l.441-20.808a5.8,5.8,0,0,0-5.746-5.925Z" transform="translate(-1641.724 -2183.616)" fill="#fff" opacity="0.72"/>
          <path id="Path_1121" data-name="Path 1121" d="M2181.167,1512.4l-.441,20.8a5.531,5.531,0,0,0,5.5,5.648l19.516.11a5.532,5.532,0,0,0,5.563-5.414l.458-21.6a5.53,5.53,0,0,0-5.728-5.645l-19.533.7a5.531,5.531,0,0,0-5.333,5.405Z" transform="translate(-1897.566 -1404.743)" fill="#fff" opacity="0.72"/>
          <path id="Path_1122" data-name="Path 1122" d="M2174.423,1840.322,2174,1860.3a5.531,5.531,0,0,0,5.35,5.644l19.505.639a5.532,5.532,0,0,0,5.71-5.411l.438-20.643a5.532,5.532,0,0,0-5.54-5.648l-19.52.035a5.531,5.531,0,0,0-5.52,5.409Z" transform="translate(-1891.996 -1683.605)" fill="#fff" opacity="0.72"/>
          <path id="Path_1123" data-name="Path 1123" d="M857.675,1395.665l.9,6.584a4.325,4.325,0,0,0,4.193,3.739l.311.007a4.326,4.326,0,0,0,4.416-4.232l.143-6.74a4.325,4.325,0,0,0-4.8-4.391l-1.352.149a4.325,4.325,0,0,0-3.811,4.884Z" transform="translate(-814.303 -1307.454)" fill="#fff"/>
          <path id="Path_1124" data-name="Path 1124" d="M1094.5,1382.535l.9,6.584a4.325,4.325,0,0,0,4.193,3.74l.311.006a4.325,4.325,0,0,0,4.416-4.232l.143-6.74a4.325,4.325,0,0,0-4.8-4.391l-1.353.149a4.325,4.325,0,0,0-3.811,4.884Z" transform="translate(-998.214 -1296.292)" fill="#fff"/>
          <path id="Path_1125" data-name="Path 1125" d="M1385.887,1386.545l.9,6.584a4.325,4.325,0,0,0,4.193,3.74l.311.006a4.325,4.325,0,0,0,4.416-4.232l.143-6.74a4.326,4.326,0,0,0-4.8-4.391l-1.352.149a4.325,4.325,0,0,0-3.812,4.884Z" transform="translate(-1240.614 -1299.701)" fill="#fff"/>
          <path id="Path_1126" data-name="Path 1126" d="M1669.777,1373.835l.9,6.584a4.325,4.325,0,0,0,4.194,3.74l.311.006a4.325,4.325,0,0,0,4.416-4.232l.143-6.74a4.325,4.325,0,0,0-4.8-4.391l-1.353.149a4.325,4.325,0,0,0-3.812,4.884Z" transform="translate(-1476.787 -1288.894)" fill="#fff"/>
          <path id="Path_1127" data-name="Path 1127" d="M1961.357,1336.755l.9,6.585a4.325,4.325,0,0,0,4.193,3.74l.311.006a4.325,4.325,0,0,0,4.416-4.232l.143-6.74a4.325,4.325,0,0,0-4.8-4.391l-1.352.149a4.325,4.325,0,0,0-3.812,4.882Z" transform="translate(-1719.365 -1257.381)" fill="#fff"/>
          <path id="Path_1128" data-name="Path 1128" d="M2270.247,1343.305l.9,6.585a4.327,4.327,0,0,0,4.195,3.74l.311.006a4.325,4.325,0,0,0,4.416-4.232l.143-6.74a4.325,4.325,0,0,0-4.8-4.392l-1.353.149a4.325,4.325,0,0,0-3.812,4.884Z" transform="translate(-1976.336 -1262.952)" fill="#fff"/>
          <path id="Path_1129" data-name="Path 1129" d="M2530.967,1337.845l.9,6.584a4.325,4.325,0,0,0,4.193,3.74l.311.006a4.325,4.325,0,0,0,4.416-4.232l.143-6.74a4.326,4.326,0,0,0-4.8-4.391l-1.353.149a4.325,4.325,0,0,0-3.811,4.884Z" transform="translate(-2193.235 -1258.31)" fill="#fff"/>
          <g id="Group_1378" data-name="Group 1378" transform="translate(201.217 79.213)">
            <path id="Path_1130" data-name="Path 1130" d="M1897.93,1342.982a1.6,1.6,0,0,0-2.66-1.171c-3.093,2.436-4.353,6.22-5.873,9.749-1.776,4.111-3.478,8.256-4.99,12.473a115.283,115.283,0,0,0-3.99,13.565,97.482,97.482,0,0,0-7.462-15.908,1.428,1.428,0,0,0-2.622,1.04c2.615,9.3,5.834,18.409,8.3,27.755.869,3.3,5.38,2.519,5.716-.651a105.87,105.87,0,0,1,5.975-25.111c1.411-3.886,2.985-7.712,4.616-11.51C1896.37,1349.851,1898.135,1346.719,1897.93,1342.982Z" transform="translate(-1841.767 -1341.407)" fill="url(#linear-gradient)"/>
            <path id="Path_1131" data-name="Path 1131" d="M1709.82,1370.525a2.1,2.1,0,0,0-1.2,4.026c16.324,7.182,18.458,27.419,6.665,39.673-5.455,5.667-12.7,10.066-19.544,13.849-6.95,3.835-14.708,6.765-22.774,5.955-18.695-1.878-21.237-20.907-15.646-35.589a52.515,52.515,0,0,1,30.986-30.251c1.821-.675,1.116-3.64-.751-2.97a59.3,59.3,0,0,0-31.456,26.342c-6.415,11.262-10.262,27.147-1.866,38.452,8.689,11.7,25.181,11.908,37.605,7.03,13.664-5.364,30.688-15.315,36.129-29.758C1733.664,1392.157,1726.627,1373.669,1709.82,1370.525Z" transform="translate(-1649.412 -1362.055)" fill="url(#linear-gradient-2)"/>
          </g>
          <g id="Group_1379" data-name="Group 1379" transform="translate(417.447 99.13)">
            <path id="Path_1132" data-name="Path 1132" d="M2974.431,1965.106a.708.708,0,0,1-.707-.7l-.861-124.238a.706.706,0,0,1,.7-.713h0a.709.709,0,0,1,.708.7l.861,124.238a.708.708,0,0,1-.7.713Z" transform="translate(-2972.367 -1767.532)" fill="#91b3fa"/>
            <path id="Path_1133" data-name="Path 1133" d="M2970.015,1326.971a.709.709,0,0,1-.708-.7l-.3-43.391a.709.709,0,0,1,.7-.713h0a.708.708,0,0,1,.708.7l.3,43.391a.707.707,0,0,1-.7.714Z" transform="translate(-2969.005 -1282.163)" fill="#91b3fa"/>
          </g>
          <circle id="Ellipse_70" data-name="Ellipse 70" cx="7.569" cy="7.569" r="7.569" transform="translate(41.463 61.337) rotate(-16.858)" fill="#91b3fa"/>
          <circle id="Ellipse_71" data-name="Ellipse 71" cx="7.569" cy="7.569" r="7.569" transform="translate(134.38 63.88) rotate(-35.783)" fill="#91b3fa"/>
          <circle id="Ellipse_72" data-name="Ellipse 72" cx="7.569" cy="7.569" r="7.569" transform="translate(218.025 57.741) rotate(-13.283)" fill="#91b3fa"/>
          <circle id="Ellipse_73" data-name="Ellipse 73" cx="7.569" cy="7.569" r="7.569" transform="translate(299.279 65.605) rotate(-76.717)" fill="#91b3fa"/>
          <g id="Group_1380" data-name="Group 1380" transform="translate(46.136)">
            <path id="Path_1134" data-name="Path 1134" d="M2332.321,836.894c-12.739,2.781-11.537,36.293-10.511,49.9a6.131,6.131,0,0,0,6.118,5.672,3.144,3.144,0,0,0,3.121-3.484c-1.1-10.278-3.442-39.9,5.935-41.483,0,0,6.727-1.19,7.86,11.84h7.278S2348.33,833.4,2332.321,836.894Z" transform="translate(-2135.141 -836.57)" fill="#536fae"/>
            <path id="Path_1135" data-name="Path 1135" d="M1851.7,850.247c-12.739,2.781-11.537,36.305-10.511,49.911a6.137,6.137,0,0,0,6.118,5.683,3.144,3.144,0,0,0,3.121-3.48c-1.1-10.278-3.443-39.922,5.936-41.506,0,0,6.727-.93,7.859,11.817h7.278S1867.722,846.751,1851.7,850.247Z" transform="translate(-1716.553 -848.2)" fill="#536fae"/>
            <path id="Path_1136" data-name="Path 1136" d="M1371.091,863.662c-12.739,2.781-11.537,36.313-10.511,49.919a6.14,6.14,0,0,0,6.119,5.683,3.144,3.144,0,0,0,3.121-3.476c-1.1-10.278-3.441-39.936,5.936-41.52,0,0,6.724-.757,7.86,12.055l7.28-.253S1387.1,860.169,1371.091,863.662Z" transform="translate(-1297.961 -859.884)" fill="#536fae"/>
            <path id="Path_1137" data-name="Path 1137" d="M890.476,879.177c-12.739,2.781-11.537,36.331-10.511,49.939a6.149,6.149,0,0,0,6.118,5.69,3.132,3.132,0,0,0,3.121-3.47c-1.1-10.278-3.441-39.972,5.936-41.556,0,0,6.727-.979,7.86,11.768h7.278S906.491,875.683,890.476,879.177Z" transform="translate(-879.372 -873.396)" fill="#536fae"/>
          </g>
        </g>
        <g id="Group_1387" data-name="Group 1387" transform="translate(0 0)">
          <path id="Path_1143" data-name="Path 1143" d="M572.019,981.067a6.825,6.825,0,0,1-11.949,6.288c-1.663-2.837-.289-6.728,3.144-8.533S570.621,978.09,572.019,981.067Z" transform="translate(-549.074 -917.847)" fill="#bdd0fb" stroke="#fff" stroke-width="1"/>
          <path id="Path_1144" data-name="Path 1144" d="M486.24,1058.191a4.332,4.332,0,1,1-5.664-.8A4.353,4.353,0,0,1,486.24,1058.191Z" transform="translate(-478.62 -986.349)" fill="#bdd0fb" stroke="#fff" stroke-width="1"/>
          <path id="Path_1145" data-name="Path 1145" d="M749.353,876.892c1.143,3.848-1.357,7.98-5.505,9.476s-8.706-.121-10.278-3.823.807-8.211,5.376-9.846S748.218,873.05,749.353,876.892Z" transform="translate(-700.385 -825.685)" fill="#bdd0fb" stroke="#fff" stroke-width="1"/>
          <path id="Path_1146" data-name="Path 1146" d="M603.991,836.709c1.424,3.642-.892,7.954-5.078,9.863s-8.974.817-10.782-2.651.351-8.152,4.926-10.23S602.57,833.073,603.991,836.709Z" transform="translate(-573.57 -791.383)" fill="#91b3fa" stroke="#fff" stroke-width="1"/>
          <path id="Path_1147" data-name="Path 1147" d="M485.71,1217.922a2.962,2.962,0,1,1-4.061-.442,2.965,2.965,0,0,1,4.061.442Z" transform="translate(-480.33 -1125.908)" fill="#a1b2f2" stroke="#fff" stroke-width="1"/>
          <path id="Path_1148" data-name="Path 1148" d="M919.863,711.716c.461,2.74-1.9,5.421-5.231,6.116s-6.562-.829-7.231-3.525,1.638-5.582,5.184-6.317S919.4,708.981,919.863,711.716Z" transform="translate(-852.095 -682.587)" fill="#a1b2f2" stroke="#fff" stroke-width="1"/>
          <g id="Group_1385" data-name="Group 1385" transform="translate(34.03 30.085)">
            <path id="Path_1149" data-name="Path 1149" d="M757.9,749.361c.867,3.177-1.56,6.607-5.366,7.837s-7.78-.145-8.931-3.23,1.185-6.794,5.278-8.11S757.04,746.188,757.9,749.361Z" transform="translate(-743.313 -745.402)" fill="#91b3fa" stroke="#fff" stroke-width="1"/>
          </g>
          <path id="Path_1150" data-name="Path 1150" d="M1058.155,641.411c.174,4.01-3.732,7.44-8.689,7.938s-9.441-2.106-10.06-6.072,3.22-7.841,8.621-8.377S1057.985,637.409,1058.155,641.411Z" transform="translate(-967.113 -619.024)" fill="#a1b2f2" stroke="#fff" stroke-width="1"/>
          <path id="Path_1151" data-name="Path 1151" d="M878.032,576.469c.585,3.869-3.067,7.627-8.1,8.671s-9.862-.967-10.858-4.754,2.55-7.98,7.995-9.1S877.451,572.609,878.032,576.469Z" transform="translate(-809.963 -563.431)" fill="#bdd0fb" stroke="#fff" stroke-width="1"/>
          <path id="Path_1152" data-name="Path 1152" d="M1257.729,517.574c-.162,2.773-3.405,4.837-7.239,4.771s-6.977-2.268-7.031-5.046,3.176-5.085,7.224-5S1257.886,514.8,1257.729,517.574Z" transform="translate(-1144.879 -512.292)" fill="#a1b2f2" stroke="#fff" stroke-width="1"/>
          <g id="Group_1386" data-name="Group 1386" transform="translate(73.986 0.412)">
            <path id="Path_1153" data-name="Path 1153" d="M1069.652,520.894c.14,3.29-3.386,6.115-7.838,6.513s-8.4-1.771-8.844-5.035,3.033-6.409,7.792-6.833S1069.519,517.611,1069.652,520.894Z" transform="translate(-1052.933 -515.491)" fill="#91b3fa" stroke="#fff" stroke-width="1"/>
          </g>
          <path id="Path_1154" data-name="Path 1154" d="M650.026,667.062c.594,3.133-1.785,6.218-5.277,7.043s-6.993-.879-7.86-3.948,1.451-6.4,5.215-7.286S649.435,663.936,650.026,667.062Z" transform="translate(-616.433 -643.255)" fill="#bdd0fb" stroke="#fff" stroke-width="1"/>
        </g>
        <g id="Group_1392" data-name="Group 1392" transform="translate(14.514 158.949)">
          <path id="Path_1159" data-name="Path 1159" d="M616.957,2560.673s-2.52-3.73-5.27-7.183a2.933,2.933,0,0,0-4.135-.635c-3.99,3.393-12.509,10.686-15.312,13.573a.985.985,0,0,0,.354,1.517h0a2.121,2.121,0,0,0,1.55.182l20.02-5.659Z" transform="translate(-592.02 -2399.077)" fill="#252629"/>
          <path id="Path_1160" data-name="Path 1160" d="M745.314,2606.2l-4.089-3.458s-3.8,1.239-4.319,4.32l5.141,3.31Z" transform="translate(-718.215 -2443.036)" fill="#ffb27d"/>
          <path id="Path_1161" data-name="Path 1161" d="M1456.873,1501.119c6.379-14.315,12.4-35.709,5.385-57.091l-4.065-4.065s0,33.494-8.334,50.121Q1453.354,1495.605,1456.873,1501.119Z" transform="translate(-1339.166 -1430.313)" fill="#ffb27d"/>
          <path id="Path_1162" data-name="Path 1162" d="M1493.718,1368.471l-1.534,2.3a2.464,2.464,0,0,0-.294,2.144c.623,1.886,2.03,5.6,4.013,7.58,2.733,2.733,5.465-3.826,6.012-6.012s-3.279-7.652-4.372-8.745S1492.073,1365.195,1493.718,1368.471Z" transform="translate(-1375.661 -1365.226)" fill="#ffb27d"/>
          <path id="Path_1163" data-name="Path 1163" d="M1336.654,3136.28s-.786,4.446-1.171,8.847a3.033,3.033,0,0,0,2.9,3.285c5.861.242,18.4.719,22.9.518a.985.985,0,0,0,.868-1.35h0a2.208,2.208,0,0,0-1.129-1.19l-20.71-9.519Z" transform="translate(-1239.533 -2907.729)" fill="#252629"/>
          <path id="Path_1164" data-name="Path 1164" d="M1339.64,3110.5l.631,5.32s3.628,1.692,6.105-.213l-1.5-5.925Z" transform="translate(-1243.171 -2884.554)" fill="#ffb27d"/>
          <path id="Path_1165" data-name="Path 1165" d="M1206.156,2310.3c-.272,1.389-1.463,69.3,5.8,99.74a1.033,1.033,0,0,1-.6,1.2,17.977,17.977,0,0,1-5.913,1.2,1.779,1.779,0,0,1-1.765-1.277c-2.075-7.062-16.332-47.921-17.63-81.718-1.451-37.765,5.163-19.15,5.163-19.15Z" transform="translate(-1109.204 -2184.346)" fill="#2b478b"/>
          <path id="Path_1166" data-name="Path 1166" d="M809.877,2350.7c-6.088,15.356-8.079,17.753-10.8,35.281-3.257,21.018-19.16,6.5-27.651-.319-1.074-.862-4.262,2.226-4.573,6.57-.405,5.663,33.9,32.545,43.182,13.543,5.925-12.139,7.569-25.8,11.505-33.357a4.6,4.6,0,0,1,2.271-2.1l12.111-5.187,3.417-11.885Z" transform="translate(-744.299 -2223.53)" fill="#2b478b"/>
          <path id="Path_1167" data-name="Path 1167" d="M991.315,1515.429c-6.38-14.315-12.4-35.709-5.386-57.091l4.065-4.064s0,33.494,8.334,50.12Q994.833,1509.915,991.315,1515.429Z" transform="translate(-932.364 -1442.782)" fill="#ffb27d"/>
          <path id="Path_1168" data-name="Path 1168" d="M1042.717,1803.127h-20.035a7.834,7.834,0,0,1-5.4-2.158,24.287,24.287,0,0,1-5.971-9.53,1.439,1.439,0,0,0-1.763-.9c-2.578.764-8.222,2.952-11.178,8.044a1.463,1.463,0,0,0,.027,1.531l12.5,19.34-1.232,47.708s31.4,4.926,35.713,0l4.311-43.719s15.394-9.236,19.71-24.014l-12.931-7.389s-1.505.063-2.791,3.526A11.662,11.662,0,0,1,1042.717,1803.127Z" transform="translate(-945.761 -1735.603)" fill="#739af0"/>
          <path id="Path_1169" data-name="Path 1169" d="M1207.34,1775.53l-.462,15.463a2.237,2.237,0,0,0,1.53,2.195,18.025,18.025,0,0,0,9.311.585,2.232,2.232,0,0,0,1.7-2.571l-2.118-12.18Z" transform="translate(-1127.54 -1722.575)" fill="#ffb27d"/>
          <g id="Group_1391" data-name="Group 1391" transform="translate(70.764 30.787)">
            <path id="Path_1170" data-name="Path 1170" d="M1200.324,1660.116c.139.175,4.814,12.895,6.871,18.5a2.642,2.642,0,0,1-1.693,3.432l-4.521.825a6.53,6.53,0,0,1-7.175-3.85l-5.441-6.343a7.034,7.034,0,0,1,2.105-10.844C1194.459,1659.8,1198.825,1658.23,1200.324,1660.116Z" transform="translate(-1180.692 -1652.109)" fill="#ffb27d"/>
            <path id="Path_1171" data-name="Path 1171" d="M1151.04,1625.745l1.294-.647s-5.177-8.411.647-9.058,11-1.941,11-5.176,0-9.058-7.117-6.47-6.47,7.117-10.353,7.764-7.117,1.294-5.823,5.177,3.883,6.47,2.589,7.764S1147.8,1632.855,1151.04,1625.745Z" transform="translate(-1140.401 -1603.749)" fill="url(#linear-gradient-3)"/>
            <path id="Path_1172" data-name="Path 1172" d="M1188.573,1754.33s-1.076-5.683-3.476-5.83-4.607,1.954-2.047,5.032C1186.227,1757.365,1188.573,1754.33,1188.573,1754.33Z" transform="translate(-1176.553 -1729.827)" fill="#ffb27d"/>
          </g>
          <path id="Path_1173" data-name="Path 1173" d="M990.521,1382.781l1.533,2.3a2.464,2.464,0,0,1,.294,2.144c-.623,1.886-2.03,5.6-4.013,7.579-2.733,2.733-5.465-3.826-6.012-6.012s3.279-7.652,4.372-8.745S992.161,1379.5,990.521,1382.781Z" transform="translate(-931.916 -1377.694)" fill="#ffb27d"/>
        </g>
        <g id="Group_1395" data-name="Group 1395" transform="translate(312.917 181.427)">
          <path id="Path_1174" data-name="Path 1174" d="M2580.286,1685.93s4.474,2.177,5.295,4.675c.66,2,5.606,2.264,6.094,6.208a4.525,4.525,0,0,0,3.787,3.978c5.052.775,12.836,3.4,14.082,12.168.95,6.694-2.462,9.233-6.046,10.111a5.079,5.079,0,0,0-3.847,5.859c.51,2.548-.25,5.492-4.664,7.821-9.888,5.217-19.765-12.363-19.765-12.363l-2.024-30.7Z" transform="translate(-2514.296 -1667.018)" fill="url(#linear-gradient-4)"/>
          <path id="Path_1175" data-name="Path 1175" d="M2203.085,1629.54s19.745,31.23,43.224,37.263c0,0-4.575,13.03-8.1,14.522,0,0-28.886-24.1-36.309-47.347Z" transform="translate(-2190.906 -1617.904)" fill="#ffb27d"/>
          <path id="Path_1176" data-name="Path 1176" d="M2942.982,3163.819l.64,5.261a2.177,2.177,0,0,0,1.906,1.9,33.6,33.6,0,0,0,7.041.11,1.86,1.86,0,0,0,1.563-2.418,19.166,19.166,0,0,0-3.529-6.875h-5.835a1.8,1.8,0,0,0-1.785,2.02Z" transform="translate(-2836.348 -2952.434)" fill="#252629"/>
          <path id="Path_1177" data-name="Path 1177" d="M2559.289,2699.88l-.985,5.794s3.3,33.412,3.885,46.777a10.475,10.475,0,0,1-1.549,5.951l-5.736,9.311,14.578-8.6.291-1.779-2.386-3.28,3.125-37.43a11.482,11.482,0,0,0-1.307-6.352l-3.016-5.665Z" transform="translate(-2498.36 -2550.116)" fill="#ffb27d"/>
          <path id="Path_1178" data-name="Path 1178" d="M2539.161,3142.652h4.652a2.8,2.8,0,0,0,2.223-1.088c1.451-1.884,4.454-5.562,5.891-5.656,1.935-.129,1.687,6.746,1.687,6.746h1.088l1.374-8.544a5.056,5.056,0,0,0-2.654-5.286h0a7.15,7.15,0,0,1-2.839,4.716c-2.4,1.451-9.754,6.626-9.754,6.626a6.637,6.637,0,0,0-1.89.05,1.23,1.23,0,0,0,.224,2.437Z" transform="translate(-2483.577 -2923.708)" fill="#252629"/>
          <path id="Path_1179" data-name="Path 1179" d="M2743.6,2704.946s19.324,36.656,22.4,45.025a80.406,80.406,0,0,1,4.189,16.012c.064,1.033,1.349,2.024,4.891,2.024a3.4,3.4,0,0,0,3.162-1.443,2.067,2.067,0,0,0,.077-2c-1.118-2.263-4.665-9.492-5.979-12.77-1.572-3.916-4.942-21.656-6.793-27.826s-3.942-12.859-12-19.023C2753.539,2704.946,2748.013,2699.529,2743.6,2704.946Z" transform="translate(-2662.702 -2552.439)" fill="#ffb27d"/>
          <path id="Path_1180" data-name="Path 1180" d="M2465.524,1957.495c-4.985-21.122,7.643-33.068,7.643-33.068-7.969-7.648-22.491-11.124-22.491-11.124s-13.852,10.128-12.213,18.055c.967,4.646,9.737,27.829,9.737,27.829a19.278,19.278,0,0,0,17.323-1.692Z" transform="translate(-2396.833 -1865.049)" fill="#2a468a"/>
          <path id="Path_1181" data-name="Path 1181" d="M2536.4,2266.239c-2.029-6.111-11.052-10.457-11.052-10.457a19.278,19.278,0,0,1-17.314,1.693,34.735,34.735,0,0,0-.563,13.422c1.256,6.463,9.134,48,9.134,48,12.415,2.515,31.507-2.531,31.507-2.531C2540.213,2302.32,2538.436,2272.345,2536.4,2266.239Z" transform="translate(-2456.67 -2163.332)" fill="#739af0"/>
          <path id="Path_1182" data-name="Path 1182" d="M2551.3,1793.43l4.053,18.2c.388,1.6-1.073,1.341-2.7,1.035-2.66-.5-6.076-1.532-7.22-3.6a1.948,1.948,0,0,1-.208-.686l-1.741-12.623a2.267,2.267,0,0,1,1.33-2.383l3.36-1.49a2.269,2.269,0,0,1,3.121,1.539Z" transform="translate(-2488.407 -1759.129)" fill="#ffb27d"/>
          <g id="Group_1393" data-name="Group 1393" transform="translate(48.411 10.679)">
            <path id="Path_1183" data-name="Path 1183" d="M2498.555,1672.172s-4.314,2.92-6.167,10.358,1.158,10.1,4.247,9.942a14.329,14.329,0,0,0,11.446-6.455C2511.952,1680.684,2504.2,1668.6,2498.555,1672.172Z" transform="translate(-2491.82 -1665.15)" fill="#ffb27d"/>
            <path id="Path_1184" data-name="Path 1184" d="M2514.267,1640.03s1.58-10.658-7.267-9.028l-1.79,1.863s-4.331-4.878.462-8.564,11.444-2.742,15.123,3.969,5.014,11.429,1.935,15.6-5.4.594-5.4.594,1.415-3.611.242-5.16-2.688.9-2.688.9Z" transform="translate(-2501.93 -1622.167)" fill="url(#linear-gradient-5)"/>
            <path id="Path_1185" data-name="Path 1185" d="M2589.77,1744.646s.781-5.484,3.58-3.917-1.008,5.122-2.539,6.331Z" transform="translate(-2577.137 -1725.176)" fill="#ffb27d"/>
          </g>
          <g id="Group_1394" data-name="Group 1394">
            <path id="Path_1186" data-name="Path 1186" d="M2129.06,1557.454c-.059.644,2.336,1.088,3.1-1.657-.209-1.192-.582-6.409-1.5-7.225a96.536,96.536,0,0,0-13.552-9.181,1.777,1.777,0,0,0,.3,2.46l4.334,2.925a17.552,17.552,0,0,0-1.186,4.531,5.078,5.078,0,0,0,1.282,3.544c.862.985,2.024,2.257,3.071,3.225a5.011,5.011,0,0,0,4.146,1.378Z" transform="translate(-2116.749 -1539.392)" fill="#ffb27d"/>
            <path id="Path_1187" data-name="Path 1187" d="M2168.613,1602.857l.619-.254c-.088-.214-2.167-5.265-3.17-6.313a1.545,1.545,0,0,1-.556-1.034.761.761,0,0,1,.241-.474l3.53,1.886,1.551,2.43.563-.363-1.646-2.578-4.088-2.186-.173.14a1.537,1.537,0,0,0-.647,1.1,2.105,2.105,0,0,0,.74,1.538,35.407,35.407,0,0,1,3.035,6.108Z" transform="translate(-2158.627 -1586.928)" fill="#ffb27d"/>
          </g>
          <path id="Path_1188" data-name="Path 1188" d="M2645.985,1997.053s22.436,46.069,30.56,50.092a91.425,91.425,0,0,1,13.3,2.388,1.32,1.32,0,0,1-.052,2.539c-3.516.959-9.341,1.76-14.679-1.138,0,0,2.868,4.3,1.195,5.973,0,0-3.825-4.539-5.257-5.973-1.262-1.262-24.238-26.31-33.9-41.416-.781-1.221-.242-4.848.3-6.191C2638.706,2000.234,2641.475,1995.3,2645.985,1997.053Z" transform="translate(-2569.651 -1937.671)" fill="#ffb27d"/>
        </g>
      </g>
      <path id="Rectangle_522" data-name="Rectangle 522" d="M1.6,3.874A1.6,1.6,0,0,1,0,2.272V1.6Z" transform="translate(369.551 705.91)" fill="#2e3552"/>
    </g>
  </g>
</svg>
