<svg xmlns="http://www.w3.org/2000/svg" xmlns:xlink="http://www.w3.org/1999/xlink" width="579" height="428" viewBox="0 0 579 428">
  <defs>
    <clipPath id="clip-path">
      <rect id="Rectangle_1" data-name="Rectangle 1" width="579" height="428"/>
    </clipPath>
  </defs>
  <g id="Web_1920_2" data-name="Web 1920 – 2" clip-path="url(#clip-path)">
    <g id="Holiday_List" data-name="Holiday List" transform="translate(-923.961 -109.382)">
      <g id="Leave" transform="translate(960 532.057)">
        <rect id="Rectangle_457" data-name="Rectangle 457" width="508.961" height="3.985" rx="1.828" fill="#2e3552"/>
      </g>
      <g id="undraw_Online_calendar_re_wk3t_1_" data-name="undraw_Online_calendar_re_wk3t (1)" transform="translate(960 247.358)">
        <path id="Path_1306" data-name="Path 1306" d="M0,0H284.563V190.061H0Z" transform="translate(0 22.36)" fill="rgba(243,24,106,0.22)"/>
        <rect id="Rectangle_459" data-name="Rectangle 459" width="52.118" height="36.335" transform="translate(19.082 58.974)" fill="#f3f7ff"/>
        <rect id="Rectangle_460" data-name="Rectangle 460" width="52.118" height="36.335" transform="translate(83.842 58.974)" fill="#f3f7ff"/>
        <rect id="Rectangle_461" data-name="Rectangle 461" width="52.118" height="36.335" transform="translate(148.603 58.974)" fill="#f3f7ff"/>
        <rect id="Rectangle_462" data-name="Rectangle 462" width="52.118" height="36.335" transform="translate(213.647 59.057)" fill="#f3f7ff"/>
        <rect id="Rectangle_463" data-name="Rectangle 463" width="52.118" height="36.335" transform="translate(19.621 110.289)" fill="#f3f7ff"/>
        <rect id="Rectangle_464" data-name="Rectangle 464" width="52.118" height="36.335" transform="translate(83.933 110.289)" fill="#f3f7ff"/>
        <rect id="Rectangle_465" data-name="Rectangle 465" width="52.118" height="36.335" transform="translate(148.603 110.403)" fill="#f3f7ff"/>
        <rect id="Rectangle_466" data-name="Rectangle 466" width="52.118" height="36.335" transform="translate(213.363 110.403)" fill="#f3f7ff"/>
        <rect id="Rectangle_467" data-name="Rectangle 467" width="52.118" height="36.335" transform="translate(19.082 161.831)" fill="#f3f7ff"/>
        <rect id="Rectangle_468" data-name="Rectangle 468" width="52.118" height="36.335" transform="translate(83.842 161.831)" fill="#f3f7ff"/>
        <rect id="Rectangle_469" data-name="Rectangle 469" width="52.118" height="36.335" transform="translate(148.603 161.831)" fill="#f3f7ff"/>
        <rect id="Rectangle_470" data-name="Rectangle 470" width="52.118" height="36.335" transform="translate(213.363 161.831)" fill="#f3f7ff"/>
        <ellipse id="Ellipse_80" data-name="Ellipse 80" cx="7.818" cy="8.385" rx="7.818" ry="8.385" transform="translate(66.711 27.95)" fill="#fff"/>
        <ellipse id="Ellipse_81" data-name="Ellipse 81" cx="7.818" cy="8.385" rx="7.818" ry="8.385" transform="translate(195.963 27.95)" fill="#fff"/>
        <rect id="Rectangle_471" data-name="Rectangle 471" width="6.255" height="38.571" transform="translate(71.402)" fill="#f53f83"/>
        <rect id="Rectangle_472" data-name="Rectangle 472" width="6.255" height="38.571" transform="translate(200.654)" fill="#f53f83"/>
        <g id="Group_6" data-name="Group 6" transform="translate(29.431 112.469)">
          <circle id="Ellipse_74" data-name="Ellipse 74" cx="15.707" cy="15.707" r="15.707" transform="translate(0 0)" fill="#0da421"/>
          <path id="Path_1191" data-name="Path 1191" d="M424.4,509.441a1.628,1.628,0,0,1-.981-.327l-.017-.013-3.692-2.826a1.64,1.64,0,1,1,1.995-2.6l2.39,1.833,5.651-7.369a1.635,1.635,0,0,1,2.3-.3l-.035.048.036-.047a1.643,1.643,0,0,1,.3,2.3L425.7,508.8a1.642,1.642,0,0,1-1.308.64Z" transform="translate(-410.241 -487.742)" fill="#fff"/>
        </g>
        <g id="Group_12" data-name="Group 12" transform="translate(93.743 112.469)">
          <circle id="Ellipse_74-2" data-name="Ellipse 74" cx="15.707" cy="15.707" r="15.707" transform="translate(0 0)" fill="#0da421"/>
          <path id="Path_1191-2" data-name="Path 1191" d="M424.4,509.441a1.628,1.628,0,0,1-.981-.327l-.017-.013-3.692-2.826a1.64,1.64,0,1,1,1.995-2.6l2.39,1.833,5.651-7.369a1.635,1.635,0,0,1,2.3-.3l-.035.048.036-.047a1.643,1.643,0,0,1,.3,2.3L425.7,508.8a1.642,1.642,0,0,1-1.308.64Z" transform="translate(-410.241 -487.742)" fill="#fff"/>
        </g>
        <g id="Group_13" data-name="Group 13" transform="translate(223.457 61.237)">
          <circle id="Ellipse_74-3" data-name="Ellipse 74" cx="15.707" cy="15.707" r="15.707" transform="translate(0 0)" fill="#0da421"/>
          <path id="Path_1191-3" data-name="Path 1191" d="M424.4,509.441a1.628,1.628,0,0,1-.981-.327l-.017-.013-3.692-2.826a1.64,1.64,0,1,1,1.995-2.6l2.39,1.833,5.651-7.369a1.635,1.635,0,0,1,2.3-.3l-.035.048.036-.047a1.643,1.643,0,0,1,.3,2.3L425.7,508.8a1.642,1.642,0,0,1-1.308.64Z" transform="translate(-410.241 -487.742)" fill="#fff"/>
        </g>
      </g>
      <g id="undraw_Travel_mode_re_2lxo" transform="translate(1204.549 206.132)">
        <path id="Path_1263" data-name="Path 1263" d="M682.646,439.83a9.21,9.21,0,0,1-6.938-16.924l19.549-22.177,16.533,3.565-23.255,22.782a9.156,9.156,0,0,1-5.886,12.753Z" transform="translate(-670.971 -268.01)" fill="#ffb27d"/>
        <path id="Path_1264" data-name="Path 1264" d="M503.589,126.464l-48.725,61.157L440.013,180.8l57.266-89.156Z" transform="translate(-427.601 -34.043)" fill="#f53f83"/>
        <circle id="Ellipse_82" data-name="Ellipse 82" cx="5.343" cy="5.343" r="5.343" transform="translate(185.468 316.564)"/>
        <path id="Path_1265" data-name="Path 1265" d="M467.554,502.523s-12.631-38.379-13.6-41.05-11.173,1.7-13.843,2.429a2.712,2.712,0,0,0-1.944,3.4l13.6,39.35-4.129,1.944L435.007,469c-7.287-7.53-1.944-8.016-1.944-8.016s15.546-5.341,21.376-5.829,3.644,6.559,3.644,6.559l14.089,37.407Z" transform="translate(-280.629 -288.22)" fill="#111"/>
        <path id="Path_1266" data-name="Path 1266" d="M326.988,532.656h0a15.15,15.15,0,0,1,7.285-5.584q.157-.059.364-.131c6.692-2.339,53.317-14.933,53.317-14.933s9.23-3.4,13.359,5.83,28.668,85.744,28.668,85.744-47.981,25.66-61.97,28.449a8.448,8.448,0,0,1-2.64.209,37.224,37.224,0,0,1-6.988-1.669,29.239,29.239,0,0,1-7.1-3.432l-27.211-81.372S320.186,536.781,326.988,532.656Z" transform="translate(-170.425 -309.117)" fill="#f53f83"/>
        <path id="Path_1267" data-name="Path 1267" d="M422.642,541.836h0a15.152,15.152,0,0,1,7.285-5.584q.157-.059.364-.131c-2.2,3.858-3.037,9.847-3.037,9.847S453.973,625.4,456.4,632.927c1.853,5.74,5.584,7.69,7.255,8.293a8.446,8.446,0,0,1-2.64.209,37.22,37.22,0,0,1-6.988-1.669,15.532,15.532,0,0,1-1.756-2.46s-27.2-81.372-29.634-85.258S422.642,541.836,422.642,541.836Z" transform="translate(-266.079 -318.302)" fill="#111"/>
        <circle id="Ellipse_83" data-name="Ellipse 83" cx="5.343" cy="5.343" r="5.343" transform="translate(201.863 316.686)"/>
        <circle id="Ellipse_84" data-name="Ellipse 84" cx="5.343" cy="5.343" r="5.343" transform="translate(253.724 294.218)"/>
        <path id="Path_1268" data-name="Path 1268" d="M482.382,447.037a9.21,9.21,0,0,0,7.536-16.666L471.17,407.512l-16.65,2.981,22.433,23.591a9.156,9.156,0,0,0,5.431,12.953Z" transform="translate(-317.508 -270.531)" fill="#ffb27d"/>
        <path id="Path_1269" data-name="Path 1269" d="M513.478,440.738l-11.612-.182,1.4,39.577H513.48Z" transform="translate(-476.365 -163.647)" fill="#ffb27d"/>
        <path id="Path_1270" data-name="Path 1270" d="M705.657,687.794H685.542a12.819,12.819,0,0,0-12.818,12.814v.421h32.932Z" transform="translate(-665.941 -374.644)" fill="#f53f83"/>
        <path id="Path_1271" data-name="Path 1271" d="M358.373,424.146l-12.685,8.144,25.373,30.521,8.6-5.518Z" transform="translate(-244.378 -157.552)" fill="#ffb27d"/>
        <path id="Path_1272" data-name="Path 1272" d="M531.511,659.762l-16.924,10.867h0a12.819,12.819,0,0,0-3.861,17.712l.225.351L538.664,670.9Z" transform="translate(-395.843 -364.231)" fill="#f53f83"/>
        <path id="Path_1273" data-name="Path 1273" d="M632.663,365.358s-28.184-93.607-37.241-94.872S571.768,294.5,571.768,294.5c-18.917,24.146-38.428,102.34-38.428,102.34s32.524,2.035,56.3,14.685,51.834-.64,51.834-.64Z" transform="translate(-514.15 -219.614)" fill="#f53f83"/>
        <path id="Path_1274" data-name="Path 1274" d="M632.664,365.358s-28.188-93.607-37.236-94.872-19.948,24.275-19.948,24.275c-9.431,38.967-42.141,102.08-42.141,102.08s32.526,2.035,56.3,14.685,51.834-.64,51.834-.64Z" transform="translate(-514.15 -219.615)" fill="#d80554"/>
        <path id="Path_1275" data-name="Path 1275" d="M430,183.461V230.5l5.535,68.137,27.656,51.54-13.2,9.428-37.715-49.026L397.362,261.9,373.938,369.66l-17.6-1.257,12.223-149.412,23.194-42.056Z" transform="translate(-334.611 -65.723)" fill="#111"/>
        <path id="Path_1276" data-name="Path 1276" d="M572.026,291.882c-8.8,8.8-.629,18.228-.629,18.228L561.34,332.74l39.6,10.682,13.844-61.834-9.428-10.057c-18.858-.629-18.866-1.019-18.866-1.019C583.178,273.745,572.026,291.882,572.026,291.882Z" transform="translate(-505.051 -219.641)" fill="#e3e8f4"/>
        <path id="Path_1277" data-name="Path 1277" d="M550.587,276.151h0a16.9,16.9,0,0,1,4.889,21.583c-4.537,8.66-9.417,22.074-6.9,36.8,4.553,26.651,19.15,46.9,27.28,53.4,2.834,2.264,2.929,5.559,2.514,7.928-1.161,6.612-7.572,14.116-12.007,15.621a2.862,2.862,0,0,1-.925.145c-7.2,0-24.926-22.942-45.29-67.764-12.683-27.914-3.478-50.3,6.477-64.156a16.9,16.9,0,0,1,23.744-3.717Z" transform="translate(-439.047 -220.448)" fill="#f53f83"/>
        <path id="Path_1278" data-name="Path 1278" d="M298.356,118.324l57.188,75.035,15.085-6.285L316.574,95.935Z" transform="translate(-205.601 -35.635)" fill="#f53f83"/>
        <path id="Path_1279" data-name="Path 1279" d="M550.945,232.3h39.334a3.052,3.052,0,0,0,3.052-3.052V212.3h0a22.719,22.719,0,0,0-45.437,0v16.95a3.052,3.052,0,0,0,3.052,3.052Z" transform="translate(-475.154 -189.577)" fill="#2f2e41"/>
        <circle id="Ellipse_85" data-name="Ellipse 85" cx="16.657" cy="16.657" r="16.657" transform="translate(84.164 48.28) rotate(-118.663)" fill="#ffb27d"/>
        <path id="Path_1280" data-name="Path 1280" d="M566.155,217.6h24.052l.246-3.453,1.233,3.453h3.706l.488-6.844,2.444,6.844h7.166v-.339a17.992,17.992,0,0,0-17.971-17.971h-3.391a17.992,17.992,0,0,0-17.971,17.971Z" transform="translate(-498.79 -193.185)" fill="#2f2e41"/>
        <path id="Path_1281" data-name="Path 1281" d="M564.328,243.521a3.118,3.118,0,0,0,.546-.048l17.61-3.108v-29.1H563.092l.48.559c6.677,7.788,1.647,20.417-1.946,27.251a3.006,3.006,0,0,0,.239,3.192,3.04,3.04,0,0,0,2.463,1.258Z" transform="translate(-472.714 -197.631)" fill="#2f2e41"/>
      </g>
    </g>
  </g>
</svg>
