<svg xmlns="http://www.w3.org/2000/svg" xmlns:xlink="http://www.w3.org/1999/xlink" width="579" height="428" viewBox="0 0 579 428">
  <defs>
    <clipPath id="clip-path">
      <rect id="Rectangle_1" data-name="Rectangle 1" width="579" height="428"/>
    </clipPath>
  </defs>
  <g id="Web_1920_2" data-name="Web 1920 – 2" clip-path="url(#clip-path)">
    <g id="Group_14" data-name="Group 14" transform="translate(537.754 289.273)">
      <g id="Group_6433" data-name="Group 6433" transform="translate(-515.754 -194.273)">
        <g id="Group_6413" data-name="Group 6413" transform="translate(0 29.488)">
          <rect id="Rectangle_15004" data-name="Rectangle 15004" width="98.351" height="161.203" fill="#303c60"/>
          <rect id="Rectangle_15005" data-name="Rectangle 15005" width="89.967" height="151.775" transform="translate(5.151 3.285)" fill="#fff"/>
          <g id="Group_6412" data-name="Group 6412" transform="translate(10.364 9.454)">
            <g id="Group_6409" data-name="Group 6409" transform="translate(21.697 9.318)">
              <path id="Path_31606" data-name="Path 31606" d="M590.122,688.249c3.386-7.284,9.117-9.618,18.528-9.618,11.206,0,17.025,4.06,18.674,9.97C607.257,688.876,590.122,688.249,590.122,688.249Z" transform="translate(-590.122 -642.874)" fill="#9bd6e8"/>
              <path id="Path_31607" data-name="Path 31607" d="M606.287,520.9c-4.744,1.332-4.536,4-6.116,6.47s-5.017,4.123-5.429,5.773,1.058,5.086-.687,7.01-2.337,2.886-1.649,4.811,2.2,4.948,2.337,5.36,2.062,3.3,4.4,3.71,6.735,1.1,8.934,2.062,9.27-1.232,13.2-1.094,6.6-2.754,6.322-4.679,2.894-5.773,2.886-9.072c-.008-3.542-4.123-6.185-5.223-8.522s.138-6.46-3.986-8.9c-2.606-1.544-4.4-1.406-6.46-2.094S609.311,520.052,606.287,520.9Z" transform="translate(-591.672 -520.574)" fill="#3a384d"/>
              <path id="Path_31608" data-name="Path 31608" d="M660.5,623.475c-1.073,1.584-1.86,1.649-3.024,0-.926-1.312-2.749-4.291-2.749-5.8V602.583a2.757,2.757,0,0,1,2.749-2.749H660.5a2.757,2.757,0,0,1,2.75,2.749v15.089C663.249,619.184,661.462,622.055,660.5,623.475Z" transform="translate(-640.111 -581.903)" fill="#f09959"/>
              <path id="Path_31609" data-name="Path 31609" d="M660.5,599.835h-3.024a2.757,2.757,0,0,0-2.749,2.749v13.464c3.4,1.081,6.494-1.068,8.522-3.489v-9.974A2.757,2.757,0,0,0,660.5,599.835Z" transform="translate(-640.111 -581.904)" fill="#e38540"/>
              <ellipse id="Ellipse_1708" data-name="Ellipse 1708" cx="9.14" cy="12.454" rx="9.14" ry="12.454" transform="translate(9.736 5.63)" fill="#f09959"/>
              <path id="Path_31610" data-name="Path 31610" d="M643.508,539.884c-5.773,9.759-14.295,8.8-14.295,8.8s.206-12.92,6.975-13.607,10.755,2.029,12.13,6.513a11.061,11.061,0,0,1,0,7.438,11.868,11.868,0,0,1-3.3-4.467,32.089,32.089,0,0,1-1.51-4.677Z" transform="translate(-620.37 -531.711)" fill="#3a384d"/>
              <ellipse id="Ellipse_1709" data-name="Ellipse 1709" cx="2.405" cy="3.608" rx="2.405" ry="3.608" transform="translate(4.778 16.697) rotate(-25.405)" fill="#f09959"/>
              <path id="Path_31611" data-name="Path 31611" d="M706.311,591.5c-.855,1.8-.575,3.721.625,4.291s2.866-.427,3.721-2.227.575-3.721-.625-4.291S707.166,589.7,706.311,591.5Z" transform="translate(-679.643 -573.604)" fill="#f09959"/>
              <path id="Path_31612" data-name="Path 31612" d="M665.244,630.368s-1.538,1.994-3.436,1.994-3.436-1.994-3.436-1.994Z" transform="translate(-642.932 -605.529)" fill="#fff"/>
            </g>
            <path id="Path_31613" data-name="Path 31613" d="M633.526,790.118H610.443a2.684,2.684,0,0,1,0-5.368h23.082a2.684,2.684,0,1,1,0,5.368Z" transform="translate(-582.072 -715.668)" fill="#303c60"/>
            <path id="Path_31614" data-name="Path 31614" d="M623.3,826.57H591.762a2.684,2.684,0,1,1,0-5.368H623.3a2.684,2.684,0,0,1,0,5.368Z" transform="translate(-567.617 -743.874)" fill="#303c60"/>
            <path id="Path_31615" data-name="Path 31615" d="M572.482,965.372H495.773a1.558,1.558,0,0,1,0-3.115h76.709a1.557,1.557,0,1,1,0,3.115Z" transform="translate(-494.216 -853.019)" fill="#303c60"/>
            <path id="Path_31616" data-name="Path 31616" d="M572.482,997.366H495.773a1.557,1.557,0,1,1,0-3.115h76.709a1.557,1.557,0,0,1,0,3.115Z" transform="translate(-494.216 -877.775)" fill="#303c60"/>
            <path id="Path_31617" data-name="Path 31617" d="M572.482,1029.37H495.773a1.557,1.557,0,0,1,0-3.115h76.709a1.557,1.557,0,0,1,0,3.115Z" transform="translate(-494.215 -902.535)" fill="#303c60"/>
            <g id="Group_6410" data-name="Group 6410" transform="translate(9.506)">
              <path id="Path_31618" data-name="Path 31618" d="M594.267,535.87H539.016a2.784,2.784,0,0,1-2.781-2.781V482.168a2.784,2.784,0,0,1,2.781-2.781h55.251a2.784,2.784,0,0,1,2.781,2.781V533.09A2.784,2.784,0,0,1,594.267,535.87Zm-55.251-54.221a.525.525,0,0,0-.518.518v50.922a.525.525,0,0,0,.518.518h55.251a.525.525,0,0,0,.518-.518V482.168a.525.525,0,0,0-.518-.518Z" transform="translate(-536.235 -479.387)" fill="#303c60"/>
            </g>
            <g id="Group_6411" data-name="Group 6411" transform="translate(15.083 89.698)">
              <path id="Path_31619" data-name="Path 31619" d="M566.064,875.882l1.6,3.241,3.577.52-2.588,2.523.611,3.562-3.2-1.682-3.2,1.68.611-3.562-2.588-2.523,3.577-.52Z" transform="translate(-560.887 -875.882)" fill="#303c60"/>
              <path id="Path_31620" data-name="Path 31620" d="M623.977,875.882l1.6,3.241,3.577.52-2.588,2.523.611,3.562-3.2-1.682-3.2,1.68.611-3.562-2.588-2.522,3.577-.52Z" transform="translate(-605.698 -875.882)" fill="#303c60"/>
              <path id="Path_31621" data-name="Path 31621" d="M681.892,875.882l1.6,3.241,3.577.52-2.588,2.523.611,3.562-3.2-1.683-3.2,1.681.611-3.562-2.588-2.523,3.577-.52Z" transform="translate(-650.512 -875.882)" fill="#303c60"/>
              <path id="Path_31622" data-name="Path 31622" d="M739.806,875.882l1.6,3.241,3.577.52-2.588,2.523.611,3.562-3.2-1.682-3.2,1.68.611-3.562-2.588-2.523,3.577-.52Z" transform="translate(-695.325 -875.882)" fill="#303c60"/>
            </g>
          </g>
        </g>
        <g id="Group_6418" data-name="Group 6418" transform="translate(219.263 29.488)">
          <rect id="Rectangle_15006" data-name="Rectangle 15006" width="98.351" height="161.203" fill="#303c60"/>
          <rect id="Rectangle_15007" data-name="Rectangle 15007" width="89.967" height="151.775" transform="translate(5.151 3.285)" fill="#fff"/>
          <g id="Group_6417" data-name="Group 6417" transform="translate(10.363 9.454)">
            <g id="Group_6414" data-name="Group 6414" transform="translate(21.696 10.287)">
              <path id="Path_31623" data-name="Path 31623" d="M1578.22,596.877c0,7.221,4.347,18.871,14.6,18.5s12.524-11.479,12.921-14.613S1578.22,596.877,1578.22,596.877Z" transform="translate(-1573.947 -580.585)" fill="#7a4e34"/>
              <path id="Path_31624" data-name="Path 31624" d="M1559.33,688.249c3.386-7.284,9.117-9.618,18.528-9.618,11.206,0,17.025,4.06,18.674,9.97C1576.47,688.876,1559.33,688.249,1559.33,688.249Z" transform="translate(-1559.33 -643.844)" fill="#d54a41"/>
              <path id="Path_31625" data-name="Path 31625" d="M1629.71,623.475c-1.073,1.584-1.86,1.649-3.024,0-.926-1.312-2.749-4.291-2.749-5.8V602.583a2.757,2.757,0,0,1,2.749-2.749h3.024a2.757,2.757,0,0,1,2.749,2.749v15.089C1632.46,619.184,1630.68,622.055,1629.71,623.475Z" transform="translate(-1609.325 -582.873)" fill="#f09959"/>
              <path id="Path_31626" data-name="Path 31626" d="M1629.71,599.835h-3.024a2.757,2.757,0,0,0-2.749,2.749v13.464c3.4,1.081,6.494-1.068,8.521-3.489v-9.974a2.757,2.757,0,0,0-2.748-2.75Z" transform="translate(-1609.325 -582.874)" fill="#e38540"/>
              <ellipse id="Ellipse_1710" data-name="Ellipse 1710" cx="9.14" cy="12.454" rx="9.14" ry="12.454" transform="translate(9.737 4.66)" fill="#f09959"/>
              <path id="Path_31627" data-name="Path 31627" d="M1597.74,532.508c-1.086,3.83-3.466,3.786-6.785,5.043s-4.905,2.523-5.991,4.974c-1.385,3.124.629,12.234.629,12.234s-8.4-6.289-7.432-16.179,6.8-13.72,12.291-13.72,7.575,3.344,7.575,3.344,2.923.012,5.688,3.287c3.716,4.4,2.573,15.092,0,18.923s-4.287,5.031-4.23,4.859,2.4-8.967,1.144-14.406a34.726,34.726,0,0,0-2.889-8.359Z" transform="translate(-1573.843 -524.86)" fill="#7a4e34"/>
              <path id="Path_31628" data-name="Path 31628" d="M1634.45,630.368s-1.538,1.994-3.436,1.994-3.436-1.994-3.436-1.994Z" transform="translate(-1612.142 -606.499)" fill="#fff"/>
            </g>
            <path id="Path_31629" data-name="Path 31629" d="M1602.74,790.118h-23.082a2.684,2.684,0,0,1,0-5.368h23.082a2.684,2.684,0,0,1,0,5.368Z" transform="translate(-1551.287 -715.668)" fill="#303c60"/>
            <path id="Path_31630" data-name="Path 31630" d="M1592.51,826.57h-31.54a2.684,2.684,0,0,1,0-5.368h31.536a2.684,2.684,0,0,1,0,5.368Z" transform="translate(-1536.826 -743.874)" fill="#303c60"/>
            <path id="Path_31631" data-name="Path 31631" d="M1541.69,965.372h-76.709a1.558,1.558,0,0,1,0-3.115h76.709a1.557,1.557,0,1,1,0,3.115Z" transform="translate(-1463.426 -853.019)" fill="#303c60"/>
            <path id="Path_31632" data-name="Path 31632" d="M1541.69,997.366h-76.709a1.557,1.557,0,1,1,0-3.115h76.709a1.557,1.557,0,0,1,0,3.115Z" transform="translate(-1463.426 -877.775)" fill="#303c60"/>
            <path id="Path_31633" data-name="Path 31633" d="M1541.69,1029.37h-76.709a1.557,1.557,0,0,1,0-3.115h76.709a1.557,1.557,0,0,1,0,3.115Z" transform="translate(-1463.426 -902.535)" fill="#303c60"/>
            <g id="Group_6415" data-name="Group 6415" transform="translate(9.507)">
              <path id="Path_31634" data-name="Path 31634" d="M1563.48,535.87h-55.25a2.784,2.784,0,0,1-2.78-2.781V482.168a2.784,2.784,0,0,1,2.78-2.781h55.251a2.784,2.784,0,0,1,2.781,2.781V533.09a2.784,2.784,0,0,1-2.782,2.78Zm-55.252-54.221a.525.525,0,0,0-.518.518v50.922a.525.525,0,0,0,.518.518h55.251a.525.525,0,0,0,.518-.518V482.168a.525.525,0,0,0-.518-.518Z" transform="translate(-1505.45 -479.387)" fill="#303c60"/>
            </g>
            <g id="Group_6416" data-name="Group 6416" transform="translate(15.084 89.698)">
              <path id="Path_31635" data-name="Path 31635" d="M1535.28,875.882l1.6,3.241,3.577.52-2.588,2.523.611,3.562-3.2-1.682-3.2,1.682.611-3.562-2.587-2.524,3.577-.52Z" transform="translate(-1530.1 -875.882)" fill="#303c60"/>
              <path id="Path_31636" data-name="Path 31636" d="M1593.19,875.882l1.6,3.241,3.577.52-2.588,2.523.611,3.562-3.2-1.683-3.2,1.682.611-3.562-2.588-2.523,3.577-.52Z" transform="translate(-1574.915 -875.882)" fill="#303c60"/>
              <path id="Path_31637" data-name="Path 31637" d="M1651.1,875.882l1.6,3.241,3.577.52-2.588,2.523.611,3.562-3.2-1.682-3.2,1.682.611-3.562-2.588-2.523,3.577-.52Z" transform="translate(-1619.723 -875.882)" fill="#303c60"/>
              <path id="Path_31638" data-name="Path 31638" d="M1709.02,875.882l1.6,3.241,3.577.52-2.588,2.523.611,3.562-3.2-1.682-3.2,1.682.611-3.562-2.588-2.523,3.577-.52Z" transform="translate(-1664.534 -875.882)" fill="#303c60"/>
            </g>
          </g>
        </g>
        <g id="Group_6423" data-name="Group 6423" transform="translate(91.409)">
          <path id="Rectangle_15008" data-name="Rectangle 15008" d="M0,0H134.332V220.179H0Z" fill="#26daef"/>
          <rect id="Rectangle_15009" data-name="Rectangle 15009" width="122.881" height="207.301" transform="translate(7.035 4.487)" fill="#fff"/>
          <g id="Group_6422" data-name="Group 6422" transform="translate(14.156 13.327)">
            <g id="Group_6419" data-name="Group 6419" transform="translate(28.081 9.578)">
              <path id="Path_31640" data-name="Path 31640" d="M1095.98,433.621c-.086-.257-2.237-12.605-2.494-17.408s7.718-5.488,7.718-5.488,6.517-3.516,11.234-1.715a19.011,19.011,0,0,1,10.07,8.6c2.144,3.773-1.886,15.532-1.886,15.532Z" transform="translate(-1081.191 -408.497)" fill="#2e2d3d"/>
              <path id="Path_31641" data-name="Path 31641" d="M1039.17,632.094c-.03-.2.551-5.062.572-5.259,1.086-10.233,13.7-13.111,26.288-13.111,14.789,0,24.821,2.707,26.422,13.34.047.312.9,5.184.857,5.511C1065.9,632.95,1039.17,632.094,1039.17,632.094Z" transform="translate(-1039.165 -567.296)" fill="#d5e1e8"/>
              <path id="Path_31642" data-name="Path 31642" d="M1136.22,538.388c-1.465,2.163-2.539,2.253-4.13,0-1.265-1.791-5.488-5.877-5.488-7.943l1.733-20.593a3.766,3.766,0,0,1,3.755-3.755h4.13a3.766,3.766,0,0,1,3.755,3.755l.8,20.593C1140.79,532.51,1137.54,536.448,1136.22,538.388Z" transform="translate(-1106.824 -484.017)" fill="#f09959"/>
              <path id="Path_31643" data-name="Path 31643" d="M1137,506.1h-4.13a3.765,3.765,0,0,0-3.755,3.755l-1.5,18.269c4.638,1.476,10.9-1.524,13.669-4.831l-.525-13.438A3.766,3.766,0,0,0,1137,506.1Z" transform="translate(-1107.604 -484.02)" fill="#e38540"/>
              <path id="Path_31644" data-name="Path 31644" d="M1097.34,619.008l6.621,12.239s3.544-2.915,3.887-2.344-.629,7.786-.629,7.786,7.889.107,8.232-.236-1.6-7.836-.8-7.836,3.207,2.172,3.207,2.172l7.393-11.781-1.625-.4-12.113,6.517-12.955-6.374Z" transform="translate(-1084.179 -571.078)" fill="#bdccd4"/>
              <path id="Path_31645" data-name="Path 31645" d="M1130.81,639.116l4.917,3.3-1.524,8.758,6.631-.37-1.656-7.966,4.076-3.721-1.915-1.8h-8.615Z" transform="translate(-1110.078 -585.548)" fill="#d54a41"/>
              <path id="Path_31646" data-name="Path 31646" d="M1107.32,591.894l-6.082,5.787s6.2,11.02,6.539,11.02,5.258-6.076,5.258-6.076l3.147-.055,4.972,5.216,5.777-10.22-5.891-6.244s-5.031,9.719-5.946,9.947-.921.343-1.661-.229S1107.32,591.894,1107.32,591.894Z" transform="translate(-1087.194 -549.963)" fill="#d5e1e8"/>
              <ellipse id="Ellipse_1711" data-name="Ellipse 1711" cx="12.484" cy="17.011" rx="12.484" ry="17.011" transform="translate(14.85 5.279)" fill="#f09959"/>
              <path id="Path_31647" data-name="Path 31647" d="M1087.84,494.71c1.168,2.458.786,5.082-.853,5.861s-3.914-.583-5.082-3.042-.785-5.083.854-5.861S1086.68,492.252,1087.84,494.71Z" transform="translate(-1071.716 -472.683)" fill="#f09959"/>
              <path id="Path_31648" data-name="Path 31648" d="M1204.73,494.71c-1.168,2.458-.786,5.082.853,5.861s3.914-.583,5.082-3.042.786-5.083-.853-5.861S1205.89,492.252,1204.73,494.71Z" transform="translate(-1166.748 -472.683)" fill="#f09959"/>
              <path id="Path_31649" data-name="Path 31649" d="M1146.58,537.875s-2.48,4.016-5.539,4.016-5.539-4.016-5.539-4.016Z" transform="translate(-1113.71 -508.606)" fill="#fff"/>
              <path id="Path_31650" data-name="Path 31650" d="M1109.75,431.958c5.145-3.6,7.46-3,11.319,2.916s8.489,6.021,8.489,6.021l.6-6.136s-5.748-11.119-13.464-9.661-12.1,8.4-12.1,8.4-.376,13.019.7,13.463,1.2-4.2,1.972-5.145-.772-5.4.258-7.461S1109.75,431.958,1109.75,431.958Z" transform="translate(-1089.743 -421.241)" fill="#2e2d3d"/>
              <path id="Path_31651" data-name="Path 31651" d="M1200.77,485.439c1.8,1.967,1.115,9.776,2.059,9.69s1.286-7.46,1.029-8.232S1200.77,485.439,1200.77,485.439Z" transform="translate(-1164.211 -468.033)" fill="#2e2d3d"/>
            </g>
            <path id="Path_31652" data-name="Path 31652" d="M1074.07,788.741h-57.344a3.666,3.666,0,0,1,0-7.332h57.344a3.666,3.666,0,1,1,0,7.332Z" transform="translate(-990.881 -687.468)" fill="#26daef"/>
            <path id="Path_31653" data-name="Path 31653" d="M1091.34,838.529h-43.071a3.666,3.666,0,0,1,0-7.332h43.071a3.666,3.666,0,1,1,0,7.332Z" transform="translate(-1015.293 -725.993)" fill="#26daef"/>
            <path id="Path_31654" data-name="Path 31654" d="M1021.94,1028.11H917.163a2.127,2.127,0,0,1,0-4.254h104.772a2.127,2.127,0,0,1,0,4.254Z" transform="translate(-915.036 -875.066)" fill="#26daef"/>
            <path id="Path_31655" data-name="Path 31655" d="M1021.94,1071.81H917.164a2.127,2.127,0,1,1,0-4.254h104.772a2.127,2.127,0,1,1,0,4.254Z" transform="translate(-915.036 -908.88)" fill="#26daef"/>
            <path id="Path_31656" data-name="Path 31656" d="M1021.94,1115.51H917.163a2.127,2.127,0,1,1,0-4.254h104.772a2.127,2.127,0,0,1,0,4.254Z" transform="translate(-915.036 -942.693)" fill="#26daef"/>
            <g id="Group_6420" data-name="Group 6420" transform="translate(13.397)">
              <path id="Path_31657" data-name="Path 31657" d="M1053.1,442.479H977.64a3.388,3.388,0,0,1-3.384-3.384V369.544a3.388,3.388,0,0,1,3.384-3.384h75.46a3.388,3.388,0,0,1,3.384,3.384V439.1a3.388,3.388,0,0,1-3.384,3.379Zm-75.46-74.057a1.123,1.123,0,0,0-1.122,1.122V439.1a1.123,1.123,0,0,0,1.122,1.122h75.46a1.123,1.123,0,0,0,1.122-1.122V369.544a1.123,1.123,0,0,0-1.122-1.122Z" transform="translate(-974.256 -366.16)" fill="#26daef"/>
            </g>
            <g id="Group_6421" data-name="Group 6421" transform="translate(11.511 122.1)">
              <path id="Path_31658" data-name="Path 31658" d="M972.988,905.881l2.185,4.427,4.886.71-3.535,3.446.835,4.866-4.371-2.3-4.37,2.3.835-4.866-3.535-3.446,4.886-.71Z" transform="translate(-965.918 -905.881)" fill="#31c8d9"/>
              <path id="Path_31659" data-name="Path 31659" d="M1052.09,905.881l2.185,4.427,4.886.71-3.535,3.446.834,4.866-4.37-2.3-4.37,2.3.835-4.866-3.535-3.446,4.886-.71Z" transform="translate(-1027.127 -905.881)" fill="#31c8d9"/>
              <path id="Path_31660" data-name="Path 31660" d="M1131.19,905.881l2.185,4.427,4.886.71-3.538,3.446.835,4.866-4.37-2.3-4.37,2.3.835-4.866-3.535-3.446,4.885-.71Z" transform="translate(-1088.332 -905.881)" fill="#31c8d9"/>
              <path id="Path_31661" data-name="Path 31661" d="M1210.29,905.881l2.185,4.427,4.887.71-3.538,3.446.834,4.866-4.37-2.3-4.37,2.3.835-4.866-3.535-3.446,4.886-.71Z" transform="translate(-1149.537 -905.881)" fill="#31c8d9"/>
              <path id="Path_31662" data-name="Path 31662" d="M1290.65,905.881l2.185,4.427,4.885.71-3.535,3.446.834,4.866-4.37-2.3-4.37,2.3.834-4.866-3.535-3.446,4.885-.71Z" transform="translate(-1211.714 -905.881)" fill="#31c8d9"/>
            </g>
          </g>
        </g>
        <rect id="Rectangle_15010" data-name="Rectangle 15010" width="176.129" height="6.563" rx="3.282" transform="translate(238.501 207.046)" fill="#2e5b9a"/>
        <g id="Group_6428" data-name="Group 6428" transform="translate(308.08 94.903)">
          <path id="Path_31663" data-name="Path 31663" d="M2515.66,790.26c2.336,8.235-3.368,16.72-9.653,18.5s-10.768-3.813-13.1-12.047.865-16.354,7.149-18.137S2513.33,782.025,2515.66,790.26Z" transform="translate(-2366.604 -766.077)" fill="#f09959"/>
          <path id="Path_31664" data-name="Path 31664" d="M2415.48,1536.71s16.1,25.014,18.279,26.1,7.613,1.359,5.574,5.438-2.855,20.12-4.758,20.936-18.217,2.719-15.77,0,3.952-1.359,5.187-6.253,2.97-14.139.659-16.042-16.449-19.032-16.449-19.032Z" transform="translate(-2301.649 -1352.968)" fill="#f09959"/>
          <path id="Path_31665" data-name="Path 31665" d="M1969.99,1584.19s-19.577,32.266-23.2,35.166-15.589,7.251-5.8,7.976,14.5-3.263,20.665-5.076,13.776-2.9,10.876-7.613-1.7-15,4.557-21.527S1969.99,1584.19,1969.99,1584.19Z" transform="translate(-1937.218 -1389.707)" fill="#f09959"/>
          <path id="Path_31666" data-name="Path 31666" d="M2153.54,1253.38s-48.463-1.267-67.677,14.5c-11.238,17.039-38.427,67.314-40.54,72.854,1.45,1.45,9.607,4.067,13.233,3.7,10.7-12.752,24.831-23.776,30.453-33.779,6.928-12.326,9.063-18.489,20.3-19.577s36.616-4.713,44.23-4.713S2153.54,1253.38,2153.54,1253.38Z" transform="translate(-2020.868 -1133.714)" fill="#0dc9df"/>
          <path id="Path_31667" data-name="Path 31667" d="M2639.49,1515.33h-2.541l-18.217-76h5.588Z" transform="translate(-2464.559 -1277.613)" fill="#2e5b9a"/>
          <path id="Path_31668" data-name="Path 31668" d="M2374.11,1506.14h2.54l20.9-78.689h-5.588Z" transform="translate(-2275.273 -1268.423)" fill="#2e5b9a"/>
          <path id="Path_31669" data-name="Path 31669" d="M2319.81,1238.79l-28.176,4.864s-37.442.344-54.557,3.532c-15.571,2.9-17.865,20.593,0,44.954,10.149,13.839,18.729,24.879,36.277,37.326,4.464-3.277,6.171-4.517,7.405-12.4-1.27-1.742-4.558-12.64-5.578-14.773-9.705-20.288-22.661-27.668-22.841-29.663,2.175-3.535,57.616,18.424,68.64,5.507C2331.5,1265.8,2319.81,1238.79,2319.81,1238.79Z" transform="translate(-2159.526 -1122.446)" fill="#0dc9df"/>
          <path id="Path_31670" data-name="Path 31670" d="M2527.94,955.732a29.489,29.489,0,0,0-22.047,5.486c-6.176,6.3-13.165,16.679-12.736,33.805.543,21.751-3.366,23.148.712,29.13,17.01,7.024,46.1,37.2,39.25,4.849-4.961-23.427,10.88-40.89-1.9-66.877C2530.17,960.01,2528.87,957.959,2527.94,955.732Z" transform="translate(-2366.48 -903.176)" fill="#90ecf7"/>
          <path id="Path_31671" data-name="Path 31671" d="M2493.15,1021.79c-.331,11.339-1.932,14.68-.708,18.234,6.935.708,19.619,3.484,22.789,7.921,3.625,5.075,7.251,5.8,5.559,2.054s-6.163-9.063.724-27.311,10.151-30.574,3.384-43.263Z" transform="translate(-2366.48 -921.755)" fill="#0dc9df"/>
          <path id="Path_31672" data-name="Path 31672" d="M2575.49,878.26a88.5,88.5,0,0,1-5.692-22.971l-11.963,3.535s6.8,15.225.271,20.663a62.431,62.431,0,0,0-4.664,4.259A29.483,29.483,0,0,1,2575.49,878.26Z" transform="translate(-2414.036 -825.703)" fill="#f09959"/>
          <path id="Path_31673" data-name="Path 31673" d="M2585.24,860.362c-.709-.63-1.6-1.418-2.527-2.24l-9.758,2.883-.021.053a39.845,39.845,0,0,1,3.048,11.917c2.908-1.765,6.092-4.641,9.732-9.665C2585.52,862.194,2585.36,861.2,2585.24,860.362Z" transform="translate(-2429.119 -827.895)" fill="#e38540"/>
          <path id="Path_31674" data-name="Path 31674" d="M2365.13,970.7c-12.322,4.309-10.955,17.29-22.295,36.433-5.869,9.907-11.319,9.76-11.319,9.76a262.549,262.549,0,0,1-30.411-1.925c-10.425-1.275-11.087,1.829-3.836,4.421,14.622,5.228,29.8,10.855,42.032,9.5s33.161-32.577,34.24-40.7C2375.04,976.938,2371.34,968.525,2365.13,970.7Z" transform="translate(-2212.09 -914.736)" fill="#f09959"/>
          <g id="Group_6424" data-name="Group 6424" transform="translate(103.382 82.775)">
            <path id="Path_31675" data-name="Path 31675" d="M2437.52,1172.5q-1.149,0-2.355-.03a117.279,117.279,0,0,1-22.37-2.753c-6.413-1.3-9.945-2.021-14.057-.057a3.167,3.167,0,0,1-2.731-5.715c6.026-2.879,11.069-1.855,18.049-.436a111.608,111.608,0,0,0,21.265,2.628c10.614.265,17.086-1.31,20.366-4.948,2.923-3.241,3.778-8.687,2.691-17.137-.372-2.892-.744-5.3-1.072-7.42-.926-5.987-1.539-9.943-.78-16.058.7-5.678,2.584-13.243,6.939-27.91a3.167,3.167,0,1,1,6.073,1.8c-8.116,27.331-7.7,29.993-5.972,41.2.334,2.16.712,4.608,1.095,7.581,1.34,10.421-.017,17.471-4.27,22.187C2456.01,1170.29,2448.9,1172.5,2437.52,1172.5Z" transform="translate(-2394.202 -1090.402)" fill="#2e5b9a"/>
          </g>
          <path id="Path_31676" data-name="Path 31676" d="M1971.32,1704.4c-12.99,6.353-19.981,9.994-24.145,9.647-.983-.082-1.8-.182-2.481-.289-4.632,2.737-12.027,5.972-3.707,6.59,9.789.724,14.5-3.263,20.664-5.076s13.776-2.9,10.876-7.613A9.924,9.924,0,0,1,1971.32,1704.4Z" transform="translate(-1937.222 -1482.722)" fill="#0dc9df"/>
          <path id="Path_31677" data-name="Path 31677" d="M2470.6,1654.43c-.317,10.285-1.731,20.476-8.021,22.4a10.565,10.565,0,0,1-4.532.4c-.99,1.223-2.2,1.237-3.817,3.037-2.447,2.719,13.866.816,15.77,0s2.719-16.857,4.758-20.936C2476.43,1655.99,2473.06,1655.21,2470.6,1654.43Z" transform="translate(-2337.071 -1444.057)" fill="#0dc9df"/>
          <g id="Group_6425" data-name="Group 6425" transform="translate(22.376 70.815)">
            <path id="Path_31678" data-name="Path 31678" d="M2097.24,1079.76h-41.266a3.167,3.167,0,0,1-2.873-1.832l-16.677-35.891a3.168,3.168,0,1,1,5.745-2.67l15.825,34.058h39.246a3.167,3.167,0,0,1,0,6.334Z" transform="translate(-2036.127 -1037.535)" fill="#26daef"/>
          </g>
          <path id="Path_31679" data-name="Path 31679" d="M2218.92,1153.95c-8.338-.121-16.608-5.09-20.717-4.366s-17.522,10.03-15.831,10.393,12.326-5.15,12.689-5.233,2.659,3.817,8.338,5.25.04-4.257,17.646,1.061C2232.5,1164.51,2218.92,1153.95,2218.92,1153.95Z" transform="translate(-2126.801 -1053.365)" fill="#f09959"/>
          <path id="Path_31680" data-name="Path 31680" d="M2548.93,913.192l1.227,9.872s-10.791.642-16.159,3.663-13.293,11.75-13.293,11.75l6.474-11.146.932-7.13Z" transform="translate(-2388.702 -870.507)" fill="#f2e5de"/>
          <path id="Path_31681" data-name="Path 31681" d="M2410.19,965.934c-8.015-1.5-11.722,5.68-16.918,17.4s-14.067,25.959-15.831,27.795-29.728,0-29.728,0-.846,8.1,0,9.063,5.68.846,5.68.846,1.933,1.544,3.746,2.766,17.16,3.518,24.29,3.156,13.656-.967,14.622-2.054,20.423-31.057,21.632-41.812S2414.28,966.7,2410.19,965.934Z" transform="translate(-2254.558 -911.165)" fill="#f2e5de"/>
          <path id="Path_31682" data-name="Path 31682" d="M2476.52,729.975c-15.157.724-12.78,23.528-12.78,23.528s3.936,1.216,12.184-.144c-.634-2.447-.362-8.7-.362-8.7a56.959,56.959,0,0,0,2.175,8.157c1.744.8,3.716.091,7.07-.72,1.722,7.245,6.588,10.307,9.92,11.354,3.681,1.157,7.579,2.538,11.928.362s1.958-24.41-.352-28.882c-3.467-6.712-9.23-12.719-19.2-9.547a74.148,74.148,0,0,0-10.583,4.592Z" transform="translate(-2344.524 -724.51)" fill="#303c60"/>
          <path id="Path_31683" data-name="Path 31683" d="M2637.22,862.8l6.2,9.052s-6.868,17.16,13.107,24.935c15.644,6.089,13.8,16.817,6.732,27.606s4.23,20.211,4.23,20.211,1.723-11.952,16.922-14.207c20.725-3.077,26.593-30.9,11.113-44.814-12.809-11.513-16.707-1.979-25.377-12.31s-25.04-3.353-25.04-3.353l-6-8.749Z" transform="translate(-2478.86 -830.25)" fill="#303c60"/>
          <g id="Group_6426" data-name="Group 6426" transform="translate(165.694 35.722)">
            <path id="Path_31684" data-name="Path 31684" d="M2727.74,930.049a.551.551,0,0,1-.483-.816c5.211-9.524.959-21.062-1.18-24.187-.226-.331-.442-.667-.669-1.022-2.1-3.28-4.717-7.362-18.671-9.875-3.361-.6-6.082-2.6-8.963-4.717-5.95-4.368-12.7-9.321-27.349-2.575a.551.551,0,0,1-.461-1c15.243-7.016,22.267-1.861,28.463,2.688,2.775,2.037,5.4,3.961,8.506,4.521,14.428,2.6,17.187,6.9,19.4,10.365.223.348.434.677.651,1,2.241,3.275,6.7,15.363,1.237,25.339A.551.551,0,0,1,2727.74,930.049Z" transform="translate(-2669.641 -882.413)" fill="#303c60"/>
          </g>
          <g id="Group_6427" data-name="Group 6427" transform="translate(138.856 20.261)">
            <path id="Path_31685" data-name="Path 31685" d="M2567.2,835.631a21.825,21.825,0,0,1-3.219-.259c-5.3-.795-12.417-3.808-12.975-20.732a.551.551,0,1,1,1.1-.036c.229,6.976,1.614,12.137,4.113,15.34a11.561,11.561,0,0,0,7.924,4.337c4.907.735,8.161-.171,9.667-2.693a.551.551,0,0,1,.946.565C2573.38,834.467,2570.84,835.631,2567.2,835.631Z" transform="translate(-2551.006 -814.071)" fill="#303c60"/>
          </g>
        </g>
        <path id="Path_31686" data-name="Path 31686" d="M1711.33,1361.08h4.072l15.842-121.1h-8.959Z" transform="translate(-1454.352 -1028.464)" fill="#2e5b9a"/>
        <path id="Path_31687" data-name="Path 31687" d="M2254.07,1361.08H2250l-15.843-121.1h8.959Z" transform="translate(-1858.905 -1028.464)" fill="#2e5b9a"/>
      </g>
    </g>
  </g>
</svg>
