<svg xmlns="http://www.w3.org/2000/svg" xmlns:xlink="http://www.w3.org/1999/xlink" width="82.665" height="82.667" viewBox="0 0 82.665 82.667">
  <defs>
    <linearGradient id="linear-gradient" y1="1" x2="0.758" y2="0.236" gradientUnits="objectBoundingBox">
      <stop offset="0" stop-color="#97a7f2" stop-opacity="0.91"/>
      <stop offset="1" stop-color="#556ee6"/>
    </linearGradient>
    <filter id="Path_621" x="11.439" y="15.056" width="70.051" height="67.037" filterUnits="userSpaceOnUse">
      <feOffset dx="5" dy="5" input="SourceAlpha"/>
      <feGaussianBlur stdDeviation="3" result="blur"/>
      <feFlood flood-opacity="0.302"/>
      <feComposite operator="in" in2="blur"/>
      <feComposite in="SourceGraphic"/>
    </filter>
  </defs>
  <g id="Favicon" transform="translate(-293.297 -1148.841)">
    <g id="Group_908" data-name="Group 908" transform="translate(293.297 1148.841)">
      <g id="Group_17" data-name="Group 17" transform="translate(0)">
        <g id="Group_18" data-name="Group 18">
          <path id="Path_941" data-name="Path 941" d="M1293.63,278.395h-55.991a26.674,26.674,0,0,1-26.674-26.675V195.728h55.992A26.674,26.674,0,0,1,1293.63,222.4Z" transform="translate(-1210.965 -195.728)" fill="url(#linear-gradient)"/>
          <g transform="matrix(1, 0, 0, 1, 0, 0)" filter="url(#Path_621)">
            <path id="Path_621-2" data-name="Path 621" d="M48.208,34.638,34.015,22.175c-.356-.366-.644-.32-.677-1.256a1.879,1.879,0,0,1,.62-1.321l2.355-2.8L50.431.1H44.092c-5.845-.029-9.321,4.6-9.61,5L28.562,12.1,26.42,14.635l-.02.024a2.629,2.629,0,0,1-1.916,1.2,4.126,4.126,0,0,1-2.7-1.247l-.026-.024L5.558,1.6a2.336,2.336,0,0,1-.4-.39,3.251,3.251,0,0,1,.868-.085H7.9L20.644,11.294a3.248,3.248,0,0,0,1.995,0A3.055,3.055,0,0,0,24.471,9.7h0a.565.565,0,0,0-.186-.607L12.781,0H6.03C5.279,0,4.25.086,4.011.831c-.251.769.61,1.483.862,1.667L21,15.426a5.151,5.151,0,0,0,3.546,1.564,3.187,3.187,0,0,0,.882-.18L.135,46.378a.566.566,0,0,0,.057.791.559.559,0,0,0,.791-.058l21.795-25.5c.3-.308.791-.662,1.148-.253,0,0,.424.243-.13,1.044l-.57.662h0L5.106,44.235a.567.567,0,0,0,.057.791.56.56,0,0,0,.791-.057L20.283,28.242l7.983-9.319c.3-.255.692-.459,1-.113,0,0,.4.229-.081.97L10.7,41.592a.566.566,0,0,0,.057.791.559.559,0,0,0,.791-.056l16-18.923c.277-.263.652-.494.94-.2,0,0,.353.291-.047.948l-.607.706h0L15.622,39.285a.566.566,0,0,0,.057.791.559.559,0,0,0,.791-.057L31.1,22.654c.515-.631,1.344-.1,1.344-.1l2,1.722L46.56,34.709c.016.013.035.017.051.029l.876.767a2.332,2.332,0,0,1,.384.4,3.236,3.236,0,0,1-.875.049l-1.51-.063-11.9-9.823a1.966,1.966,0,0,0-1.6,0,3.1,3.1,0,0,0-1.816,1.546.563.563,0,0,0,.141.649l10.447,9.026h6.448c.751.032,1.839.032,2.112-.7C49.61,35.835,48.453,34.836,48.208,34.638ZM41.648,3.429a1.6,1.6,0,1,1-1.6,1.6A1.6,1.6,0,0,1,41.648,3.429ZM36.518,4.5Z" transform="translate(17.09 19.06) rotate(2)" fill="#fff"/>
          </g>
        </g>
      </g>
    </g>
  </g>
</svg>
