<svg xmlns="http://www.w3.org/2000/svg" xmlns:xlink="http://www.w3.org/1999/xlink" width="344.513" height="82.667" viewBox="0 0 344.513 82.667">
  <defs>
    <linearGradient id="linear-gradient" y1="1" x2="0.758" y2="0.236" gradientUnits="objectBoundingBox">
      <stop offset="0" stop-color="#fff"/>
      <stop offset="1" stop-color="#fff"/>
    </linearGradient>
    <filter id="Path_621" x="11.439" y="15.06" width="70.051" height="67.037" filterUnits="userSpaceOnUse">
      <feOffset dx="5" dy="5" input="SourceAlpha"/>
      <feGaussianBlur stdDeviation="3" result="blur"/>
      <feFlood flood-opacity="0.302"/>
      <feComposite operator="in" in2="blur"/>
      <feComposite in="SourceGraphic"/>
    </filter>
  </defs>
  <g id="Group_19" data-name="Group 19" transform="translate(-1844 -1630)">
    <g id="Favicon" transform="translate(1550.703 481.159)">
      <g id="Group_908" data-name="Group 908" transform="translate(293.297 1148.841)">
        <g id="Group_17" data-name="Group 17">
          <g id="Group_18" data-name="Group 18">
            <path id="Path_941" data-name="Path 941" d="M1293.63,278.395h-55.991a26.674,26.674,0,0,1-26.674-26.675V195.728h55.992A26.674,26.674,0,0,1,1293.63,222.4Z" transform="translate(-1210.965 -195.728)" fill="url(#linear-gradient)"/>
            <g transform="matrix(1, 0, 0, 1, 0, 0)" filter="url(#Path_621)">
              <path id="Path_621-2" data-name="Path 621" d="M48.208,34.638,34.015,22.175c-.356-.366-.644-.32-.677-1.256a1.879,1.879,0,0,1,.62-1.321l2.355-2.8L50.431.1H44.092c-5.845-.029-9.321,4.6-9.61,5l-5.92,7L26.42,14.635l-.02.024a2.629,2.629,0,0,1-1.916,1.2,4.126,4.126,0,0,1-2.7-1.247l-.026-.024L5.558,1.6a2.336,2.336,0,0,1-.4-.39,3.251,3.251,0,0,1,.868-.085H7.9L20.644,11.294a3.248,3.248,0,0,0,2,0A3.055,3.055,0,0,0,24.471,9.7h0a.565.565,0,0,0-.186-.607L12.781,0H6.03C5.279,0,4.25.086,4.011.831c-.251.769.61,1.483.862,1.667L21,15.426a5.151,5.151,0,0,0,3.546,1.564,3.187,3.187,0,0,0,.882-.18L.135,46.378a.566.566,0,0,0,.057.791.559.559,0,0,0,.791-.058l21.795-25.5c.3-.308.791-.662,1.148-.253,0,0,.424.243-.13,1.044l-.57.662h0L5.106,44.235a.567.567,0,0,0,.057.791.56.56,0,0,0,.791-.057L20.283,28.242l7.983-9.319c.3-.255.692-.459,1-.113,0,0,.4.229-.081.97L10.7,41.592a.566.566,0,0,0,.057.791.559.559,0,0,0,.791-.056l16-18.923c.277-.263.652-.494.94-.2,0,0,.353.291-.047.948l-.607.706h0L15.622,39.285a.566.566,0,0,0,.057.791.559.559,0,0,0,.791-.057L31.1,22.654c.515-.631,1.344-.1,1.344-.1l2,1.722L46.56,34.709c.016.013.035.017.051.029l.876.767a2.332,2.332,0,0,1,.384.4,3.236,3.236,0,0,1-.875.049l-1.51-.063-11.9-9.823a1.966,1.966,0,0,0-1.6,0,3.1,3.1,0,0,0-1.816,1.546.563.563,0,0,0,.141.649l10.447,9.026h6.448c.751.032,1.839.032,2.112-.7C49.61,35.835,48.453,34.836,48.208,34.638ZM41.648,3.429a1.6,1.6,0,1,1-1.6,1.6,1.6,1.6,0,0,1,1.6-1.6ZM36.518,4.5Z" transform="translate(17.09 19.06) rotate(2)" fill="#556ee6"/>
            </g>
          </g>
        </g>
      </g>
    </g>
    <g id="InextureLogo" transform="translate(1539.703 604.089)">
      <g id="Group_907" data-name="Group 907" transform="translate(414.163 1038.92)">
        <g id="Group_1" data-name="Group 1" transform="translate(0.307 44.664)">
          <path id="Path_1" data-name="Path 1" d="M3978.33,6963.17h-1.671v-12.633h1.671Z" transform="translate(-3976.663 -6950.541)" fill="#fff"/>
          <path id="Path_2" data-name="Path 2" d="M4465.1,6956.79q0,6.389-6.442,6.388h-4v-12.633h4Q4465.1,6950.54,4465.1,6956.79Zm-1.727,0a8.2,8.2,0,0,0-.22-1.981,3.466,3.466,0,0,0-.755-1.5,3.415,3.415,0,0,0-1.453-.939,6.976,6.976,0,0,0-2.306-.325h-2.314v9.626h2.314a6.82,6.82,0,0,0,2.3-.332,3.4,3.4,0,0,0,1.458-.961,3.6,3.6,0,0,0,.759-1.536,8.745,8.745,0,0,0,.214-2.056Z" transform="translate(-4443.345 -6950.541)" fill="#fff"/>
          <path id="Path_3" data-name="Path 3" d="M5282.8,6963.17h-9.43v-12.633h9.15v1.5h-7.479v3.837h6.984v1.5h-6.984v4.285h7.759Z" transform="translate(-5242.707 -6950.541)" fill="#fff"/>
          <path id="Path_4" data-name="Path 4" d="M6003.23,6963.17h-1.894l-1.468-3.837h-5.292l-1.393,3.837h-1.765l4.847-12.633h1.813Zm-3.844-5.182-2.233-5.846-2.12,5.846Z" transform="translate(-5943.771 -6950.541)" fill="#fff"/>
          <path id="Path_5" data-name="Path 5" d="M6554.84,7399.17v-2.07h2.168v2.074Z" transform="translate(-6493.867 -7386.537)" fill="#fff"/>
          <path id="Path_6" data-name="Path 6" d="M7313.73,6956.79q0,6.389-6.442,6.388h-4v-12.633h4Q7313.73,6950.54,7313.73,6956.79Zm-1.726,0a8.211,8.211,0,0,0-.22-1.982,3.518,3.518,0,0,0-.755-1.5,3.441,3.441,0,0,0-1.455-.939,6.975,6.975,0,0,0-2.306-.326h-2.315v9.626h2.315a6.844,6.844,0,0,0,2.3-.333,3.4,3.4,0,0,0,1.458-.961,3.6,3.6,0,0,0,.762-1.536,8.744,8.744,0,0,0,.225-2.056Z" transform="translate(-7224.615 -6950.541)" fill="#fff"/>
          <path id="Path_7" data-name="Path 7" d="M8131.44,6963.17h-9.431v-12.633h9.151v1.5h-7.479v3.837h6.984v1.5h-6.984v4.285h7.759Z" transform="translate(-8023.979 -6950.541)" fill="#fff"/>
          <path id="Path_8" data-name="Path 8" d="M8907.9,6963.17h-7.826v-12.633h1.675v11.13h6.151Z" transform="translate(-8783.637 -6950.541)" fill="#fff"/>
          <path id="Path_9" data-name="Path 9" d="M9606.36,6963.17h-1.676v-12.633h1.676Z" transform="translate(-9471.589 -6950.541)" fill="#fff"/>
          <path id="Path_10" data-name="Path 10" d="M10038.6,6950.54l-4.925,12.633h-1.727l-4.92-12.633h1.8l3.978,10.831,4.006-10.831Z" transform="translate(-9883.914 -6950.541)" fill="#fff"/>
          <path id="Path_11" data-name="Path 11" d="M10870.2,6963.17h-9.431v-12.633h9.151v1.5h-7.482v3.837h6.985v1.5h-6.985v4.285h7.762Z" transform="translate(-10697.928 -6950.541)" fill="#fff"/>
          <path id="Path_12" data-name="Path 12" d="M11649.3,6963.17h-1.823l-1.182-3.388a3.3,3.3,0,0,0-.427-.809,2.81,2.81,0,0,0-.624-.637,2.922,2.922,0,0,0-.8-.416,2.823,2.823,0,0,0-.92-.148h-3.1v5.4h-1.673v-12.633h5.595c.342,0,.668.007.975.023a6.008,6.008,0,0,1,.877.107,3.661,3.661,0,0,1,.783.248,2.8,2.8,0,0,1,.7.441,3.332,3.332,0,0,1,.873,1.229,3.863,3.863,0,0,1,.3,1.479,3.672,3.672,0,0,1-.2,1.219,3.135,3.135,0,0,1-.561.986,3.225,3.225,0,0,1-.9.725,4.037,4.037,0,0,1-1.18.424v.027a3.42,3.42,0,0,1,2.021,2.289Zm-8.87-6.908h3.754a6.733,6.733,0,0,0,1.335-.117,2.467,2.467,0,0,0,.919-.374,1.52,1.52,0,0,0,.528-.68,2.773,2.773,0,0,0,.167-1.028,1.907,1.907,0,0,0-.671-1.608,3.314,3.314,0,0,0-2.036-.52h-4Z" transform="translate(-11457.584 -6950.541)" fill="#fff"/>
          <path id="Path_13" data-name="Path 13" d="M12466.9,6963.17h-9.431v-12.633h9.15v1.5h-7.478v3.837h6.983v1.5h-6.983v4.285h7.758Z" transform="translate(-12256.945 -6950.541)" fill="#fff"/>
          <path id="Path_14" data-name="Path 14" d="M13246,6956.79q0,6.389-6.447,6.388h-4v-12.633h4Q13246,6950.54,13246,6956.79Zm-1.728,0a8.209,8.209,0,0,0-.221-1.982,3.448,3.448,0,0,0-.759-1.5,3.406,3.406,0,0,0-1.45-.938,6.985,6.985,0,0,0-2.3-.325h-2.319v9.626h2.319a6.819,6.819,0,0,0,2.3-.333,3.41,3.41,0,0,0,1.455-.96,3.593,3.593,0,0,0,.763-1.536,8.735,8.735,0,0,0,.243-2.057Z" transform="translate(-13016.607 -6950.541)" fill="#fff"/>
          <path id="Path_15" data-name="Path 15" d="M13779.6,7399.17v-2.07h2.165v2.074Z" transform="translate(-13547.817 -7386.537)" fill="#fff"/>
        </g>
        <g id="Group_2" data-name="Group 2">
          <path id="Path_16" data-name="Path 16" d="M3969.95,5096.97h-6.266v-35.062h6.266Z" transform="translate(-3963.683 -5061.909)" fill="#fff"/>
          <path id="Path_17" data-name="Path 17" d="M4597.8,5096.97h-6.315l-14.612-25.266.169,12.464v12.8h-5.9v-35.062h6.34l14.612,25.266-.171-12.49v-12.775h5.879Z" transform="translate(-4556.776 -5061.909)" fill="#fff"/>
          <path id="Path_18" data-name="Path 18" d="M6052.43,5096.97h-24.967v-35.062h24.242v5.727H6033.73v8.578h16.791v5.728H6033.73v9.328h18.7Z" transform="translate(-5978.66 -5061.909)" fill="#fff"/>
          <path id="Path_19" data-name="Path 19" d="M7252.92,5096.97h-7.185l-8.323-14.072-1.959,3.5-6.29,10.573h-7.234l11.685-18.451-10.741-16.61h7.232l5.542,9.2c.305.516.6,1.045.9,1.579s.581,1.055.871,1.555q.435-.75.883-1.555c.3-.533.6-1.062.907-1.579l5.564-9.2h7.21l-10.766,16.61Z" transform="translate(-7144.875 -5061.909)" fill="#fff"/>
          <path id="Path_20" data-name="Path 20" d="M8645.05,5067.71h-9.97v29.256h-6.266V5067.71h-9.871v-5.81h26.106Z" transform="translate(-8508.852 -5061.909)" fill="#fff"/>
          <path id="Path_21" data-name="Path 21" d="M9958.76,5097.57a20.418,20.418,0,0,1-5.044-.545,11.274,11.274,0,0,1-3.6-1.567,8.809,8.809,0,0,1-2.408-2.424,11.648,11.648,0,0,1-1.428-3.108,19.031,19.031,0,0,1-.69-3.667c-.123-1.306-.181-2.658-.181-4.056v-20.291h6.267v20.212a23,23,0,0,0,.372,4.483,7.617,7.617,0,0,0,1.21,2.978,4.673,4.673,0,0,0,2.193,1.646,9.5,9.5,0,0,0,3.313.5,9.679,9.679,0,0,0,3.193-.465,4.644,4.644,0,0,0,2.19-1.582,7.375,7.375,0,0,0,1.255-2.954,22.087,22.087,0,0,0,.4-4.613v-20.212h6.266V5082.2q0,1.84-.132,3.692a18.666,18.666,0,0,1-.6,3.563,12.832,12.832,0,0,1-1.361,3.186,8.75,8.75,0,0,1-2.345,2.566,11.412,11.412,0,0,1-3.641,1.722,18.809,18.809,0,0,1-5.232.642Z" transform="translate(-9803.947 -5061.909)" fill="#fff"/>
          <path id="Path_22" data-name="Path 22" d="M11429.8,5096.97h-6.724l-2.884-8.733a10.727,10.727,0,0,0-.97-2.1,6.7,6.7,0,0,0-1.364-1.632,5.884,5.884,0,0,0-1.729-1.039,5.779,5.779,0,0,0-2.079-.363h-6.1v13.865h-6.263v-35.062h14.539a31.5,31.5,0,0,1,3.4.169,13.365,13.365,0,0,1,2.864.609,8.423,8.423,0,0,1,2.347,1.217,7.282,7.282,0,0,1,1.816,2.021,10.9,10.9,0,0,1,1.571,5.96,8.618,8.618,0,0,1-7.017,9.121v.076a6.7,6.7,0,0,1,3.138,2.319,16.647,16.647,0,0,1,2.209,4.313Zm-21.85-19.357h7.626a11.963,11.963,0,0,0,2.852-.3,4.862,4.862,0,0,0,1.95-.934,3.739,3.739,0,0,0,1.121-1.647,7.214,7.214,0,0,0,.366-2.436,4.845,4.845,0,0,0-1.437-3.859,6.5,6.5,0,0,0-4.346-1.246h-8.131Z" transform="translate(-11225.83 -5061.909)" fill="#fff"/>
          <path id="Path_23" data-name="Path 23" d="M12856.4,5096.97h-24.967v-35.062h24.24v5.727H12837.7v8.578h16.789v5.728H12837.7v9.328h18.7Z" transform="translate(-12621.754 -5061.909)" fill="#fff"/>
        </g>
      </g>
    </g>
  </g>
</svg>
