<svg xmlns="http://www.w3.org/2000/svg" xmlns:xlink="http://www.w3.org/1999/xlink" width="563.958" height="368.243" viewBox="0 0 563.958 368.243">
  <defs>
    <linearGradient id="linear-gradient" y1="0.5" x2="1" y2="0.5" gradientUnits="objectBoundingBox">
      <stop offset="0" stop-color="#8ad3ff"/>
      <stop offset="1" stop-color="#5f9cff"/>
    </linearGradient>
    <linearGradient id="linear-gradient-2" x1="14.961" y1="2.149" x2="15.972" y2="2.149" gradientUnits="objectBoundingBox">
      <stop offset="0.018" stop-color="#45d8c3"/>
      <stop offset="1" stop-color="#34c8be"/>
    </linearGradient>
    <linearGradient id="linear-gradient-3" x1="0.5" y1="0.045" x2="0.5" y2="0.54" gradientUnits="objectBoundingBox">
      <stop offset="0.039" stop-color="#ffd744"/>
      <stop offset="1" stop-color="#f5c144"/>
    </linearGradient>
    <linearGradient id="linear-gradient-4" x1="0" y1="0.5" x2="1" y2="0.5" xlink:href="#linear-gradient-3"/>
  </defs>
  <g id="Nodatafound" transform="translate(-34 -125.014)">
    <ellipse id="Ellipse_20" data-name="Ellipse 20" cx="281.979" cy="15.733" rx="281.979" ry="15.733" transform="translate(34 461.791)" fill="#b8deff"/>
    <g id="Group_1286" data-name="Group 1286" transform="translate(449.613 276.529)">
      <path id="Union_1" data-name="Union 1" d="M44.045,111.372c-.394-3.613-5.627-46.395-31.593-51.253l.182-.97C24.124,61.3,33.376,71.06,39.389,87.375a108.468,108.468,0,0,1,5.117,20.065q.562-4.5,1.328-9.3c3.995-24.762,13.515-60.026,36.178-87.4l.759.627c-22.522,27.2-31.987,62.286-35.963,86.927-.736,4.565-1.315,8.942-1.769,13.076.011.1.015.152.015.159H45.02a235.826,235.826,0,0,0-1.474,34.2l-.985.053a236.9,236.9,0,0,1,1.484-34.41Zm-21.9-15.725s7.786-3.558,16.114,2.962a17.391,17.391,0,0,1-7,1.588,10.834,10.834,0,0,1-9.114-4.55Zm1.518-5.481s3.962-4.575,11.232-2.829c0,0-3.1,3.857-7.434,3.857a7.753,7.753,0,0,1-3.8-1.028Zm30.4-7.245s6.086-6.02,16.149-2.761c0,0-4.381,4.657-10.1,4.657a10.812,10.812,0,0,1-6.045-1.895ZM22.991,84.3a8.7,8.7,0,0,1-1.413-.119s2.194-5.64,9.627-6.44c0,0-2.279,6.558-8.212,6.558ZM43.519,69.545s.021,5.655-4.885,6.523a8.051,8.051,0,0,1,4.885-6.523Zm-24.2,4.7a5.739,5.739,0,0,1-1.793-.3,8.055,8.055,0,0,1,7.387-3.45s-1.985,3.747-5.592,3.747Zm43.017-.572a8.886,8.886,0,0,1-5.54-1.851s5.044-2.833,11.83.129a13.484,13.484,0,0,1-6.287,1.721ZM10.464,71.646a8.688,8.688,0,0,1-1.413-.119s2.192-5.641,9.627-6.44c0,0-2.28,6.558-8.212,6.558ZM38.592,59.283s1.423,5.607-3.2,11.388C35.388,70.671,33.265,63.344,38.592,59.283ZM40.485,61s5.785-.079,10.332,5.766h-.241C49.262,66.774,42.91,66.485,40.485,61ZM0,62.991s3.47-4.959,10.882-3.971c0,0-3,4.642-7.745,4.642A7.953,7.953,0,0,1,0,62.991ZM29.717,51.518s3.45,7.257-2.333,11.345C27.384,62.862,24.984,57.306,29.717,51.518ZM62.129,60.2s4.741-3.762,11.561-.7a11.489,11.489,0,0,1-6.625,2.541A7.563,7.563,0,0,1,62.129,60.2ZM17.541,50.22s3.821,4.171.773,8.115a8.055,8.055,0,0,1-.773-8.115ZM41.26,46.478s8.556.288,13.1,9.839c0,0-11.365.026-13.1-9.839ZM64.872,48.2s7.349-4.387,16.341,1.183a16.934,16.934,0,0,1-8.219,2.425A10.693,10.693,0,0,1,64.872,48.2ZM47.934,31.792s8.361,1.84,11.092,12.057C59.026,43.849,47.845,41.808,47.934,31.792Zm21.631,4.373s7.35-4.387,16.341,1.183a16.928,16.928,0,0,1-8.219,2.425,10.7,10.7,0,0,1-8.122-3.608ZM53.642,25.989s5.784-.08,10.331,5.765h-.238C62.421,31.758,56.068,31.469,53.642,25.989Zm27.521,2.464a8.884,8.884,0,0,1-5.54-1.85s5.043-2.832,11.83.129a13.484,13.484,0,0,1-6.287,1.721Zm-24-14.554s8.359,1.839,11.092,12.057c0,0-11.181-2.041-11.091-12.056ZM80.9,17.887a8.056,8.056,0,0,1,7.61,2.92,8.576,8.576,0,0,1-2.15.264A5.7,5.7,0,0,1,80.9,17.887Zm-16.615-7.56s5.54,1.658,8.128,8.6C72.413,18.924,65.036,16.987,64.285,10.327ZM72.12,1.779s4.206,3.971,3.4,11.333C75.519,13.112,69.8,8.065,72.12,1.779ZM86.563,11.837a8.052,8.052,0,0,1,7.653-2.8s-2.112,3.271-5.45,3.271A5.6,5.6,0,0,1,86.563,11.837ZM78.792,0a8.049,8.049,0,0,1,2.289,7.823S76.543,4.447,78.792,0Zm6.8,7.151a8.688,8.688,0,0,1-1.509-.136S86.342,1.4,93.786.692c0,0-2.335,6.458-8.2,6.458Z" transform="translate(9.36)" fill="#1e92e0"/>
      <g id="Group_1284" data-name="Group 1284" transform="translate(45.293 65.365)">
        <path id="Path_365" data-name="Path 365" d="M429.127,378.463c-28.315,1.4-34.561,18.74-40.593,13.556a4.639,4.639,0,0,1-.777-.83c-3.642-5.021,8.187-13.175,8.133-40.255-.021-17.134-.96-48.823,11.368-51.815,10.551-2.554,6.873,23.289,21.921,20.672,10.94-1.9-3.548-21.844,6.18-25.714,10.775-4.287,10.495,16.5,19.6,10.8,9.085-5.706,12-23.956,20.218-18.959.129.077.249.164.359.242,7.585,5.124-.332,17.014-5.9,24.552-5.659,7.658-7.878,9.6-5.386,11.15s16.668-.544,15.786,8.5-24.938,7.445-32.45,17.027,15.788,4.858,10.827,15.783C455.545,369.45,443.191,377.779,429.127,378.463Z" transform="translate(-387.06 -285.06)" fill="#7bd9ff"/>
        <path id="Path_366" data-name="Path 366" d="M445.718,357.579l-29.178-2.015,20.4-24.633v.036l23.611-3.936-21.885,1.811,23.822-28.768-14.765,16.159-6.855-13.175,5.466,14.7-22.525,24.653-15.791-27.3L422.5,343.845,394.238,375l2.984,2.6,17.83-20.232Z" transform="translate(-384.868 -280.474)" fill="url(#linear-gradient)"/>
      </g>
      <g id="Group_1285" data-name="Group 1285" transform="translate(0 56.23)">
        <path id="Path_367" data-name="Path 367" d="M353.954,367.479c.064.266.146.527.218.8,2.875,9.7,9.4,21.011,21.158,32.64a51.61,51.61,0,0,0,24.451,13.733c.2.05.406.1.611.141q1.1.255,2.2.458c15.955,2.991,32.33-2.642,43.649-14.278,7.779-8,15.834-17.894,13.76-22.857a2.873,2.873,0,0,0-.291-.572.4.4,0,0,0-.043-.071c-5.192-7.765-16.282-5.95-20.373-7.955a3.9,3.9,0,0,1-.542-.322,2.733,2.733,0,0,1-.4-.339c-2.958-3.08,10.483-9.73,10.286-19.9a12.144,12.144,0,0,0-.168-1.808c-.035-.242-.082-.469-.138-.7-1.778-7.279-10.621-6.187-11.536-9.514a1.979,1.979,0,0,1-.087-.521v-.629c.136-3.638,2-11.109,3.654-19.493.052-.245.106-.5.149-.747,1.483-7.607,2.743-15.89,2.355-22.724-.016-.219-.033-.431-.05-.641-.474-6.452-2.495-11.515-7.313-13.338a4.757,4.757,0,0,0-.45-.163,1.072,1.072,0,0,0-.153-.046c-4.978-1.559-9.989.181-14.664,3.807-.255.2-.512.4-.762.614v.009c-9.083,7.505-16.722,21.993-19.947,32.869-.1.354-.2.709-.291,1.048a42.084,42.084,0,0,0-1.022,4.576,97.626,97.626,0,0,1-6.5,22.135c-.112.282-.242.561-.362.842-2.644,5.952-5.458,10.249-7.516,11.044a2.042,2.042,0,0,1-.415.114.671.671,0,0,1-.192.005c-3.9,0-16.309-16.143-24.033-14.31a4.247,4.247,0,0,0-.6.18,5.648,5.648,0,0,0-2.55,1.993C352.409,348.416,351.016,356.958,353.954,367.479Z" transform="translate(-352.366 -278.062)" fill="#0fb0ee"/>
        <path id="Path_368" data-name="Path 368" d="M353.582,367.345c.064.266.146.527.218.8a71.34,71.34,0,0,0,13.711,4.732,97.752,97.752,0,0,0,10.48,2l.017-.142a89.187,89.187,0,0,0,24.383,16.957c-1.807,12.12-2.76,20.694-2.983,22.829-.031.3-.048.479-.057.512l.621.065c0-.034.02-.184.047-.436.137-1.294.585-5.389,1.385-11.449,3.566-.977,42.6-11.91,58.219-25.228a2.875,2.875,0,0,0-.291-.572c-6.859,5.889-18.373,11.323-29.368,15.628.74-2.869,4.685-17.765,8.952-23.654l-.542-.322c-4.681,6.527-8.809,22.973-9.133,24.255-13.015,5.056-25.134,8.5-27.751,9.224,1.366-10.29,3.7-25.926,7.181-43.2.5.158,1.018.309,1.522.433,17,4.18,33.96-9.344,37.9-12.753-.035-.242-.082-.469-.138-.7-2.057,1.813-9.389,7.974-18.049,11.2.624-2.786,3.45-14.983,6.513-20.711a1.98,1.98,0,0,1-.087-.521v-.629c-3.315,6.087-6.741,20.378-7.129,22.128-6.125,2.166-13.23,3.159-20.406.939,2.634-13.028,5.919-26.95,9.931-40.183,2.393.08,14.779.35,21.258-2.376.052-.245.106-.5.149-.747-6.019,2.752-18.462,2.57-21.219,2.5,2.341-7.663,4.924-15.086,7.769-21.962l.057.084A25.451,25.451,0,0,1,442.49,292.7c-.016-.219-.033-.431-.05-.641a26.718,26.718,0,0,0-15.427,3.085,133.555,133.555,0,0,1,8.113-16.423,4.753,4.753,0,0,0-.45-.163,1.069,1.069,0,0,0-.153-.046,152.534,152.534,0,0,0-11.116,24.078c-.828-2.168-5.166-13.972-3.548-20.271-.255.2-.512.4-.762.614v.009c-1.3,7.273,3.625,19.609,3.876,20.238l.268-.106a333.141,333.141,0,0,0-10.85,36.528c-1.663-2.245-9.688-13.387-13.241-23.792-.1.354-.2.709-.291,1.048C403,328.3,412.1,340.257,412.2,340.388l.01-.005c-2.027,8.421-3.781,16.78-5.292,24.682-2.241-1.991-11.954-11.04-15.579-21.5-.112.282-.242.561-.362.842,4.025,10.831,14.232,20,15.8,21.37-1.753,9.273-3.177,17.9-4.281,25.267A86.564,86.564,0,0,1,384.22,379.45c.145-1.326,1.381-13.053-.762-24a2.042,2.042,0,0,1-.415.114.674.674,0,0,1-.192.005c1.977,10.12,1.044,20.923.789,23.4-9.714-8.093-20.327-20.415-24.822-37.712a4.254,4.254,0,0,0-.6.18,71.668,71.668,0,0,0,19.222,32.734C374.631,373.778,362.827,371.946,353.582,367.345Z" transform="translate(-351.994 -277.928)" fill="url(#linear-gradient-2)"/>
      </g>
    </g>
    <g id="Group_1291" data-name="Group 1291" transform="translate(125.8 201.596)">
      <g id="Group_1287" data-name="Group 1287" transform="translate(93.307 4.37)">
        <path id="Path_369" data-name="Path 369" d="M459.51,188.3l-.063,13.949-.21,235.873a5.855,5.855,0,0,1-5.878,5.848L175.8,442.831V210.97a9.814,9.814,0,0,1,9.854-9.813l95.6.393,108.922.45,4.128-7.654,5.288-9.788a6.858,6.858,0,0,1,6.124-3.619l46.686.17a7.152,7.152,0,0,1,7.113,7.191Z" transform="translate(-175.795 -180.937)" fill="#556ee6"/>
      </g>
      <rect id="Rectangle_414" data-name="Rectangle 414" width="146.032" height="153.293" rx="5.571" transform="translate(142.961 -8)" fill="url(#linear-gradient-3)"/>
      <g id="Group_1290" data-name="Group 1290" transform="translate(181.687 13.57)">
        <g id="Group_1289" data-name="Group 1289">
          <path id="Union_2" data-name="Union 2" d="M53.786,39.743c-4.023-4.1-11.493-6.652-19.5-6.652s-15.474,2.548-19.5,6.652a1.979,1.979,0,0,1-2.826-2.772c4.812-4.908,13.158-7.838,22.323-7.838s17.509,2.93,22.32,7.838a1.979,1.979,0,1,1-2.824,2.772Zm4.9-34.8a3.413,3.413,0,1,1,0,.005ZM0,4.948A4.948,4.948,0,1,1,4.948,9.9,4.948,4.948,0,0,1,0,4.948Z" fill="#fff" stroke="#fff" stroke-width="3"/>
        </g>
      </g>
      <path id="Path_373" data-name="Path 373" d="M471.8,430.8,172.993,432a9.3,9.3,0,0,1-8.844-6.325L116.01,282.052l-11.2-33.386a9.266,9.266,0,0,1,8.752-12.232l7.206-.031,291.616-1.191a9.278,9.278,0,0,1,8.83,6.341l56.076,167.24,1.439,4.268,1.839,5.505A9.286,9.286,0,0,1,471.8,430.8Z" transform="translate(-104.32 -159.987)" fill="#7f93f5"/>
      <path id="Path_374" data-name="Path 374" d="M387.127,447.01V199.849" transform="translate(-17.935 -170.789)" fill="none"/>
    </g>
    <g id="Group_1293" data-name="Group 1293" transform="translate(227.284 292.788)">
      <circle id="Ellipse_21" data-name="Ellipse 21" cx="60.244" cy="60.244" r="60.244" transform="matrix(0.611, -0.792, 0.792, 0.611, 0, 95.369)" fill="#fff"/>
      <g id="Group_1292" data-name="Group 1292" transform="translate(62.338 62.338)">
        <line id="Line_3" data-name="Line 3" x1="46.41" y2="46.41" fill="none" stroke="#2b74d3" stroke-linecap="round" stroke-miterlimit="10" stroke-width="8"/>
        <line id="Line_4" data-name="Line 4" x1="46.41" y1="46.41" fill="none" stroke="#2b74d3" stroke-linecap="round" stroke-miterlimit="10" stroke-width="8"/>
      </g>
    </g>
    <g id="Group_1316" data-name="Group 1316" transform="translate(53.944 161.054)">
      <g id="Group_1313" data-name="Group 1313">
        <path id="Path_375" data-name="Path 375" d="M84.189,242.662C78,242.9,73.219,248.7,73.746,255.213a75.884,75.884,0,0,0,4.824,20.36c7.787,20.844,11.4,47.174,19.984,49.028s14.988-12.523,11.23-33.989c-3.4-19.4-4.852-44.166-10.888-46.746C95.839,242.559,89.6,242.45,84.189,242.662Z" transform="translate(-41.815 -117.196)" fill="#dd8678"/>
        <g id="Group_1294" data-name="Group 1294" transform="translate(51.25 201.313)">
          <path id="Path_376" data-name="Path 376" d="M99.64,301.7c-17.295-10.737-10.685,71.471-4.788,93.395s9.582,3.274,10.444-32.437S106.444,305.93,99.64,301.7Z" transform="translate(-88.536 -300.742)" fill="#dd8678"/>
          <path id="Path_377" data-name="Path 377" d="M91.516,367.4l.937,14.038,10.913.08.7-13.16Z" transform="translate(-87.626 -280.382)" fill="#ffb3b6"/>
          <path id="Path_378" data-name="Path 378" d="M103.73,376.259s2.4,4.422,10.338,10.1S124,390.7,124.24,392.89s-32.223,1.252-32.223,1.252l-.047-18.1S103.711,375.786,103.73,376.259Z" transform="translate(-87.487 -277.763)" fill="#43464d"/>
        </g>
        <path id="Path_379" data-name="Path 379" d="M67.231,241.877a11.666,11.666,0,0,0-13.224,10.852,76.3,76.3,0,0,0,2.074,21.78c5.2,22.848,5.044,50.513,14.043,54.06s18.134-9.95,17.382-32.661c-.681-20.527,1.564-46.174-4.563-49.976C79.84,244.007,73.113,242.7,67.231,241.877Z" transform="translate(-47.869 -117.444)" fill="#dd8678"/>
        <path id="Path_380" data-name="Path 380" d="M95.242,234.517" transform="translate(-35.237 -119.657)" fill="none" stroke="#fff" stroke-miterlimit="10" stroke-width="0.132"/>
        <g id="Group_1295" data-name="Group 1295" transform="translate(16.097 198.734)">
          <path id="Path_381" data-name="Path 381" d="M75.313,299.983c-17.185-12.112-15.1,69.685-10.337,92.644s9.461,7.312,12.5-29.455S82.074,304.747,75.313,299.983Z" transform="translate(-61.608 -298.766)" fill="#dd8678"/>
          <path id="Path_382" data-name="Path 382" d="M62.454,368.824l.28,8.973,11.844.731.048-9.188Z" transform="translate(-61.35 -277.367)" fill="#ffb3b6"/>
          <path id="Path_383" data-name="Path 383" d="M75.006,375.943s1.846,4.573,9.681,10.538,9.89,4.676,10.069,6.9-32.558.292-32.558.292l.5-18.269S75,375.466,75.006,375.943Z" transform="translate(-61.428 -275.357)" fill="#43464d"/>
        </g>
        <path id="Path_384" data-name="Path 384" d="M74.657,249.835s-5.946,13.5,14.021,77.223c0,0-1.061,22.516,3.4,80.847h19.967s2.317-68.546,3.257-82.545c.956-14.232-10.692-78.382-10.692-78.382Z" transform="translate(-41.778 -115.851)" fill="#556ee6"/>
        <path id="Path_385" data-name="Path 385" d="M54.877,249.7s-8.92,21.287,6.8,76.162c0,0-1.275,41.421.424,81.908H82.067s6.5-67.909,7.435-81.908c.956-14.232,4.9-78.453,4.9-78.453Z" transform="translate(-48.337 -115.719)" fill="#556ee6"/>
        <g id="Group_1298" data-name="Group 1298" transform="translate(44.36 7.962)">
          <path id="Path_386" data-name="Path 386" d="M84.635,196.6a6.257,6.257,0,0,0,6.5,1.057c9.835-3.779,49.523-18.1,47.15-25.5-2.79-8.694-37.7,6.743-45.387,11.662C86.485,187.927,80.471,192.712,84.635,196.6Z" transform="translate(-83.258 -147.461)" fill="#ffb3b6"/>
          <g id="Group_1297" data-name="Group 1297" transform="translate(2.48 0.679)">
            <g id="Group_1296" data-name="Group 1296">
              <path id="Path_387" data-name="Path 387" d="M138.361,171.879a6.577,6.577,0,0,0-4.3-4.779c-9.951-3.724-45.529-16.724-48.714-13.414-3.709,3.852,46.986,25.074,49.333,23.475C136.444,175.961,138.927,174.931,138.361,171.879Z" transform="translate(-85.157 -153.152)" fill="#ffb3b6"/>
            </g>
          </g>
          <path id="Path_388" data-name="Path 388" d="M105.434,178.709s13.715-3.63,13.715-4.134c0-1.642-25.667-12.468-25.667-12.468l3.992-7.829s26.011,8.851,31.155,10.868,10.59,4.134,10.388,12.4-27.129,19.464-27.129,19.464Z" transform="translate(-80.135 -152.129)" fill="#ffb3b6"/>
          <path id="Path_389" data-name="Path 389" d="M93.967,152.632l4.567,2.148-3.992,7.828-4.525-2.777" transform="translate(-81.193 -152.632)" fill="#ffb3b6"/>
        </g>
        <path id="Path_390" data-name="Path 390" d="M118.074,192.557c-2.04.913-4.113,1.809-6.123,2.645-3.108,1.3-6.063,2.49-8.583,3.495-4.561,1.794-7.685,3.016-7.685,3.248l-4.593-9.092v-.016L84.116,179s1.082-.325,2.815-.836c2.614-.757,6.68-1.948,10.685-3.108,3.278-.943,6.5-1.855,8.83-2.505,1.159-.309,2.1-.556,2.706-.711Z" transform="translate(-38.636 -138.804)" fill="#82d2f2"/>
        <g id="Group_1299" data-name="Group 1299" transform="translate(48.295 36.248)" opacity="0.5">
          <path id="Path_391" data-name="Path 391" d="M102.709,197.943c-4.561,1.794-7.685,3.016-7.685,3.248L90.431,192.1v-.016a95.223,95.223,0,0,0-4.159-14.676c2.614-.757,6.68-1.948,10.685-3.108,1.1,2.97,2.026,5.97,2.815,8.923a120.11,120.11,0,0,1,2.937,14.72Z" transform="translate(-86.272 -174.299)" fill="#556ee6"/>
        </g>
        <g id="Group_1300" data-name="Group 1300" transform="translate(67.81 33.031)" opacity="0.5">
          <path id="Path_392" data-name="Path 392" d="M112.849,192.557c-2.04.913-4.113,1.809-6.123,2.645a103.517,103.517,0,0,0-5.5-22.655c1.159-.309,2.1-.556,2.706-.711Z" transform="translate(-101.221 -171.835)" fill="#556ee6"/>
        </g>
        <g id="Group_1301" data-name="Group 1301" transform="translate(39.099 1.519)">
          <path id="Path_393" data-name="Path 393" d="M93.862,160.57l-.55.768v.014H93.3l-3.749.341a5.893,5.893,0,0,1-2.811-.444l-3.407-2.564s-.2-1.3,2.048-.379a4.7,4.7,0,0,0,2.389-.108L85.685,157l-4.875-3.316a3.459,3.459,0,0,1-1.191-4.407A4.345,4.345,0,0,1,83.9,147.79l3.956.427c2.006.578,3.668.653,5.292,1.967l4.115,3.956Z" transform="translate(-79.228 -147.696)" fill="#ffb3b6"/>
        </g>
        <path id="Path_394" data-name="Path 394" d="M114.549,277.04c-2.458,5.458-63.061,7.717-63.046,6.418.016-1.222.063-2.459.14-3.681.2-3.68.619-7.392,1.082-11.087.371-2.984.757-5.969,1.082-8.937.047-.449.093-.913.14-1.362q.556-5.567.711-11.164c.138-3.634.154-7.269.093-10.918-.047-3.788-.185-7.577-.386-11.367-.171-3.773-.418-7.546-.666-11.32-.077-1.067-.138-2.117-.217-3.185l-.093-1.345c-.17-2.459-.355-4.685-.526-6.495-.014-.155-.03-.309-.046-.449-.14-1.407-.278-2.505-.4-3.232-.108-.479-.2-.958-.294-1.437-.355-1.995-.68-3.8-.958-5.428a36.68,36.68,0,0,1-.666-5.69c.031-2.1,1.407-3.788,3.433-5.1,4.778-3.108,13.267-4.238,16.825-4.36,1.423-.031,2.335,0,2.381.014.077.031,18.541,1.114,18.541,1.114,0-.2,1.3-.495,1.3-.495,2.428-.54,5.2,1.222,7.267,3.4a16.741,16.741,0,0,1,1.979,2.521,29.374,29.374,0,0,1,2.97,7.608,42.791,42.791,0,0,1,1.067,5.3c.077.587.17,1.717.294,3.309.217,2.706.5,6.727.82,11.536.2,3.108.433,6.556.68,10.175.248,3.743.526,7.685.8,11.659.248,3.5.51,7.036.757,10.47.325,4.066.634,8.026.944,11.659.077.944.17,1.888.248,2.785.17,1.824.418,3.617.726,5.334.788,4.64,1.918,8.69,2.537,11.181a8.389,8.389,0,0,1,.481,2.569Z" transform="translate(-48.905 -137.262)" fill="#556ee6"/>
        <g id="Group_1307" data-name="Group 1307" transform="translate(1.593 43.67)" opacity="0.5">
          <g id="Group_1302" data-name="Group 1302">
            <path id="Path_395" data-name="Path 395" d="M105.194,190.114A85.367,85.367,0,0,1,90.426,193.1c-15.7,1.809-30.68-.294-39.262-2a36.68,36.68,0,0,1-.666-5.69c.031-2.1,1.407-3.788,3.433-5.1,10.036,1.918,29.087,4.315,46.314-.325a16.74,16.74,0,0,1,1.979,2.521,29.373,29.373,0,0,1,2.97,7.6Z" transform="translate(-50.498 -179.985)" fill="url(#linear-gradient-4)"/>
          </g>
          <g id="Group_1303" data-name="Group 1303" transform="translate(2.32 18.742)">
            <path id="Path_396" data-name="Path 396" d="M106.831,205.878a86.777,86.777,0,0,1-24.851,4.469,134.7,134.7,0,0,1-28.824-2.057c-.077-1.067-.138-2.117-.217-3.185l-.093-1.345c-.17-2.459-.355-4.685-.526-6.495-.014-.155-.03-.309-.046-.449,11.582,2.288,34.856,5.258,53.737-2.474C106.228,197.048,106.506,201.069,106.831,205.878Z" transform="translate(-52.275 -194.342)" fill="url(#linear-gradient-4)"/>
          </g>
          <g id="Group_1304" data-name="Group 1304" transform="translate(3.867 40.454)">
            <path id="Path_397" data-name="Path 397" d="M107.954,222.632a86.309,86.309,0,0,1-26.3,5.073,133.6,133.6,0,0,1-27.8-1.809c-.047-3.788-.185-7.577-.386-11.367,12.355,2.258,35.38,4.687,53.69-3.556C107.4,214.716,107.676,218.658,107.954,222.632Z" transform="translate(-53.46 -210.973)" fill="url(#linear-gradient-4)"/>
          </g>
          <g id="Group_1305" data-name="Group 1305" transform="translate(3.45 62.582)">
            <path id="Path_398" data-name="Path 398" d="M109.752,239.583a85.187,85.187,0,0,1-27.37,5.382A135.117,135.117,0,0,1,53.14,242.8q.556-5.567.711-11.164c12.432,2.334,36.277,5.04,54.957-3.711C109.134,231.991,109.443,235.95,109.752,239.583Z" transform="translate(-53.14 -227.924)" fill="url(#linear-gradient-4)"/>
          </g>
          <g id="Group_1306" data-name="Group 1306" transform="translate(1.146 82.36)">
            <path id="Path_399" data-name="Path 399" d="M113.8,254.255c-9.835,4.778-20.69,6.834-30.9,7.421a135.121,135.121,0,0,1-31.531-2.119c.2-3.68.619-7.392,1.082-11.087,12.371,2.3,39.155,5.459,58.808-5.4C112.054,247.714,113.183,251.764,113.8,254.255Z" transform="translate(-51.375 -243.074)" fill="url(#linear-gradient-4)"/>
          </g>
        </g>
        <path id="Path_400" data-name="Path 400" d="M57.237,178.84" transform="translate(-46.846 -136.664)" fill="#62c9cc"/>
        <g id="Group_1308" data-name="Group 1308" transform="translate(21.816)">
          <path id="Path_401" data-name="Path 401" d="M67.692,185.883c10.009,6.26,20.45.688,20.45.688a13.931,13.931,0,0,1-2.821-2.529,7.692,7.692,0,0,1-2.081-4.936c6.674-.225,8.582-14.637,8.841-17.819.171-2.1.482-7.825-3.372-11.042a7.539,7.539,0,0,0-.722-.533c-.258.206-.619.1-1.05-.12a3.172,3.172,0,0,1-.463-.258c-.723-.034-.913-.052-1.239-.43-.1-.138-.24-.311-.413-.534a1.267,1.267,0,0,0-.431.017c-.137.034-.291.069-.463.121-.98.291-2.305.876-3.3.137a2.793,2.793,0,0,1-.55-.62c-.637-.4-2.013-.12-1.6.155-.206.017-.413.052-.619.086-13.673,2.184-9.615,18.645-8.239,25.249C71.029,180.224,66.952,185.418,67.692,185.883Z" transform="translate(-65.496 -146.137)" fill="#ffb3b6"/>
          <path id="Path_402" data-name="Path 402" d="M73.6,169.983l9.288,10.01.6-2.718a7.692,7.692,0,0,1-2.081-4.936S76.248,172.081,73.6,169.983Z" transform="translate(-63.664 -139.37)" fill="#d7cfbb" opacity="0.5"/>
          <path id="Path_403" data-name="Path 403" d="M94.648,160.567s-14.235-5.093-15.925-1.266-1.013,7.265-2.154,7.416-2.616-6.707-5.072-4.794.785,7.841-1.407,11.414c-.805,1.312-5.6-12.027-3.63-18.049,2.042-6.248,5.386-8.5,14.352-8.745,4.051-.111,8.9.769,11.749,2.6C96.3,151.549,96.607,158.131,94.648,160.567Z" transform="translate(-65.989 -146.533)" fill="#43464d"/>
        </g>
        <path id="Path_404" data-name="Path 404" d="M81.33,174.287l-3.818,5.942,5.012,4.916s3.986-6.8,3.6-6.9S81.33,174.287,81.33,174.287Z" transform="translate(-40.653 -138.055)" fill="#2b74d3"/>
        <path id="Path_405" data-name="Path 405" d="M81.31,180.207,69.5,174.361l-4.415,3.389,13.794,9Z" transform="translate(-44.45 -138.033)" fill="#2b74d3"/>
        <g id="Group_1312" data-name="Group 1312" transform="translate(0 43.663)">
          <path id="Path_406" data-name="Path 406" d="M54.159,181.982a7.433,7.433,0,0,0-2.258,7.457c2.871,12.116,13.155,52.549,22.176,50.9,10.6-1.936-.64-37.221-5.18-47C65.112,185.194,59.365,177.7,54.159,181.982Z" transform="translate(-48.544 -179.748)" fill="#dd8678"/>
          <path id="Path_407" data-name="Path 407" d="M55.359,207.048s6.051,23.1,15.632,30.759,53.917,15.74,53.917,15.74l3.351-9.8s-45.771-17.842-47.788-20.161S73.109,201,73.109,201Z" transform="translate(-47.42 -173.559)" fill="#ffb3b6"/>
          <g id="Group_1311" data-name="Group 1311" transform="translate(24.898 53.826)">
            <g id="Group_1309" data-name="Group 1309">
              <path id="Path_408" data-name="Path 408" d="M68.626,228.146a7.593,7.593,0,0,0,5.127,4.826c11.7,3.591,54.2,16.275,57.682,12.19,4.039-4.74-56.4-25.84-59.017-23.815C70.383,222.921,67.431,224.339,68.626,228.146Z" transform="translate(-68.35 -221.21)" fill="#ffb3b6"/>
            </g>
            <path id="Path_409" data-name="Path 409" d="M111.985,233.745l3.867,1.6-2.836,9.328-4.382-1.128Z" transform="translate(-56.045 -217.382)" fill="#ffb3b6"/>
            <g id="Group_1310" data-name="Group 1310" transform="translate(56.872 16.095)">
              <path id="Path_410" data-name="Path 410" d="M114.226,236.323l.444-1.046v-.018h.018L119,233.873a7.088,7.088,0,0,1,3.42-.217l4.679,2.123s.573,1.475-2.308.982a5.658,5.658,0,0,0-2.781.753l2.762.864,6.6,2.619c1.7.658,3.252,2.828,2.555,4.871a5.234,5.234,0,0,1-4.642,2.869l-4.762.535c-2.51-.154-4.484.2-6.739-.926l-5.873-3.57Z" transform="translate(-111.915 -233.54)" fill="#ffb3b6"/>
            </g>
          </g>
          <path id="Path_411" data-name="Path 411" d="M75.923,209.136c0,.061-20.567,8.458-20.567,8.458a86.831,86.831,0,0,1-3.71-10.5,68.371,68.371,0,0,1-1.918-8.876,31.545,31.545,0,0,1,.123-11.4c.788-3.248,2.4-5.521,5-6.325a9.163,9.163,0,0,1,9.062,1.67c2.552,2.089,4.547,5.459,6.2,9.325v.016a89.5,89.5,0,0,1,3.278,9.248C74.3,203.708,75.118,206.6,75.923,209.136Z" transform="translate(-49.277 -179.979)" fill="#82d2f2"/>
        </g>
      </g>
      <g id="Group_1314" data-name="Group 1314" transform="translate(0 45.85)" opacity="0.5">
        <path id="Path_412" data-name="Path 412" d="M70.108,190.98V191a85.1,85.1,0,0,1-20.381,6.711,31.545,31.545,0,0,1,.123-11.4,71.6,71.6,0,0,0,14.057-4.655C66.459,183.744,68.454,187.114,70.108,190.98Z" transform="translate(-49.277 -181.655)" fill="#556ee6"/>
      </g>
      <g id="Group_1315" data-name="Group 1315" transform="translate(2.368 64.439)" opacity="0.5">
        <path id="Path_413" data-name="Path 413" d="M75.369,204.275c0,.061-20.567,8.458-20.567,8.458a86.83,86.83,0,0,1-3.71-10.5,78.919,78.919,0,0,0,21.741-6.339C73.745,198.847,74.564,201.739,75.369,204.275Z" transform="translate(-51.091 -195.894)" fill="#556ee6"/>
      </g>
    </g>
    <g id="Group_1317" data-name="Group 1317" transform="translate(174.847 138.473)">
      <path id="Path_414" data-name="Path 414" d="M137.307,99c11.516,0,19.426,6.944,19.426,18.108,0,12.832-8.877,18.108-21.182,18.108l-.264,8.35h-6.944l-.352-13.888h2.55c10.02,0,18.546-1.935,18.546-12.57,0-7.032-4.571-11.426-11.691-11.426-7.208,0-11.691,4.13-11.691,10.988h-7.559C118.057,106.027,125.792,99,137.307,99Zm-5.538,62.583a5.452,5.452,0,1,1,5.275-5.45,5.364,5.364,0,0,1-5.275,5.445Z" transform="translate(-118.145 -98.995)" fill="#8bb3e7"/>
    </g>
    <g id="Group_1318" data-name="Group 1318" transform="translate(415.097 138.473)" opacity="0.54">
      <path id="Path_415" data-name="Path 415" d="M321.155,130.131c7.539-3.812,15.015-1.885,18.71,5.421,4.25,8.4.183,14.794-7.87,18.868l2.591,5.551-4.547,2.3-4.825-8.975,1.666-.844c6.559-3.317,11.5-7.4,7.981-14.368-2.329-4.6-6.776-5.965-11.436-3.609-4.717,2.386-6.287,6.575-4.015,11.063l-4.948,2.5C310.883,141.107,313.618,133.943,321.155,130.131Zm17.1,42.8a4,4,0,1,1,1.649-5.313,3.935,3.935,0,0,1-1.654,5.313Z" transform="translate(-312.904 -128.218)" fill="#2b74d3"/>
    </g>
    <g id="Group_1330" data-name="Group 1330" transform="translate(299.377 125.014)" opacity="0.38">
      <g id="Group_1319" data-name="Group 1319">
        <path id="Path_416" data-name="Path 416" d="M244.194,156.4l-14.6,12.374a4.646,4.646,0,0,1-6.541-.539L202.9,144.456l.646-9.529,13.062-11.071a4.645,4.645,0,0,1,6.541.538l21.584,25.463A4.647,4.647,0,0,1,244.194,156.4Zm-40.457-12.216,19.94,23.524a3.83,3.83,0,0,0,5.393.445l14.6-12.374a3.832,3.832,0,0,0,.445-5.393L222.531,124.92a3.833,3.833,0,0,0-5.4-.445l-12.8,10.849Z" transform="translate(-202.902 -122.756)" fill="#1e92e0"/>
      </g>
      <g id="Group_1320" data-name="Group 1320" transform="translate(0.417 12.37)">
        <path id="Path_417" data-name="Path 417" d="M203.808,131.1l4.273,5.041-4.9,4.152Z" transform="translate(-203.183 -131.102)" fill="#1e92e0"/>
      </g>
      <g id="Group_1329" data-name="Group 1329" transform="translate(5.527 8.435)">
        <g id="Group_1321" data-name="Group 1321">
          <rect id="Rectangle_415" data-name="Rectangle 415" width="17.29" height="0.581" transform="translate(0 11.18) rotate(-40.286)" fill="#1e92e0"/>
        </g>
        <g id="Group_1322" data-name="Group 1322" transform="translate(2.255 2.66)">
          <rect id="Rectangle_416" data-name="Rectangle 416" width="17.29" height="0.581" transform="translate(0 11.18) rotate(-40.297)" fill="#1e92e0"/>
        </g>
        <g id="Group_1323" data-name="Group 1323" transform="translate(4.51 5.32)">
          <rect id="Rectangle_417" data-name="Rectangle 417" width="17.29" height="0.581" transform="translate(0 11.18) rotate(-40.286)" fill="#1e92e0"/>
        </g>
        <g id="Group_1324" data-name="Group 1324" transform="translate(6.764 7.98)">
          <rect id="Rectangle_418" data-name="Rectangle 418" width="17.29" height="0.581" transform="translate(0 11.18) rotate(-40.286)" fill="#1e92e0"/>
        </g>
        <g id="Group_1325" data-name="Group 1325" transform="translate(9.019 10.64)">
          <rect id="Rectangle_419" data-name="Rectangle 419" width="17.29" height="0.581" transform="matrix(0.763, -0.647, 0.647, 0.763, 0, 11.18)" fill="#1e92e0"/>
        </g>
        <g id="Group_1326" data-name="Group 1326" transform="translate(11.274 13.3)">
          <rect id="Rectangle_420" data-name="Rectangle 420" width="17.29" height="0.581" transform="translate(0 11.18) rotate(-40.286)" fill="#1e92e0"/>
        </g>
        <g id="Group_1327" data-name="Group 1327" transform="translate(13.529 15.961)">
          <rect id="Rectangle_421" data-name="Rectangle 421" width="17.29" height="0.581" transform="translate(0 11.18) rotate(-40.286)" fill="#1e92e0"/>
        </g>
        <g id="Group_1328" data-name="Group 1328" transform="translate(15.784 18.62)">
          <rect id="Rectangle_422" data-name="Rectangle 422" width="17.29" height="0.581" transform="translate(0 11.18) rotate(-40.286)" fill="#1e92e0"/>
        </g>
      </g>
    </g>
    <g id="Group_1342" data-name="Group 1342" transform="translate(521.04 178.046)">
      <g id="Group_1331" data-name="Group 1331">
        <path id="Path_418" data-name="Path 418" d="M423.457,205.824,408.8,194.265a4.53,4.53,0,0,1-.75-6.356l18.823-23.869,9.234-1.227,13.112,10.341a4.532,4.532,0,0,1,.752,6.357l-20.159,25.561A4.53,4.53,0,0,1,423.457,205.824Zm3.841-41.039L408.674,188.4a3.736,3.736,0,0,0,.619,5.241L423.949,205.2a3.737,3.737,0,0,0,5.241-.62l20.159-25.561a3.735,3.735,0,0,0-.619-5.241l-12.85-10.134Z" transform="translate(-407.08 -162.813)" fill="#a8d5f3"/>
      </g>
      <g id="Group_1332" data-name="Group 1332" transform="translate(20.006 0.416)">
        <path id="Path_419" data-name="Path 419" d="M429.829,163.1l-3.991,5.061-4.917-3.878Z" transform="translate(-420.921 -163.101)" fill="#a8d5f3"/>
      </g>
      <g id="Group_1341" data-name="Group 1341" transform="translate(7.764 6.107)">
        <g id="Group_1333" data-name="Group 1333" transform="translate(14.742)">
          <rect id="Rectangle_423" data-name="Rectangle 423" width="16.863" height="0.567" transform="translate(0.351) rotate(38.26)" fill="#a8d5f3"/>
        </g>
        <g id="Group_1334" data-name="Group 1334" transform="translate(12.636 2.671)">
          <rect id="Rectangle_424" data-name="Rectangle 424" width="16.863" height="0.567" transform="translate(0.351) rotate(38.26)" fill="#a8d5f3"/>
        </g>
        <g id="Group_1335" data-name="Group 1335" transform="translate(10.53 5.341)">
          <rect id="Rectangle_425" data-name="Rectangle 425" width="16.863" height="0.567" transform="translate(0.351) rotate(38.26)" fill="#a8d5f3"/>
        </g>
        <g id="Group_1336" data-name="Group 1336" transform="translate(8.424 8.011)">
          <rect id="Rectangle_426" data-name="Rectangle 426" width="16.863" height="0.567" transform="translate(0.351) rotate(38.26)" fill="#a8d5f3"/>
        </g>
        <g id="Group_1337" data-name="Group 1337" transform="translate(6.318 10.682)">
          <rect id="Rectangle_427" data-name="Rectangle 427" width="16.863" height="0.567" transform="translate(0.351) rotate(38.26)" fill="#a8d5f3"/>
        </g>
        <g id="Group_1338" data-name="Group 1338" transform="translate(4.212 13.352)">
          <rect id="Rectangle_428" data-name="Rectangle 428" width="16.863" height="0.567" transform="translate(0.351) rotate(38.26)" fill="#a8d5f3"/>
        </g>
        <g id="Group_1339" data-name="Group 1339" transform="translate(2.106 16.023)">
          <rect id="Rectangle_429" data-name="Rectangle 429" width="16.863" height="0.567" transform="translate(0.351) rotate(38.26)" fill="#a8d5f3"/>
        </g>
        <g id="Group_1340" data-name="Group 1340" transform="translate(0 18.693)">
          <rect id="Rectangle_430" data-name="Rectangle 430" width="16.863" height="0.567" transform="translate(0.351) rotate(38.26)" fill="#a8d5f3"/>
        </g>
      </g>
    </g>
  </g>
</svg>
