<svg id="Group_1728" data-name="Group 1728" xmlns="http://www.w3.org/2000/svg" width="72.097" height="71.72" viewBox="0 0 72.097 71.72">
  <g id="Group_1709" data-name="Group 1709" transform="translate(26.533 9.833)">
    <g id="Group_1706" data-name="Group 1706" transform="translate(0 0)">
      <rect id="Rectangle_545" data-name="Rectangle 545" width="43.975" height="37.093" rx="4.186" transform="translate(0 44.267) rotate(-79.511)" fill="#4d4d4d"/>
      <path id="Path_1759" data-name="Path 1759" d="M1244.518,91.243l-7.607,41.182a1.046,1.046,0,0,0,.84,1.22L1272.165,140a1.046,1.046,0,0,0,1.221-.84l7.607-41.182a1.046,1.046,0,0,0-.84-1.22L1245.738,90.4a1.046,1.046,0,0,0-1.22.84Z" transform="translate(-1236.652 -89.539)" fill="#2a468a" fill-rule="evenodd"/>
      <path id="Path_1760" data-name="Path 1760" d="M1253.138,261.355l-.945,5.112,2.69-1.392,1.876,2.106.921-4.986-4.036-.746Z" transform="translate(-1248.124 -217.709)" fill="#db1f21" fill-rule="evenodd"/>
      <g id="Group_1705" data-name="Group 1705" transform="translate(2.124 5.193)">
        <path id="Path_1761" data-name="Path 1761" d="M1283.653,114.412a.65.65,0,0,1-.409-.254.579.579,0,0,1,.155-.835.649.649,0,0,1,.472-.092.618.618,0,0,1,.513.706.583.583,0,0,1-.259.384.649.649,0,0,1-.473.092Zm-37.981,35.023,1.005.186.069-.372,4.543.839-.068.372,28.97,5.353,7.667-41.5-2.062-3.821-1.346-.249-.608,3.291-.7-.129a.575.575,0,0,1,.031.308.634.634,0,0,1-1.246-.23.57.57,0,0,1,.139-.276l-1.212-.224a.573.573,0,0,1,.03.308.634.634,0,0,1-1.245-.23.569.569,0,0,1,.138-.276l-1.212-.224a.571.571,0,0,1,.03.308.634.634,0,0,1-1.245-.23.57.57,0,0,1,.138-.277l-1.212-.224a.571.571,0,0,1,.03.308.634.634,0,0,1-1.245-.23.571.571,0,0,1,.139-.276l-1.213-.224a.572.572,0,0,1,.031.308.634.634,0,0,1-1.245-.23.571.571,0,0,1,.138-.277l-1.212-.224a.568.568,0,0,1,.03.308.634.634,0,0,1-1.245-.23.573.573,0,0,1,.138-.277l-1.212-.224a.57.57,0,0,1,.03.308.634.634,0,0,1-1.245-.23.57.57,0,0,1,.139-.277l-1.049-.194a.571.571,0,0,1,.03.308.634.634,0,0,1-1.245-.23.57.57,0,0,1,.138-.276l-1.212-.224a.569.569,0,0,1,.03.308.634.634,0,0,1-1.245-.23.57.57,0,0,1,.138-.276l-1.212-.224a.569.569,0,0,1,.03.308.634.634,0,0,1-1.245-.23.571.571,0,0,1,.139-.276l-1.213-.224a.571.571,0,0,1,.031.308.634.634,0,0,1-1.246-.23.571.571,0,0,1,.139-.276l-1.212-.224a.571.571,0,0,1,.03.308.634.634,0,0,1-1.245-.23.57.57,0,0,1,.138-.277l-1.212-.224a.572.572,0,0,1,.03.308.634.634,0,0,1-1.245-.23.572.572,0,0,1,.138-.277l-2.259-.417-1.046,5.665-1.063-.347-5.976,32.362Z" transform="translate(-1244.42 -107.747)" fill-rule="evenodd" opacity="0.09"/>
      </g>
      <rect id="Rectangle_546" data-name="Rectangle 546" width="2.139" height="32.059" transform="translate(41.909 7.6) rotate(100.468)" opacity="0.55"/>
      <path id="Path_1762" data-name="Path 1762" d="M1242.17,134.019l33.91,6.265,7.7-41.67-33.91-6.265Zm39.2-34.038a.606.606,0,1,1,.735-.479.621.621,0,0,1-.739.479Zm-2.3-.424a.606.606,0,1,1,.735-.479.621.621,0,0,1-.738.479Zm-2.3-.425a.606.606,0,1,1,.735-.479.621.621,0,0,1-.737.479Zm-2.3-.424a.606.606,0,1,1,.734-.479.621.621,0,0,1-.735.479Zm-2.3-.425a.606.606,0,1,1,.735-.479.62.62,0,0,1-.734.479Zm-2.3-.424a.606.606,0,1,1,.735-.479.62.62,0,0,1-.739.479Zm-2.3-.424a.606.606,0,1,1,.735-.479.62.62,0,0,1-.738.478Zm-2.3-.425a.606.606,0,1,1,.735-.479.621.621,0,0,1-.737.478Zm-2.133-.394a.606.606,0,1,1,.735-.479.621.621,0,0,1-.738.478Zm-2.3-.425a.606.606,0,1,1,.735-.479.621.621,0,0,1-.737.478Zm-2.3-.424a.606.606,0,1,1,.735-.479.621.621,0,0,1-.736.478Zm-2.3-.424a.606.606,0,1,1,.735-.479.621.621,0,0,1-.736.478Zm-2.3-.425a.606.606,0,1,1,.735-.479.621.621,0,0,1-.74.478Zm-2.3-.424a.606.606,0,1,1,.735-.479.621.621,0,0,1-.739.478Z" transform="translate(-1240.609 -91.012)" fill="#fff" fill-rule="evenodd"/>
      <path id="Path_1763" data-name="Path 1763" d="M1300.819,91.285l-.245,1.325-.182.985a.4.4,0,0,1-.468.322l-.02,0a.4.4,0,0,1-.322-.467l.182-.985.245-1.325a.4.4,0,0,1,.467-.321l.02,0A.4.4,0,0,1,1300.819,91.285Zm-16.293-3.418-.02,0a.4.4,0,0,0-.467.322l-.245,1.325-.182.985a.4.4,0,0,0,.322.467l.02,0a.4.4,0,0,0,.467-.322l.182-.985.245-1.325a.4.4,0,0,0-.322-.468Zm13.659,2.533-.02,0a.4.4,0,0,0-.468.322l-.244,1.325-.182.985a.4.4,0,0,0,.322.467l.02,0a.4.4,0,0,0,.467-.322l.182-.985.245-1.325a.4.4,0,0,0-.321-.468Zm-4.587-.856-.02,0a.4.4,0,0,0-.468.322l-.245,1.325-.182.985a.4.4,0,0,0,.322.467l.02,0a.4.4,0,0,0,.467-.322l.182-.985.245-1.325a.4.4,0,0,0-.322-.469Zm2.282.422-.02,0a.4.4,0,0,0-.467.322l-.245,1.325-.182.985a.4.4,0,0,0,.322.467l.02,0a.4.4,0,0,0,.467-.322l.182-.985.244-1.325a.4.4,0,0,0-.323-.469Zm-9.007-1.664-.02,0a.4.4,0,0,0-.467.322l-.245,1.325-.182.985a.4.4,0,0,0,.322.468l.02,0a.4.4,0,0,0,.468-.322l.182-.985.245-1.325a.4.4,0,0,0-.325-.47Zm2.282.422-.02,0a.4.4,0,0,0-.467.322l-.245,1.325-.182.985a.4.4,0,0,0,.322.467l.02,0a.4.4,0,0,0,.467-.322l.182-.985.245-1.325a.4.4,0,0,0-.325-.47Zm2.271.419-.02,0a.4.4,0,0,0-.467.322l-.245,1.325-.182.985a.4.4,0,0,0,.322.467l.02,0a.4.4,0,0,0,.467-.322l.182-.985.245-1.325a.4.4,0,0,0-.323-.469Zm11.353,2.094-.02,0a.4.4,0,0,0-.467.322l-.245,1.325-.182.985a.4.4,0,0,0,.322.467l.02,0a.4.4,0,0,0,.467-.322l.182-.985.244-1.325A.4.4,0,0,0,1302.778,91.237Zm-22.819-4.216-.02,0a.4.4,0,0,0-.467.322l-.245,1.325-.182.985a.4.4,0,0,0,.322.467l.02,0a.4.4,0,0,0,.468-.321l.182-.985.245-1.325a.4.4,0,0,0-.319-.466Zm25.1,4.637-.02,0a.4.4,0,0,0-.467.322l-.245,1.325-.182.985a.4.4,0,0,0,.322.467l.02,0a.4.4,0,0,0,.467-.321l.182-.985.245-1.325a.4.4,0,0,0-.321-.466Zm2.34.432-.02,0a.4.4,0,0,0-.467.322l-.245,1.325-.182.985a.4.4,0,0,0,.322.467l.02,0a.4.4,0,0,0,.467-.322l.182-.985.245-1.325a.4.4,0,0,0-.321-.465Zm2.282.422-.02,0a.4.4,0,0,0-.468.322l-.245,1.325-.182.985a.4.4,0,0,0,.322.467l.02,0a.4.4,0,0,0,.467-.322l.182-.985L1310,92.98a.4.4,0,0,0-.322-.466Zm-27.4-5.063-.02,0a.4.4,0,0,0-.467.321l-.244,1.325-.182.985a.4.4,0,0,0,.322.467l.02,0a.4.4,0,0,0,.467-.322l.182-.985.244-1.325a.4.4,0,0,0-.321-.466Z" transform="translate(-1268.249 -87.011)" fill="#2a468a"/>
    </g>
    <g id="Group_1707" data-name="Group 1707" transform="translate(7.663 10.272)" opacity="0.41">
      <rect id="Rectangle_547" data-name="Rectangle 547" width="20.027" height="1.144" transform="translate(4.771 0) rotate(10.468)" fill="#6c90e8"/>
      <rect id="Rectangle_548" data-name="Rectangle 548" width="20.027" height="1.144" transform="translate(3.63 6.174) rotate(10.467)" fill="#6c90e8"/>
      <rect id="Rectangle_549" data-name="Rectangle 549" width="20.027" height="1.144" transform="translate(2.489 12.347) rotate(10.467)" fill="#6c90e8"/>
      <rect id="Rectangle_550" data-name="Rectangle 550" width="20.027" height="1.144" transform="translate(1.349 18.52) rotate(10.467)" fill="#6c90e8"/>
      <rect id="Rectangle_551" data-name="Rectangle 551" width="20.027" height="1.144" transform="translate(0.208 24.694) rotate(10.489)" fill="#6c90e8"/>
    </g>
    <g id="Group_1708" data-name="Group 1708" transform="translate(32.251 13.896)">
      <path id="Path_1764" data-name="Path 1764" d="M1375.269,144.68l-1.106-1.292.58-.435.634.741,1.569-1.176.472.551Z" transform="translate(-1371.812 -142.517)" fill="#2a468a"/>
      <path id="Path_1765" data-name="Path 1765" d="M1370.649,169.735l-1.106-1.292.58-.436.634.741,1.569-1.176.472.551Z" transform="translate(-1368.347 -161.299)" fill="#2a468a"/>
      <path id="Path_1766" data-name="Path 1766" d="M1365.879,195.5l-1.106-1.292.581-.435.634.741,1.569-1.176.472.551Z" transform="translate(-1364.773 -180.618)" fill="#2a468a"/>
    </g>
  </g>
  <g id="Group_1724" data-name="Group 1724" transform="translate(0 0)">
    <path id="Path_1767" data-name="Path 1767" d="M1188.893,118.8l-19.178.151-33.156,1.759L1133,53.6l49.649-4.189,1.89,12.5-1.142,2.109,2.231,33.62,1.18,9.038.883.163Z" transform="translate(-1132.236 -48.992)" opacity="0.09"/>
    <path id="Path_1768" data-name="Path 1768" d="M1182.858,114.151l-16.2,1.589L1133.5,117.5l-3.559-67.109,50.188-2.662,2.633,49.636Z" transform="translate(-1129.943 -47.728)" fill="#a1b2f2"/>
    <g id="Group_1710" data-name="Group 1710" transform="translate(32.753 8.779)">
      <path id="Path_1769" data-name="Path 1769" d="M1271.621,84.09l-10.157.539a.648.648,0,0,1-.681-.612h0a.647.647,0,0,1,.612-.681l10.157-.539a.647.647,0,0,1,.681.612h0A.647.647,0,0,1,1271.621,84.09Z" transform="translate(-1260.782 -82.796)" fill="#fff"/>
      <path id="Path_1770" data-name="Path 1770" d="M1272.371,98.249l-10.157.539a.647.647,0,0,1-.681-.612h0a.647.647,0,0,1,.612-.681l10.157-.539a.647.647,0,0,1,.681.612h0A.647.647,0,0,1,1272.371,98.249Z" transform="translate(-1261.345 -93.411)" fill="#fff"/>
    </g>
    <g id="Group_1711" data-name="Group 1711" transform="translate(8.096 18.982)">
      <path id="Path_1771" data-name="Path 1771" d="M1273.781,124.845l-10.157.539a.648.648,0,0,1-.681-.612h0a.647.647,0,0,1,.612-.681l10.157-.539a.648.648,0,0,1,.681.612h0a.647.647,0,0,1-.612.681Z" transform="translate(-1237.745 -123.551)" fill="#fff"/>
      <path id="Path_1772" data-name="Path 1772" d="M1274.531,139l-10.157.539a.647.647,0,0,1-.681-.612h0a.648.648,0,0,1,.612-.681l10.157-.539a.648.648,0,0,1,.681.612h0A.647.647,0,0,1,1274.531,139Z" transform="translate(-1238.308 -134.166)" fill="#fff"/>
      <path id="Path_1773" data-name="Path 1773" d="M1198.775,158.647l-35.8,1.9a.647.647,0,0,1-.681-.612h0a.647.647,0,0,1,.612-.681l35.8-1.9a.647.647,0,0,1,.681.612h0A.647.647,0,0,1,1198.775,158.647Z" transform="translate(-1162.289 -148.891)" fill="#fff"/>
      <path id="Path_1774" data-name="Path 1774" d="M1199.445,171.261l-35.8,1.9a.647.647,0,0,1-.681-.612h0a.647.647,0,0,1,.612-.681l35.8-1.9a.647.647,0,0,1,.681.612h0A.647.647,0,0,1,1199.445,171.261Z" transform="translate(-1162.791 -158.347)" fill="#fff"/>
    </g>
    <g id="Group_1716" data-name="Group 1716" transform="translate(8.752 38.306)">
      <g id="Group_1712" data-name="Group 1712" transform="translate(11.528 0)">
        <path id="Path_1775" data-name="Path 1775" d="M1228.76,217.818l-16.358.867a.647.647,0,0,1-.681-.612h0a.648.648,0,0,1,.612-.681l16.358-.867a.648.648,0,0,1,.681.612h0a.648.648,0,0,1-.612.681Z" transform="translate(-1211.53 -212.574)" fill="#fff"/>
        <path id="Path_1776" data-name="Path 1776" d="M1235.642,202.04l-24,1.273a.648.648,0,0,1-.681-.612h0a.647.647,0,0,1,.612-.681l24-1.273a.647.647,0,0,1,.681.612h0A.648.648,0,0,1,1235.642,202.04Z" transform="translate(-1210.963 -200.746)" fill="#fff"/>
      </g>
      <g id="Group_1715" data-name="Group 1715" transform="translate(0 1.279)">
        <g id="Group_1713" data-name="Group 1713">
          <path id="Path_1777" data-name="Path 1777" d="M1172.874,213.417l-7.562.4-.4-7.562,7.562-.4Zm-6.7-.556,5.745-.3-.3-5.745-5.745.3Z" transform="translate(-1164.91 -205.855)" fill="#a3bbc4"/>
          <path id="Path_1778" data-name="Path 1778" d="M1174.559,218.089l-1.949-1.413.655-.791,1.118.808,1.77-2.139.832.6Z" transform="translate(-1170.682 -212.378)" fill="#c3d82e"/>
        </g>
        <g id="Group_1714" data-name="Group 1714">
          <path id="Path_1779" data-name="Path 1779" d="M1172.874,213.417l-7.562.4-.4-7.562,7.562-.4Zm-6.7-.556,5.745-.3-.3-5.745-5.745.3Z" transform="translate(-1164.91 -205.855)" fill="#f1f1f1"/>
          <path id="Path_1780" data-name="Path 1780" d="M1174.559,218.089l-1.949-1.413.655-.791,1.118.808,1.77-2.139.832.6Z" transform="translate(-1170.682 -212.378)" fill="#fff"/>
        </g>
      </g>
    </g>
    <g id="Group_1721" data-name="Group 1721" transform="translate(9.253 48.82)">
      <g id="Group_1717" data-name="Group 1717" transform="translate(11.528 0)">
        <path id="Path_1781" data-name="Path 1781" d="M1230.76,259.818l-16.358.867a.647.647,0,0,1-.681-.612h0a.648.648,0,0,1,.612-.681l16.358-.867a.648.648,0,0,1,.681.612h0A.648.648,0,0,1,1230.76,259.818Z" transform="translate(-1213.53 -254.574)" fill="#f1f1f1"/>
        <path id="Path_1782" data-name="Path 1782" d="M1237.642,244.04l-24,1.273a.648.648,0,0,1-.681-.612h0a.647.647,0,0,1,.612-.681l24-1.273a.648.648,0,0,1,.681.612h0A.648.648,0,0,1,1237.642,244.04Z" transform="translate(-1212.963 -242.746)" fill="#f1f1f1"/>
      </g>
      <g id="Group_1720" data-name="Group 1720" transform="translate(0 1.279)">
        <g id="Group_1718" data-name="Group 1718" transform="translate(0 0)">
          <path id="Path_1783" data-name="Path 1783" d="M1174.874,255.417l-7.562.4-.4-7.562,7.562-.4Zm-6.7-.556,5.745-.3-.3-5.745-5.745.3Z" transform="translate(-1166.91 -247.855)" fill="#a3bbc4"/>
          <path id="Path_1784" data-name="Path 1784" d="M1176.559,260.089l-1.949-1.413.655-.791,1.118.808,1.77-2.139.832.6Z" transform="translate(-1172.682 -254.378)" fill="#c3d82e"/>
        </g>
        <g id="Group_1719" data-name="Group 1719" transform="translate(0 0)">
          <path id="Path_1785" data-name="Path 1785" d="M1174.874,255.417l-7.562.4-.4-7.562,7.562-.4Zm-6.7-.556,5.745-.3-.3-5.745-5.745.3Z" transform="translate(-1166.91 -247.855)" fill="#f1f1f1"/>
          <path id="Path_1786" data-name="Path 1786" d="M1176.559,260.089l-1.949-1.413.655-.791,1.118.808,1.77-2.139.832.6Z" transform="translate(-1172.682 -254.378)" fill="#fff"/>
        </g>
      </g>
    </g>
    <g id="Group_1722" data-name="Group 1722" transform="translate(7.826 9.728)" opacity="0.53">
      <rect id="Rectangle_554" data-name="Rectangle 554" width="6.589" height="9.894" transform="translate(7.497 5.722) rotate(-3.036)" fill="#fff"/>
      <rect id="Rectangle_555" data-name="Rectangle 555" width="6.589" height="6.942" transform="translate(0 9.075) rotate(-3.036)" fill="#fff"/>
      <rect id="Rectangle_556" data-name="Rectangle 556" width="6.589" height="14.868" transform="translate(14.887 0.349) rotate(-3.037)" fill="#fff"/>
    </g>
    <path id="Path_1787" data-name="Path 1787" d="M1276.683,242.484a3.946,3.946,0,1,0,4.033,3.855A3.946,3.946,0,0,0,1276.683,242.484Zm2.958,3.88a2.87,2.87,0,1,1-2.934-2.805,2.87,2.87,0,0,1,2.934,2.805Z" transform="translate(-1232.379 -186.831)" fill="#372f5f" opacity="0.18"/>
    <g id="Group_1723" data-name="Group 1723" transform="translate(39.571 54.78)">
      <path id="Path_1788" data-name="Path 1788" d="M1272,246.214c-.047,0-.1,0-.15.006a4.821,4.821,0,1,1,.15-.006Zm-.5-9.251a4.447,4.447,0,1,0,.138-.005l-.136,0Z" transform="translate(-1266.918 -236.579)" fill="#372f5f" opacity="0.18"/>
    </g>
    <path id="Path_1789" data-name="Path 1789" d="M1287.376,263.328l-1.608-1.441.657-.645.922.826,1.777-1.742.686.615Z" transform="translate(-1243.401 -202.027)" fill="#372f5f"/>
  </g>
</svg>
