<svg xmlns="http://www.w3.org/2000/svg" xmlns:xlink="http://www.w3.org/1999/xlink" width="644.212" height="629.346" viewBox="0 0 644.212 629.346">
  <defs>
    <clipPath id="clip-path">
      <path id="Path_2" data-name="Path 2" d="M781.368,179.248h70.108c3.745,0,6.775,4.054,6.775,9.053v14.168c0,5-3.03,9.049-6.775,9.049H781.368c-3.741,0-6.775-4.054-6.775-9.049V188.3C774.593,183.3,777.627,179.248,781.368,179.248Z" transform="translate(-774.593 -179.248)" fill="#1b96e2"/>
    </clipPath>
    <clipPath id="clip-path-2">
      <path id="Path_17" data-name="Path 17" d="M779.052,165.143h-130.3a74.538,74.538,0,0,0,24.259,26.332V332.92H754.8V191.479a74.573,74.573,0,0,0,24.252-26.336Z" transform="translate(-648.756 -165.143)" fill="#c4c4c4"/>
    </clipPath>
    <clipPath id="clip-path-3">
      <path id="Path_30" data-name="Path 30" d="M712.168,262.959H817.356l13.133-139.717c1.176-11.4-9.838-21.181-23.849-21.181H722.885c-14.011,0-25.026,9.783-23.85,21.181Z" transform="translate(-698.949 -102.061)" fill="none"/>
    </clipPath>
    <clipPath id="clip-path-4">
      <path id="Path_33" data-name="Path 33" d="M731.167,145.285H836.355l11.472,122.036L833.549,370H791.522l17.138-92.07s-14.123-61.453-16.14-83.46H778.594l-7.471,85.091-35.907,89.763H691.97l37.537-97.107s1.467-97.929,1.738-112.439C730.709,157.238,731.167,145.285,731.167,145.285Z" transform="translate(-691.97 -145.285)" fill="none"/>
    </clipPath>
  </defs>
  <g id="Leave" transform="translate(-637.396 -47.123)">
    <g id="Group_1" data-name="Group 1" transform="translate(1155.255 479.07)">
      <rect id="Rectangle_2" data-name="Rectangle 2" width="1.632" height="149.262" fill="#231f20"/>
    </g>
    <g id="Group_2" data-name="Group 2" transform="translate(1189.544 229.1)">
      <rect id="Rectangle_3" data-name="Rectangle 3" width="1.632" height="376.928" fill="#231f20"/>
    </g>
    <g id="Group_3" data-name="Group 3" transform="translate(1172.399 350.682)">
      <rect id="Rectangle_4" data-name="Rectangle 4" width="1.632" height="277.649" fill="#231f20"/>
    </g>
    <g id="Group_4" data-name="Group 4" transform="translate(1223.831 297.913)">
      <rect id="Rectangle_5" data-name="Rectangle 5" width="1.632" height="286.575" fill="#231f20"/>
    </g>
    <g id="Group_5" data-name="Group 5" transform="translate(1206.689 223.424)">
      <rect id="Rectangle_6" data-name="Rectangle 6" width="1.632" height="386.992" fill="#231f20"/>
    </g>
    <g id="Group_6" data-name="Group 6" transform="translate(1112.171 520.947)">
      <circle id="Ellipse_1" data-name="Ellipse 1" cx="54.985" cy="54.985" r="54.985" transform="translate(0 77.761) rotate(-45)" fill="#556ee6"/>
    </g>
    <g id="Group_9" data-name="Group 9" transform="translate(1148.102 538.948)">
      <path id="Path_1" data-name="Path 1" d="M781.368,179.248h70.108c3.745,0,6.775,4.054,6.775,9.053v14.168c0,5-3.03,9.049-6.775,9.049H781.368c-3.741,0-6.775-4.054-6.775-9.049V188.3C774.593,183.3,777.627,179.248,781.368,179.248Z" transform="translate(-774.593 -179.248)" fill="#8396f1"/>
      <g id="Group_8" data-name="Group 8" clip-path="url(#clip-path)">
        <g id="Group_7" data-name="Group 7" transform="translate(-14.278 19.754)">
          <rect id="Rectangle_7" data-name="Rectangle 7" width="102.67" height="1.632" fill="#fff"/>
        </g>
      </g>
    </g>
    <g id="Group_11" data-name="Group 11" transform="translate(1165.758 200.173)">
      <g id="Group_10" data-name="Group 10">
        <path id="Path_3" data-name="Path 3" d="M787.246,107.533a160.458,160.458,0,0,1-6.358,20.693q1.323-3.144,2.65-6.287c-.22.51-.439,1.024-.659,1.537-2.933,6.819-4.713,12.805-2.654,20.283a26.338,26.338,0,0,0,32.385,18.389c5.9-1.623,13.2-6.2,15.731-12.1a188.745,188.745,0,0,0,9.674-28.521c3.536-13.9-4.359-28.525-18.385-32.385C806,85.4,790.782,93.63,787.246,107.533Z" transform="translate(-779.336 -88.239)" fill="#556ee6"/>
      </g>
    </g>
    <g id="Group_13" data-name="Group 13" transform="translate(1088.559 429.297)">
      <g id="Group_12" data-name="Group 12">
        <path id="Path_4" data-name="Path 4" d="M760.651,187.417c5.048,14.994,15.091,27.594,26.958,37.764,10.911,9.351,29.128,4.11,36.61-6.771,8.774-12.753,4.113-27.282-6.771-36.61,5.766,4.94-.249-.648-1.347-1.924-.975-1.132-5.669-8.212-1.846-2.155a61.79,61.79,0,0,1-6.224-13.3c-4.586-13.624-23.529-17.842-35.188-12.191-14.123,6.846-16.762,21.6-12.191,35.188Z" transform="translate(-758.597 -149.791)" fill="#556ee6"/>
      </g>
    </g>
    <g id="Group_15" data-name="Group 15" transform="translate(1143.334 341.095)">
      <g id="Group_14" data-name="Group 14">
        <path id="Path_5" data-name="Path 5" d="M778.858,150.827c-.086,9.436-1.939,18.575-3.659,27.818a104,104,0,0,0-.711,35.27c2.151,14.2,17.775,23.15,31.2,20.313,14.655-3.1,22.465-17.019,20.317-31.2q-.692-4.981-.294-1.526-.044-2.831.149-5.654a112.4,112.4,0,0,1,1.91-14c1.642-9.273,3.574-18.363,3.659-27.821.123-14.335-9.824-26.984-24.687-27.881-13.754-.826-27.758,10.333-27.881,24.687Z" transform="translate(-773.312 -126.096)" fill="#556ee6"/>
      </g>
    </g>
    <g id="Group_17" data-name="Group 17" transform="translate(1216.025 273.686)">
      <g id="Group_16" data-name="Group 16">
        <path id="Path_6" data-name="Path 6" d="M796.134,147.474q2.68,5.327,5.174,10.739c.726,1.571,1.418,3.157,2.111,4.746-3.164-7.251,0,.123.592,1.627,2.6,6.663,5.714,11.994,12.1,15.735a26.5,26.5,0,0,0,20.287,2.654c12.753-3.51,23.615-19,18.385-32.385Q848.87,135.453,841.6,120.9c-6.444-12.813-24.233-16.349-36.018-9.444-12.954,7.586-15.891,23.2-9.448,36.018Z" transform="translate(-792.84 -107.987)" fill="#556ee6"/>
      </g>
    </g>
    <g id="Group_19" data-name="Group 19" transform="translate(1218.359 373.344)">
      <g id="Group_18" data-name="Group 18">
        <path id="Path_7" data-name="Path 7" d="M807.59,147.759c-1.857,2.907-3.857,5.71-5.96,8.442q2.055-2.663,4.117-5.327-2.228,2.848-4.571,5.6c-4.665,5.5-7.709,11.182-7.709,18.616a26.326,26.326,0,0,0,26.323,26.325c6.475,0,14.3-2.613,18.618-7.713a180.535,180.535,0,0,0,14.648-19.368c7.735-12.1,2.561-28.987-9.444-36.018-12.753-7.471-28.309-2.624-36.022,9.444Z" transform="translate(-793.467 -134.76)" fill="#556ee6"/>
      </g>
    </g>
    <g id="Group_21" data-name="Group 21" transform="translate(1185.382 458.563)">
      <g id="Group_20" data-name="Group 20">
        <path id="Path_8" data-name="Path 8" d="M810.933,211.523c6.153.462,12.3-.815,18.37-1.649l-7,.938a47.282,47.282,0,0,1,8.521-.458c14.343.722,26.325-12.526,26.325-26.329,0-14.9-12-25.6-26.325-26.325-6.138-.309-12.273.964-18.322,1.783q3.5-.469,7-.942a42.568,42.568,0,0,1-8.569.328c-14.328-1.072-26.325,12.79-26.325,26.329,0,15.161,12.02,25.253,26.325,26.325Z" transform="translate(-784.608 -157.653)" fill="#556ee6"/>
      </g>
    </g>
    <g id="Group_22" data-name="Group 22" transform="translate(1109.251 280.872)">
      <path id="Path_9" data-name="Path 9" d="M770.008,112.844a2.926,2.926,0,1,1-2.926-2.926A2.926,2.926,0,0,1,770.008,112.844Z" transform="translate(-764.156 -109.918)" fill="#fff"/>
    </g>
    <g id="Group_23" data-name="Group 23" transform="translate(1187.061 247.233)">
      <path id="Path_10" data-name="Path 10" d="M790.907,103.807a2.924,2.924,0,1,1-2.922-2.926,2.924,2.924,0,0,1,2.922,2.926Z" transform="translate(-785.059 -100.881)" fill="#fff"/>
    </g>
    <g id="Group_24" data-name="Group 24" transform="translate(1224.795 299.887)">
      <path id="Path_11" data-name="Path 11" d="M801.044,117.948a2.924,2.924,0,1,1-2.926-2.922,2.924,2.924,0,0,1,2.926,2.922Z" transform="translate(-795.196 -115.026)" fill="#fff"/>
    </g>
    <g id="Group_25" data-name="Group 25" transform="translate(1186.581 378.798)">
      <path id="Path_12" data-name="Path 12" d="M790.778,139.151a2.924,2.924,0,1,1-2.925-2.926,2.924,2.924,0,0,1,2.925,2.926Z" transform="translate(-784.93 -136.225)" fill="#fff"/>
    </g>
    <g id="Group_26" data-name="Group 26" transform="translate(1254.63 404.312)">
      <path id="Path_13" data-name="Path 13" d="M809.059,146a2.924,2.924,0,1,1-2.922-2.926A2.924,2.924,0,0,1,809.059,146Z" transform="translate(-803.211 -143.079)" fill="#fff"/>
    </g>
    <g id="Group_27" data-name="Group 27" transform="translate(1236.569 483.473)">
      <path id="Path_14" data-name="Path 14" d="M804.211,167.271a2.926,2.926,0,1,1-2.926-2.926,2.926,2.926,0,0,1,2.926,2.926Z" transform="translate(-798.359 -164.345)" fill="#fff"/>
    </g>
    <g id="Group_28" data-name="Group 28" transform="translate(1117.067 468.671)">
      <path id="Path_15" data-name="Path 15" d="M772.056,162.763a2.924,2.924,0,1,1-3.406-2.345A2.924,2.924,0,0,1,772.056,162.763Z" transform="translate(-766.256 -160.369)" fill="#fff"/>
    </g>
    <g id="Group_30" data-name="Group 30" transform="translate(738.173 312.136)">
      <g id="Group_29" data-name="Group 29">
        <rect id="Rectangle_8" data-name="Rectangle 8" width="1.5" height="185.181" fill="#231f20"/>
      </g>
    </g>
    <g id="Group_32" data-name="Group 32" transform="translate(703.457 327.734)">
      <g id="Group_31" data-name="Group 31">
        <rect id="Rectangle_9" data-name="Rectangle 9" width="1.5" height="163.42" fill="#231f20"/>
      </g>
    </g>
    <g id="Group_34" data-name="Group 34" transform="translate(778.525 340.777)">
      <g id="Group_33" data-name="Group 33">
        <rect id="Rectangle_10" data-name="Rectangle 10" width="1.5" height="163.421" fill="#231f20"/>
      </g>
    </g>
    <g id="Group_37" data-name="Group 37" transform="translate(679.683 486.443)">
      <path id="Path_16" data-name="Path 16" d="M779.052,165.143h-130.3a74.538,74.538,0,0,0,24.259,26.332V332.92H754.8V191.479a74.573,74.573,0,0,0,24.252-26.336Z" transform="translate(-648.756 -165.143)" fill="#556ee6"/>
      <g id="Group_36" data-name="Group 36" clip-path="url(#clip-path-2)">
        <g id="Group_35" data-name="Group 35" transform="translate(10.993 26.793)">
          <rect id="Rectangle_11" data-name="Rectangle 11" width="158.22" height="1.632" fill="#fff"/>
        </g>
      </g>
    </g>
    <g id="Group_38" data-name="Group 38" transform="translate(637.396 217.771)">
      <path id="Path_18" data-name="Path 18" d="M795.447,118.111c-14.863-31.856-62.038-36.372-82.824,3.54-17.7,33.982-59.737,22.037-71.5,53.8-21.24,57.34,53.834,79.325,85.657,49.553,21.947-20.529,49.888-8.316,74.333,11.327,39.643,31.856,101.235-36.1,62.3-67.96C833.192,143.65,813.765,157.363,795.447,118.111Z" transform="translate(-637.396 -92.966)" fill="#556ee6"/>
    </g>
    <g id="Group_39" data-name="Group 39" transform="translate(685.205 438.994)">
      <path id="Path_19" data-name="Path 19" d="M652.628,160.942c-6.939,5.814,1.776,21.311,19.182,18.113s26.29-11.364,16.69-20.246S665.772,149.931,652.628,160.942Z" transform="translate(-650.239 -152.396)" fill="#1e92e0"/>
    </g>
    <g id="Group_40" data-name="Group 40" transform="translate(734.439 398.695)">
      <path id="Path_20" data-name="Path 20" d="M665.306,151.974c11.859-21.746,30.04-3.521,41.371,2.018,22.707,11.1,26.4-3.451,38.348,2.524,12.109,6.053,7.065,21.694-18.668,26.236C703.993,186.7,653.193,174.174,665.306,151.974Z" transform="translate(-663.466 -141.57)" fill="#1e92e0"/>
    </g>
    <g id="Group_41" data-name="Group 41" transform="translate(742.788 68.474)">
      <rect id="Rectangle_12" data-name="Rectangle 12" width="470.406" height="352.189" rx="9.562" fill="#b8deff"/>
    </g>
    <g id="Group_42" data-name="Group 42" transform="translate(779.342 123.863)">
      <rect id="Rectangle_13" data-name="Rectangle 13" width="298.12" height="9.724" fill="#fff"/>
    </g>
    <g id="Group_43" data-name="Group 43" transform="translate(779.342 201.113)">
      <rect id="Rectangle_14" data-name="Rectangle 14" width="298.12" height="9.724" fill="#fff"/>
    </g>
    <g id="Group_44" data-name="Group 44" transform="translate(779.342 278.363)">
      <rect id="Rectangle_15" data-name="Rectangle 15" width="298.12" height="9.724" fill="#fff"/>
    </g>
    <g id="Group_45" data-name="Group 45" transform="translate(779.342 355.613)">
      <rect id="Rectangle_16" data-name="Rectangle 16" width="298.12" height="9.724" fill="#fff"/>
    </g>
    <g id="Group_46" data-name="Group 46" transform="translate(1102.214 105.009)">
      <rect id="Rectangle_17" data-name="Rectangle 17" width="46.489" height="46.49" rx="2.136" fill="#fff"/>
    </g>
    <g id="Group_47" data-name="Group 47" transform="translate(1102.214 181.714)">
      <rect id="Rectangle_18" data-name="Rectangle 18" width="46.489" height="46.489" rx="2.136" fill="#fff"/>
    </g>
    <g id="Group_48" data-name="Group 48" transform="translate(1102.214 258.42)">
      <rect id="Rectangle_19" data-name="Rectangle 19" width="46.489" height="46.489" rx="2.136" fill="#fff"/>
    </g>
    <g id="Group_49" data-name="Group 49" transform="translate(1102.214 335.126)">
      <rect id="Rectangle_20" data-name="Rectangle 20" width="46.489" height="46.489" rx="2.136" fill="#fff"/>
    </g>
    <g id="Group_50" data-name="Group 50" transform="translate(1100.298 270.896)">
      <rect id="Rectangle_21" data-name="Rectangle 21" width="30.453" height="11.291" transform="translate(0 21.533) rotate(-45)" fill="#eb2929"/>
    </g>
    <g id="Group_51" data-name="Group 51" transform="translate(1092.541 286.249)">
      <path id="Path_21" data-name="Path 21" d="M772.42,136.748c4.981-1.433,13.5-9.511,12.143-13.427-1.329-3.838-4.43-14.983-11.793-11.178l-13.1,9.18,6.4,17.253Z" transform="translate(-759.667 -111.362)" fill="#e99a9d"/>
    </g>
    <g id="Group_52" data-name="Group 52" transform="translate(840.544 412.523)">
      <path id="Path_22" data-name="Path 22" d="M731.167,145.285H836.355l11.472,122.036L833.549,370H791.522l17.138-92.07s-14.123-61.453-16.14-83.46H778.594l-7.471,85.091-35.907,89.763H691.97l37.537-97.107s1.467-97.929,1.738-112.439C730.709,157.238,731.167,145.285,731.167,145.285Z" transform="translate(-691.97 -145.285)" fill="#8396f1"/>
    </g>
    <g id="Group_53" data-name="Group 53" transform="translate(866.522 251.625)">
      <path id="Path_23" data-name="Path 23" d="M712.168,262.959H817.356l13.133-139.717c1.176-11.4-9.838-21.181-23.849-21.181H722.885c-14.011,0-25.026,9.783-23.85,21.181Z" transform="translate(-698.949 -102.061)" fill="#8396f1"/>
    </g>
    <g id="Group_54" data-name="Group 54" transform="translate(914.319 225.813)">
      <path id="Path_24" data-name="Path 24" d="M730.312,135.743c-18.631,0-18.523-12.671-18.523-15.716V99.408c0-4.668,6.965-4.273,11.108-4.273h13.341c4.143,0,11.108,3.786,11.108,8.454v16.438C747.346,123.038,745.384,135.743,730.312,135.743Z" transform="translate(-711.789 -95.127)" fill="#ffb3b6"/>
    </g>
    <g id="Group_55" data-name="Group 55" transform="translate(898.276 168.726)">
      <path id="Path_25" data-name="Path 25" d="M770.666,136.864c-5.356,18.128-20.518,15.351-38.65,9.995a34.232,34.232,0,1,1,19.4-65.657C769.549,86.559,776.023,118.732,770.666,136.864Z" transform="translate(-707.479 -79.791)" fill="#ffb3b6"/>
    </g>
    <g id="Group_56" data-name="Group 56" transform="translate(976.312 256.8)">
      <path id="Path_26" data-name="Path 26" d="M750.711,114.957l28.015,55.721L844.01,141.3c0-1.8,15.459,13.747,13.055,17.953-3.9,6.823-48.961,33.457-72.922,52.393-13.4,10.594-46.206-32.936-48.083-36.059-2.993-4.992-7.05-35.906-7.612-53.156a7.582,7.582,0,0,1,6.809-7.787l6.213-11.182C744.911,103.108,749.5,111.714,750.711,114.957Z" transform="translate(-728.443 -103.451)" fill="#8396f1"/>
    </g>
    <g id="Group_57" data-name="Group 57" transform="translate(805.45 256.211)">
      <path id="Path_27" data-name="Path 27" d="M752.367,103.293s-48.637,51.876-65.794,68.217c-9.466,9.016,0,15.776,5.409,22.536,15,18.75,63.56,52.293,63.56,52.293l-2.706-28.4-29.3-34.261s41.211-31.827,42.588-34.116c3.748-6.254.625-33.766.625-33.766Z" transform="translate(-682.542 -103.293)" fill="#8396f1"/>
    </g>
    <g id="Group_58" data-name="Group 58" transform="translate(951.368 636.952)">
      <path id="Path_28" data-name="Path 28" d="M742.167,205.576H721.742v15.668h41.427c2.732,0,3.674-6.142,1.281-7.467Z" transform="translate(-721.742 -205.576)" fill="#03053f"/>
    </g>
    <g id="Group_59" data-name="Group 59" transform="translate(854.261 636.952)">
      <path id="Path_29" data-name="Path 29" d="M716.08,205.576H695.655v15.668h41.427c2.732,0,3.674-6.142,1.28-7.467Z" transform="translate(-695.655 -205.576)" fill="#03053f"/>
    </g>
    <g id="Group_63" data-name="Group 63" transform="translate(866.522 251.625)">
      <g id="Group_62" data-name="Group 62" clip-path="url(#clip-path-3)">
        <g id="Group_60" data-name="Group 60" transform="translate(122.983 40.225)">
          <rect id="Rectangle_22" data-name="Rectangle 22" width="1.632" height="76.281" fill="#8396f1"/>
        </g>
        <g id="Group_61" data-name="Group 61" transform="translate(3.628 43.944)">
          <rect id="Rectangle_23" data-name="Rectangle 23" width="1.632" height="75.387" transform="translate(0 0.103) rotate(-3.612)" fill="#8396f1"/>
        </g>
      </g>
    </g>
    <g id="Group_64" data-name="Group 64" transform="translate(1121.831 268.166)">
      <path id="Path_31" data-name="Path 31" d="M767.535,109.235l7.985,7.984,3.226-8.326L776.6,106.5Z" transform="translate(-767.535 -106.504)" fill="#fee2e3"/>
    </g>
    <g id="Group_65" data-name="Group 65" transform="translate(1130.897 266.128)">
      <path id="Path_32" data-name="Path 32" d="M769.971,107.993l2.144,2.39s3.045-2.885,1.872-4.057C772.584,104.919,769.971,107.993,769.971,107.993Z" transform="translate(-769.971 -105.957)" fill="#0e24a5"/>
    </g>
    <g id="Group_83" data-name="Group 83" transform="translate(840.544 412.523)">
      <g id="Group_82" data-name="Group 82" clip-path="url(#clip-path-4)">
        <g id="Group_81" data-name="Group 81" transform="translate(-19.313 6.705)">
          <g id="Group_66" data-name="Group 66">
            <rect id="Rectangle_24" data-name="Rectangle 24" width="189.861" height="4.179" fill="#03053f"/>
          </g>
          <g id="Group_67" data-name="Group 67" transform="translate(0 14.627)">
            <rect id="Rectangle_25" data-name="Rectangle 25" width="189.861" height="4.18" fill="#03053f"/>
          </g>
          <g id="Group_68" data-name="Group 68" transform="translate(0 29.255)">
            <rect id="Rectangle_26" data-name="Rectangle 26" width="189.861" height="4.179" fill="#03053f"/>
          </g>
          <g id="Group_69" data-name="Group 69" transform="translate(0 43.883)">
            <rect id="Rectangle_27" data-name="Rectangle 27" width="189.861" height="4.179" fill="#03053f"/>
          </g>
          <g id="Group_70" data-name="Group 70" transform="translate(0 58.511)">
            <rect id="Rectangle_28" data-name="Rectangle 28" width="189.861" height="4.179" fill="#03053f"/>
          </g>
          <g id="Group_71" data-name="Group 71" transform="translate(0 73.138)">
            <rect id="Rectangle_29" data-name="Rectangle 29" width="189.861" height="4.179" fill="#03053f"/>
          </g>
          <g id="Group_72" data-name="Group 72" transform="translate(0 87.766)">
            <rect id="Rectangle_30" data-name="Rectangle 30" width="189.861" height="4.179" fill="#03053f"/>
          </g>
          <g id="Group_73" data-name="Group 73" transform="translate(0 102.393)">
            <rect id="Rectangle_31" data-name="Rectangle 31" width="189.861" height="4.179" fill="#03053f"/>
          </g>
          <g id="Group_74" data-name="Group 74" transform="translate(0 117.021)">
            <rect id="Rectangle_32" data-name="Rectangle 32" width="189.861" height="4.18" fill="#03053f"/>
          </g>
          <g id="Group_75" data-name="Group 75" transform="translate(0 131.649)">
            <rect id="Rectangle_33" data-name="Rectangle 33" width="189.861" height="4.179" fill="#03053f"/>
          </g>
          <g id="Group_76" data-name="Group 76" transform="translate(0 146.277)">
            <rect id="Rectangle_34" data-name="Rectangle 34" width="189.861" height="4.179" fill="#03053f"/>
          </g>
          <g id="Group_77" data-name="Group 77" transform="translate(0 160.904)">
            <rect id="Rectangle_35" data-name="Rectangle 35" width="189.861" height="4.18" fill="#03053f"/>
          </g>
          <g id="Group_78" data-name="Group 78" transform="translate(0 175.532)">
            <rect id="Rectangle_36" data-name="Rectangle 36" width="189.861" height="4.18" fill="#03053f"/>
          </g>
          <g id="Group_79" data-name="Group 79" transform="translate(0 190.159)">
            <rect id="Rectangle_37" data-name="Rectangle 37" width="189.861" height="4.179" fill="#03053f"/>
          </g>
          <g id="Group_80" data-name="Group 80" transform="translate(0 204.787)">
            <rect id="Rectangle_38" data-name="Rectangle 38" width="189.861" height="4.18" fill="#03053f"/>
          </g>
        </g>
      </g>
    </g>
    <g id="Group_84" data-name="Group 84" transform="translate(893.8 146.679)">
      <path id="Path_34" data-name="Path 34" d="M745.5,139.692c5.7-2.442-3.589-11.476,3.536-16.591,10.609-7.616,19.587-11.152,21.761-24.754,2.412-15.061-14.142-24.479-16.863-24.479s5.71,4.352-3.536,10.881c-7.762,5.476-41.889,14.413-43.794,36.99-1.928,22.874,4.9,29.921,13.6,34.272s-2.721-9.247,4.352-17.95S741.693,141.322,745.5,139.692Z" transform="translate(-706.277 -73.868)" fill="#03053f"/>
    </g>
    <g id="Group_87" data-name="Group 87" transform="translate(1107.159 119.892)">
      <g id="Group_85" data-name="Group 85" transform="translate(0 0.001)">
        <rect id="Rectangle_39" data-name="Rectangle 39" width="5.38" height="25.43" transform="translate(0 3.804) rotate(-45)" fill="#1d81ce"/>
      </g>
      <g id="Group_86" data-name="Group 86" transform="translate(14.346)">
        <rect id="Rectangle_40" data-name="Rectangle 40" width="25.431" height="5.38" transform="translate(0 17.983) rotate(-45.003)" fill="#1d81ce"/>
      </g>
    </g>
    <g id="Group_90" data-name="Group 90" transform="translate(1107.159 196.19)">
      <g id="Group_88" data-name="Group 88" transform="translate(0 0.001)">
        <rect id="Rectangle_41" data-name="Rectangle 41" width="5.38" height="25.43" transform="translate(0 3.804) rotate(-45)" fill="#1d81ce"/>
      </g>
      <g id="Group_89" data-name="Group 89" transform="translate(14.346)">
        <rect id="Rectangle_42" data-name="Rectangle 42" width="25.431" height="5.38" transform="translate(0 17.983) rotate(-45.003)" fill="#1d81ce"/>
      </g>
    </g>
    <g id="Group_91" data-name="Group 91" transform="translate(797.837 47.123)">
      <path id="Path_35" data-name="Path 35" d="M695.733,90.646a7.617,7.617,0,0,1-7.619,7.616h0a7.618,7.618,0,0,1-7.616-7.616V54.739a7.618,7.618,0,0,1,7.616-7.616h0a7.617,7.617,0,0,1,7.62,7.616Z" transform="translate(-680.497 -47.123)" fill="#2b74d3"/>
    </g>
    <g id="Group_92" data-name="Group 92" transform="translate(1152.535 47.123)">
      <path id="Path_36" data-name="Path 36" d="M791.016,90.646a7.616,7.616,0,0,1-7.616,7.616h0a7.616,7.616,0,0,1-7.616-7.616V54.739a7.616,7.616,0,0,1,7.616-7.616h0a7.616,7.616,0,0,1,7.616,7.616Z" transform="translate(-775.784 -47.123)" fill="#2b74d3"/>
    </g>
  </g>
</svg>
