<svg xmlns="http://www.w3.org/2000/svg" xmlns:xlink="http://www.w3.org/1999/xlink" width="1092.255" height="734.01" viewBox="0 0 1092.255 734.01">
  <defs>
    <clipPath id="clip-path">
      <rect id="Rectangle_544" data-name="Rectangle 544" width="780.632" height="565.467" fill="none"/>
    </clipPath>
    <linearGradient id="linear-gradient" x1="-0.38" y1="1.288" x2="2.404" y2="-1.384" gradientUnits="objectBoundingBox">
      <stop offset="0" stop-color="#fe7062"/>
      <stop offset="1" stop-color="#ff928e"/>
    </linearGradient>
    <linearGradient id="linear-gradient-2" x1="0.306" y1="0.889" x2="1.263" y2="-0.936" xlink:href="#linear-gradient"/>
  </defs>
  <g id="Group_1729" data-name="Group 1729" transform="translate(-413.381 -176.185)">
    <g id="Group_1611" data-name="Group 1611" transform="translate(533.119 384.06)">
      <g id="Group_1610" data-name="Group 1610">
        <line id="Line_13" data-name="Line 13" x2="848.784" transform="translate(0 55.64)" fill="none" stroke="#739af0" stroke-miterlimit="10" stroke-width="1.968"/>
        <rect id="Rectangle_530" data-name="Rectangle 530" width="848.784" height="525.151" rx="6.521" fill="none" stroke="#739af0" stroke-miterlimit="10" stroke-width="1.968"/>
        <g id="Group_1609" data-name="Group 1609" transform="translate(40.409 20.624)">
          <path id="Path_1661" data-name="Path 1661" d="M165.28,145.84a7.764,7.764,0,1,1-7.764-7.763,7.764,7.764,0,0,1,7.764,7.763Z" transform="translate(-149.751 -138.077)" fill="#282828"/>
          <path id="Path_1662" data-name="Path 1662" d="M183.031,145.84a7.763,7.763,0,1,1-7.763-7.763,7.763,7.763,0,0,1,7.763,7.763Z" transform="translate(-137.329 -138.077)" fill="#282828"/>
          <path id="Path_1663" data-name="Path 1663" d="M200.785,145.84a7.764,7.764,0,1,1-7.764-7.763,7.764,7.764,0,0,1,7.764,7.763Z" transform="translate(-124.908 -138.077)" fill="#282828"/>
        </g>
      </g>
    </g>
    <g id="Group_1620" data-name="Group 1620" transform="translate(1282.502 422.252)">
      <g id="Group_1614" data-name="Group 1614">
        <g id="Group_1613" data-name="Group 1613">
          <g id="Group_1612" data-name="Group 1612">
            <rect id="Rectangle_531" data-name="Rectangle 531" width="219.847" height="204.855" rx="5.991" fill="#f3f7ff"/>
            <rect id="Rectangle_532" data-name="Rectangle 532" width="219.847" height="204.855" rx="5.991" fill="#f3f7ff" stroke="#739af0" stroke-miterlimit="10" stroke-width="1.968"/>
          </g>
        </g>
      </g>
    </g>
    <g id="Group_1622" data-name="Group 1622" transform="translate(414.365 596.305)">
      <g id="Group_1621" data-name="Group 1621">
        <rect id="Rectangle_534" data-name="Rectangle 534" width="209.664" height="185.288" rx="5.713" fill="#f3f7ff"/>
        <rect id="Rectangle_535" data-name="Rectangle 535" width="209.664" height="185.288" rx="5.713" fill="none" stroke="#739af0" stroke-miterlimit="10" stroke-width="1.968"/>
      </g>
    </g>
    <g id="Group_1638" data-name="Group 1638" transform="translate(424.184 230)">
      <path id="Path_1667" data-name="Path 1667" d="M240.683,102.74H68.334a6.448,6.448,0,0,1-6.447-6.446h0a6.448,6.448,0,0,1,6.446-6.447h172.35a6.447,6.447,0,0,1,6.447,6.447h0A6.447,6.447,0,0,1,240.683,102.74Z" transform="translate(-61.887 2.86)" fill="#6f83e9"/>
      <path id="Path_1668" data-name="Path 1668" d="M731.44,350.424H647.789a6.447,6.447,0,0,1-6.447-6.447h0a6.447,6.447,0,0,1,6.447-6.447H731.44a6.448,6.448,0,0,1,6.447,6.446h0a6.448,6.448,0,0,1-6.446,6.447Z" transform="translate(343.565 176.167)" fill="#6f83e9"/>
      <rect id="Rectangle_537" data-name="Rectangle 537" width="19.949" height="19.322" rx="2.861" transform="translate(1001.332 581.848)" fill="#2b478b"/>
      <rect id="Rectangle_538" data-name="Rectangle 538" width="19.949" height="19.322" rx="2.861" transform="translate(32.416 626.513)" fill="#2b478b"/>
      <g id="Group_1630" data-name="Group 1630" transform="translate(609.008 40.168)">
        <g id="Group_1629" data-name="Group 1629">
          <rect id="Rectangle_539" data-name="Rectangle 539" width="202.948" height="58.259" rx="3.012" fill="#739af0"/>
          <g id="Group_1628" data-name="Group 1628" transform="translate(27.643 20.759)">
            <line id="Line_14" data-name="Line 14" x2="136.139" fill="none" stroke="#fff" stroke-miterlimit="10" stroke-width="5"/>
            <line id="Line_15" data-name="Line 15" x2="55.452" transform="translate(0 13.973)" fill="none" stroke="#fff" stroke-miterlimit="10" stroke-width="5"/>
          </g>
        </g>
        <path id="Path_1669" data-name="Path 1669" d="M458.571,90.068v22.7l28.554-22.7Z" transform="translate(-436.465 -38.4)" fill="#739af0"/>
      </g>
    </g>
    <g id="Group_1700" data-name="Group 1700" transform="translate(611.303 342.372)">
      <g id="Group_1699" data-name="Group 1699" clip-path="url(#clip-path)">
        <g id="Group_1698" data-name="Group 1698" transform="translate(5.103 6.861)">
          <g id="Group_1660" data-name="Group 1660" transform="translate(437.279 21.603)">
            <g id="Group_1640" data-name="Group 1640" transform="translate(9.52 339.193)">
              <path id="Path_1671" data-name="Path 1671" d="M568.922,325.983l-62.041-8.261.484,6.16-53.046,7.064s-34.191,85.783-4.057,274.444h43.151l15.53-191.3h5.516L529.5,605.39h43.151C602.783,416.729,568.922,325.983,568.922,325.983Z" transform="translate(-437.845 -317.722)" fill="#b2caff"/>
            </g>
            <g id="Group_1649" data-name="Group 1649" transform="translate(0 172.619)">
              <g id="Group_1646" data-name="Group 1646" transform="translate(137.705 51.745)">
                <g id="Group_1642" data-name="Group 1642" transform="translate(0 24.227)">
                  <g id="Group_1641" data-name="Group 1641">
                    <path id="Path_1672" data-name="Path 1672" d="M552.385,272.786c-5.308-8.473-35.125-8.172-36.7-8.357-8.06-.945,5.169,63.2,21.937,119.262a18.825,18.825,0,0,0,25.372,11.969l.335-.141a18.851,18.851,0,0,0,11.177-20.857C566.532,332.354,558.525,282.581,552.385,272.786Z" transform="translate(-513.261 -264.418)" fill="#ffb1a5"/>
                  </g>
                  <path id="Path_1673" data-name="Path 1673" d="M557.6,288.389l-38.068,14.772L515.964,285.1l39.419-9.833Z" transform="translate(-511.369 -256.828)" fill="#f3978e"/>
                  <path id="Path_1674" data-name="Path 1674" d="M551.772,310.845s-18.034,24.219-17.174,23.106,14.143-39.139,14.143-39.139Z" transform="translate(-498.351 -243.151)" fill="#f3978e"/>
                </g>
                <g id="Group_1645" data-name="Group 1645" transform="translate(23.552)">
                  <path id="Path_1675" data-name="Path 1675" d="M582.771,285.092l-51.692,66.975a19.008,19.008,0,0,0,4.7,27.556h0a19.007,19.007,0,0,0,27.06-6.886l43.026-79.383Z" transform="translate(-527.117 -225.725)" fill="#ffb1a5"/>
                  <g id="Group_1643" data-name="Group 1643" transform="translate(54.259 31.109)">
                    <path id="Path_1676" data-name="Path 1676" d="M573.813,312.344a21.323,21.323,0,1,1,26.845-13.735A21.323,21.323,0,0,1,573.813,312.344Z" transform="translate(-559.039 -266.887)" fill="#ffb1a5"/>
                    <path id="Path_1677" data-name="Path 1677" d="M595.488,280.817s5.835-6.059-4.516-10.3-23.152-3.272-31.322,16.567Z" transform="translate(-558.612 -268.467)" fill="#ffb1a5"/>
                  </g>
                  <g id="Group_1644" data-name="Group 1644" transform="translate(67.627)">
                    <path id="Path_1678" data-name="Path 1678" d="M600.285,250.91l21.644,9.384a2.232,2.232,0,0,1,.979,3.189l-28.474,53.184a2.722,2.722,0,0,1-3.381,1.3l-21.644-9.384a2.231,2.231,0,0,1-.979-3.189l28.47-53.186a2.722,2.722,0,0,1,3.385-1.3Z" transform="translate(-566.053 -249.777)" fill="#372f5f"/>
                    <path id="Path_1679" data-name="Path 1679" d="M599.069,250.356l21.644,9.384a2.232,2.232,0,0,1,.979,3.189l-28.474,53.184a2.722,2.722,0,0,1-3.381,1.3l-21.644-9.384a2.23,2.23,0,0,1-.979-3.189l28.474-53.184a2.722,2.722,0,0,1,3.381-1.3Z" transform="translate(-566.904 -250.164)" fill="#261b43"/>
                    <path id="Path_1680" data-name="Path 1680" d="M593.944,253.461l19.018,8.245-23.205,43.345-19.018-8.245Z" transform="translate(-564.221 -247.858)" fill="#e6e6e6"/>
                    <path id="Path_1681" data-name="Path 1681" d="M612.962,261.706l-42.223,35.1,23.205-43.345Z" transform="translate(-564.221 -247.858)" fill="#fff"/>
                  </g>
                  <path id="Path_1682" data-name="Path 1682" d="M581.571,268.631a34.531,34.531,0,0,1,9.17,3.4,4.9,4.9,0,0,1,2.366,5.436h0a4.863,4.863,0,0,1-4.11,3.649l-11.252,1.419s-5.871,10.118-13.542,11.255l7.037-17.767Z" transform="translate(-501.167 -237.243)" fill="#ffb1a5"/>
                </g>
              </g>
              <g id="Group_1648" data-name="Group 1648">
                <g id="Group_1647" data-name="Group 1647">
                  <path id="Path_1683" data-name="Path 1683" d="M530.2,219.721c-1.242-.007,79.795,11.213,93.166,103.6l-42.051,6.444-8.478,69.749h-117.3l-23.29-128.868s25.99-37.248,74.247-50.925Z" transform="translate(-432.244 -219.721)" fill="#2a468a"/>
                  <line id="Line_17" data-name="Line 17" y1="40.34" x2="3.65" transform="translate(149.076 69.707)" fill="none" stroke="#282828" stroke-linecap="round" stroke-linejoin="round" stroke-width="1.233"/>
                </g>
              </g>
            </g>
            <g id="Group_1659" data-name="Group 1659" transform="translate(36.526)">
              <path id="Path_1684" data-name="Path 1684" d="M514.049,233.709V201.617H476.441v32.47a73.045,73.045,0,0,0-10.1,4.1l29.332,17.471,29.986-17.473a48.923,48.923,0,0,0-11.61-4.476Z" transform="translate(-444.913 -59.769)" fill="#ffb1a5"/>
              <path id="Path_1685" data-name="Path 1685" d="M472.077,208s6.755,17.934,24.784,16.385c16.572-1.423,13.934-26.278,13.934-26.278Z" transform="translate(-440.898 -62.227)" fill="#282828"/>
              <g id="Group_1652" data-name="Group 1652" transform="translate(0 99.392)">
                <path id="Path_1686" data-name="Path 1686" d="M468.51,199.164c-5.895,5.347-19.076-14.934-13.38-20.628s10.04,3.24,10.04,3.24l2.544,6.053,1.917,8.2.457,2.148Z" transform="translate(-453.733 -176.639)" fill="#f3978e"/>
                <g id="Group_1651" data-name="Group 1651" transform="translate(4.15 8.787)">
                  <g id="Group_1650" data-name="Group 1650">
                    <path id="Path_1687" data-name="Path 1687" d="M456.175,182.1s4.462-2.007,8.425,4.462" transform="translate(-456.175 -181.809)" fill="none" stroke="#282828" stroke-linecap="round" stroke-linejoin="round" stroke-width="0.993"/>
                  </g>
                </g>
              </g>
              <g id="Group_1655" data-name="Group 1655" transform="translate(83 99.65)">
                <path id="Path_1688" data-name="Path 1688" d="M504.054,198.442c5.42,5.827,20.269-13.266,15.076-19.421s-10.28,2.378-10.28,2.378l-3.044,5.816-2.606,8.007-.636,2.1Z" transform="translate(-502.565 -176.791)" fill="#f3978e"/>
                <g id="Group_1654" data-name="Group 1654" transform="translate(4.441 8.7)">
                  <g id="Group_1653" data-name="Group 1653">
                    <path id="Path_1689" data-name="Path 1689" d="M513.952,182.365s-4.276-2.378-8.774,3.733" transform="translate(-505.178 -181.909)" fill="none" stroke="#282828" stroke-linecap="round" stroke-linejoin="round" stroke-width="0.993"/>
                  </g>
                </g>
              </g>
              <g id="Group_1656" data-name="Group 1656" transform="translate(4.438 36.835)">
                <path id="Path_1690" data-name="Path 1690" d="M456.344,184.944c0,26.845,20.468,39.574,45.717,39.574s45.715-12.729,45.715-39.574-20.468-45.11-45.715-45.11S456.344,158.1,456.344,184.944Z" transform="translate(-456.344 -139.834)" fill="#282828"/>
              </g>
              <path id="Path_1691" data-name="Path 1691" d="M460.012,184.271a183.531,183.531,0,0,0,4.654,40.8c2.276,9.882,8.679,16.788,17.728,22.346l1.649,1.013a31.113,31.113,0,0,0,31.669.35h0c9.8-5.716,16.671-13.253,18.782-23.857,3.843-19.287,4.263-40.649,4.263-40.649s3.656-41.6-38.81-40.795S460.012,184.271,460.012,184.271Z" transform="translate(-449.36 -100.459)" fill="#ffb1a5"/>
              <g id="Group_1658" data-name="Group 1658" transform="translate(9.774 80.707)">
                <path id="Path_1692" data-name="Path 1692" d="M481.648,181.441V187.2a2.619,2.619,0,0,0,.185.967,2.566,2.566,0,0,0,3.058,1.414l2.641-.7" transform="translate(-443.975 -154.594)" fill="none" stroke="#282828" stroke-linecap="round" stroke-linejoin="round" stroke-width="1.232"/>
                <path id="Path_1693" data-name="Path 1693" d="M486.363,169.492l-21.1,4.948s.959-5.371,9.593-7.324S486.363,169.492,486.363,169.492Z" transform="translate(-455.442 -164.971)" fill="#282828"/>
                <path id="Path_1694" data-name="Path 1694" d="M488.7,169.492l20.38,4.948s-.926-5.371-9.263-7.324S488.7,169.492,488.7,169.492Z" transform="translate(-439.043 -164.971)" fill="#282828"/>
                <ellipse id="Ellipse_143" data-name="Ellipse 143" cx="3.559" cy="3.55" rx="3.559" ry="3.55" transform="translate(19.343 16.476)" fill="#282828"/>
                <path id="Path_1695" data-name="Path 1695" d="M497.834,178.89a3.559,3.559,0,1,1-3.559-3.551,3.559,3.559,0,0,1,3.559,3.551Z" transform="translate(-437.63 -158.863)" fill="#282828"/>
                <path id="Path_1696" data-name="Path 1696" d="M475.052,190.172H502.5S490.334,204.97,475.052,190.172Z" transform="translate(-448.59 -148.484)" fill="#fff"/>
                <g id="Group_1657" data-name="Group 1657">
                  <circle id="Ellipse_144" data-name="Ellipse 144" cx="15.136" cy="15.136" r="15.136" transform="translate(0 21.405) rotate(-45)" fill="none" stroke="#2a468a" stroke-miterlimit="10" stroke-width="1.342"/>
                  <circle id="Ellipse_145" data-name="Ellipse 145" cx="15.136" cy="15.136" r="15.136" transform="translate(37.183 21.405) rotate(-45)" fill="none" stroke="#2a468a" stroke-miterlimit="10" stroke-width="1.342"/>
                  <path id="Path_1697" data-name="Path 1697" d="M480.982,178.851s3.585-3.345,6.911,0" transform="translate(-444.441 -157.446)" fill="none" stroke="#2a468a" stroke-miterlimit="10" stroke-width="1.342"/>
                  <line id="Line_18" data-name="Line 18" x1="4.768" y1="0.121" transform="translate(1.502 21.284)" fill="none" stroke="#2a468a" stroke-miterlimit="10" stroke-width="1.342"/>
                  <line id="Line_19" data-name="Line 19" y1="0.121" x2="4.796" transform="translate(73.723 21.284)" fill="none" stroke="#2a468a" stroke-miterlimit="10" stroke-width="1.342"/>
                </g>
              </g>
              <path id="Path_1698" data-name="Path 1698" d="M511.626,194.609s-16.978-22.953-13.062-46.207a33.453,33.453,0,0,1,15.884,22.71C517.729,187.482,511.626,194.609,511.626,194.609Z" transform="translate(-422.775 -97.004)" fill="#282828"/>
              <path id="Path_1699" data-name="Path 1699" d="M460.956,196.807s19.723-26.07,15.807-49.324c0,0-13.679,7.9-16.961,24.272S460.956,196.807,460.956,196.807Z" transform="translate(-450.333 -97.647)" fill="#282828"/>
              <path id="Path_1700" data-name="Path 1700" d="M538.7,161.709s-21.8,23.867-81.45,19.781c0,0,9.134-35.023,38.041-38.753C495.29,142.737,528.667,138.751,538.7,161.709Z" transform="translate(-451.273 -101.153)" fill="#282828"/>
              <circle id="Ellipse_146" data-name="Ellipse 146" cx="28.48" cy="28.48" r="28.48" transform="translate(53.241 56.232) rotate(-80.831)" fill="#282828"/>
            </g>
          </g>
          <g id="Group_1674" data-name="Group 1674" transform="translate(40.004 53.41)">
            <path id="Path_1701" data-name="Path 1701" d="M353.579,327.988l-53.046-7.064.484-6.161-62.041,8.262s-33.862,90.746-3.727,279.407H278.4l15.041-191.3h5.516l15.53,191.3h43.151C387.771,413.771,353.579,327.988,353.579,327.988Z" transform="translate(-181.549 -12.406)" fill="#b2caff"/>
            <g id="Group_1669" data-name="Group 1669" transform="translate(30.846)">
              <path id="Path_1702" data-name="Path 1702" d="M353.613,193.049c-7.18-8.448-12.928-18.3-17.813-32.126-5.244-14.844-22.418-8.81-22.418-8.81s-14.31-18.41-35.844-12-29.016,21.736-29.454,39.953-14.769,21.068-25.8,42.143C202.8,259.418,235.6,290.757,295.3,282.063l.082-.58c5.878,1.785,13.084,2.565,21.879,2.043C388.981,279.269,382.06,226.515,353.613,193.049Z" transform="translate(-216.662 -135.558)" fill="#282828"/>
              <g id="Group_1663" data-name="Group 1663" transform="translate(111.893 62.557)">
                <path id="Path_1703" data-name="Path 1703" d="M284.071,196.206c5.895,5.346,19.076-14.934,13.38-20.628s-10.042,3.24-10.042,3.24l-2.543,6.053-1.917,8.2-.457,2.147Z" transform="translate(-282.492 -173.68)" fill="#f3978e"/>
                <g id="Group_1662" data-name="Group 1662" transform="translate(3.78 8.788)">
                  <g id="Group_1661" data-name="Group 1661">
                    <path id="Path_1704" data-name="Path 1704" d="M293.141,179.145s-4.462-2.007-8.425,4.46" transform="translate(-284.716 -178.851)" fill="none" stroke="#282828" stroke-linecap="round" stroke-linejoin="round" stroke-width="0.993"/>
                  </g>
                </g>
              </g>
              <g id="Group_1666" data-name="Group 1666" transform="translate(27.599 62.814)">
                <path id="Path_1705" data-name="Path 1705" d="M249.06,195.485c-5.42,5.825-20.269-13.266-15.076-19.423s10.28,2.38,10.28,2.38l3.044,5.816,2.606,8.007.636,2.1Z" transform="translate(-232.899 -173.832)" fill="#f3978e"/>
                <g id="Group_1665" data-name="Group 1665" transform="translate(4.435 8.701)">
                  <g id="Group_1664" data-name="Group 1664">
                    <path id="Path_1706" data-name="Path 1706" d="M235.508,179.406s4.276-2.378,8.774,3.733" transform="translate(-235.508 -178.951)" fill="none" stroke="#282828" stroke-linecap="round" stroke-linejoin="round" stroke-width="0.993"/>
                  </g>
                </g>
              </g>
              <g id="Group_1667" data-name="Group 1667" transform="translate(32.379)">
                <path id="Path_1707" data-name="Path 1707" d="M327.142,181.985c0,26.845-20.466,39.576-45.715,39.576s-45.715-12.731-45.715-39.576,20.468-45.109,45.715-45.109S327.142,155.139,327.142,181.985Z" transform="translate(-235.711 -136.876)" fill="#282828"/>
              </g>
              <rect id="Rectangle_541" data-name="Rectangle 541" width="37.608" height="48.699" transform="translate(59.113 105.013)" fill="#ffb1a5"/>
              <path id="Path_1708" data-name="Path 1708" d="M248.211,196.872s10.469,20.893,23.347,24.155a18.126,18.126,0,0,0,10.433-.6c4.848-1.718,11-8.944,12.039-16.941l.486-4.569S271.6,211.391,248.211,196.872Z" transform="translate(-194.586 -94.896)" fill="#282828"/>
              <path id="Path_1709" data-name="Path 1709" d="M318.3,181.313a183.5,183.5,0,0,1-4.654,40.795c-2.276,9.882-8.679,16.788-17.728,22.348l-1.649,1.011a31.113,31.113,0,0,1-31.669.352h0c-9.806-5.716-16.671-13.253-18.784-23.857-3.841-19.287-4.261-40.649-4.261-40.649s-3.656-41.6,38.81-40.795S318.3,181.313,318.3,181.313Z" transform="translate(-200.7 -134.336)" fill="#ffb1a5"/>
              <g id="Group_1668" data-name="Group 1668" transform="translate(49.36 47.305)">
                <path id="Path_1710" data-name="Path 1710" d="M260.938,179.808v3.42a2.609,2.609,0,0,0,.185.965,2.569,2.569,0,0,0,3.058,1.409l2.641-.7" transform="translate(-235.041 -154.141)" fill="none" stroke="#282828" stroke-linecap="round" stroke-linejoin="round" stroke-width="1.23"/>
                <path id="Path_1711" data-name="Path 1711" d="M266.144,167.822l22.593,5.347s-1.027-5.806-10.27-7.916S266.144,167.822,266.144,167.822Z" transform="translate(-231.398 -164.707)" fill="#282828"/>
                <path id="Path_1712" data-name="Path 1712" d="M268.585,167.822,245.7,173.17s1.04-5.806,10.4-7.916S268.585,167.822,268.585,167.822Z" transform="translate(-245.702 -164.707)" fill="#282828"/>
                <path id="Path_1713" data-name="Path 1713" d="M257.272,176.247a3.559,3.559,0,1,1-3.559-3.539,3.559,3.559,0,0,1,3.559,3.539Z" transform="translate(-242.587 -159.109)" fill="#282828"/>
                <path id="Path_1714" data-name="Path 1714" d="M277.124,176.247a3.559,3.559,0,1,1-3.559-3.539,3.559,3.559,0,0,1,3.559,3.539Z" transform="translate(-228.696 -159.109)" fill="#282828"/>
                <path id="Path_1715" data-name="Path 1715" d="M252.959,186.7H284.2s-2.2,8.584-16.37,8.584a16.569,16.569,0,0,1-14.871-8.584Z" transform="translate(-240.624 -149.319)" fill="#fff"/>
              </g>
              <path id="Path_1716" data-name="Path 1716" d="M241.4,191.651s16.978-22.955,13.062-46.208a33.459,33.459,0,0,0-15.884,22.712C235.3,184.523,241.4,191.651,241.4,191.651Z" transform="translate(-202.003 -130.882)" fill="#282828"/>
              <path id="Path_1717" data-name="Path 1717" d="M292.584,191.529s-19.723-23.75-15.807-47c0,0,13.679,7.9,16.961,24.272S292.584,191.529,292.584,191.529Z" transform="translate(-174.958 -131.524)" fill="#282828"/>
              <path id="Path_1718" data-name="Path 1718" d="M240.679,158.751s19.482,26.186,79.13,22.1c0,0-6.814-37.343-35.721-41.072C284.088,139.779,250.711,135.793,240.679,158.751Z" transform="translate(-199.856 -135.03)" fill="#282828"/>
            </g>
            <g id="Group_1673" data-name="Group 1673" transform="translate(0 137.847)">
              <g id="Group_1671" data-name="Group 1671" transform="translate(0 76.446)">
                <g id="Group_1670" data-name="Group 1670">
                  <path id="Path_1719" data-name="Path 1719" d="M215.408,479.427c-.867,1.365,49.645-219.781,34.649-216.438-1.368.306-27.634,2.745-31.536,10.681-11.321,23.01-19.434,204.082-19.434,204.082Z" transform="translate(-198.112 -262.952)" fill="#ffb1a5"/>
                  <path id="Path_1720" data-name="Path 1720" d="M199.488,391.217s-8.142,37.774,22.637,41.9a4.325,4.325,0,0,0,4.656-2.859l.088-.257a4.32,4.32,0,0,0-2.395-5.344c-5.018-2.244-12.8-7.914-8.939-20.787,0,0,4.448-.546,6.9,7.754a3.568,3.568,0,0,0,5.016,2.2h0a3.568,3.568,0,0,0,1.931-3.649c-.738-5.813-3.663-19.8-14.881-23.56Z" transform="translate(-198.514 -176.417)" fill="#ffb1a5"/>
                </g>
                <path id="Path_1721" data-name="Path 1721" d="M205.181,313.96s29.1,40.989,29.257,40.2,10.178-57.544,10.178-57.544l-35.317-15.3Z" transform="translate(-193.848 -250.105)" fill="#f3978e"/>
              </g>
              <g id="Group_1672" data-name="Group 1672" transform="translate(6.898)">
                <path id="Path_1722" data-name="Path 1722" d="M287.872,222.834c1.242-.007-71.928,1.3-85.3,93.695l42.051,6.442,8.478,69.751H370.408L393.7,263.849s-16.557-27.921-64.815-41.6Z" transform="translate(-202.572 -214.986)" fill="#2a468a"/>
                <path id="Path_1723" data-name="Path 1723" d="M231.716,236.992s10.341,13.727,52.71,13.727c41.974,0,52.708-14.446,52.708-14.446s-24.744-13.825-53.458-18.3a190.214,190.214,0,0,0-51.96,19.019Z" transform="translate(-182.18 -217.976)" fill="#ffb1a5"/>
              </g>
            </g>
          </g>
          <g id="Group_1697" data-name="Group 1697">
            <g id="Group_1676" data-name="Group 1676" transform="translate(240.401 502.968)">
              <g id="Group_1675" data-name="Group 1675">
                <path id="Path_1724" data-name="Path 1724" d="M316.414,401.367l.1,184.258h91.153l7.005-184.258Z" transform="translate(-316.414 -401.367)" fill="#2b478b"/>
                <path id="Path_1725" data-name="Path 1725" d="M473.306,401.367l-.1,184.258H382.052l-7.005-184.258Z" transform="translate(-275.389 -401.367)" fill="#2b478b"/>
                <rect id="Rectangle_542" data-name="Rectangle 542" width="94.248" height="64.014" transform="translate(53.885)" fill="#2b478b"/>
              </g>
              <line id="Line_20" data-name="Line 20" x2="65.006" transform="translate(67.05 64.014)" fill="none" stroke="#282828" stroke-linecap="round" stroke-linejoin="round" stroke-width="1.397"/>
            </g>
            <g id="Group_1687" data-name="Group 1687" transform="translate(0 173.203)">
              <g id="Group_1678" data-name="Group 1678" transform="translate(387.392 25.213)">
                <g id="Group_1677" data-name="Group 1677" transform="translate(47.339 143.753)">
                  <path id="Path_1726" data-name="Path 1726" d="M491.918,306.763c5.652,62.437-.309,107.93,1.339,222.819l-54.406,2.278-8.106-215.051Z" transform="translate(-430.745 -306.763)" fill="#ffb1a5"/>
                  <path id="Path_1727" data-name="Path 1727" d="M434.7,348.457s33.692-3.085,56.724-18.279l-.607-13.372-56.138,7.645Z" transform="translate(-427.991 -299.735)" fill="#f3978e"/>
                </g>
                <path id="Path_1728" data-name="Path 1728" d="M402.894,222.188S509.906,249.1,529.3,384.932c0,0-52.375,22.706-104.862,12.94l11.808-45.432Z" transform="translate(-402.894 -222.188)" fill="#739af0"/>
              </g>
              <g id="Group_1685" data-name="Group 1685">
                <g id="Group_1682" data-name="Group 1682">
                  <path id="Path_1729" data-name="Path 1729" d="M228.2,255.417l79.679,94.1L283.5,418.18s-60.561-84.2-87.773-149.277Z" transform="translate(-160.46 -173.724)" fill="#ffb1a5"/>
                  <g id="Group_1681" data-name="Group 1681">
                    <g id="Group_1680" data-name="Group 1680">
                      <g id="Group_1679" data-name="Group 1679">
                        <path id="Path_1730" data-name="Path 1730" d="M240.172,280.245s-27.979,15.807-35.1,10.089c-12.437-9.993-22.713-46.57-22.713-46.57s52.321-19.725,51.829-18.955S240.172,280.245,240.172,280.245Z" transform="translate(-169.81 -195.156)" fill="#ffb1a5"/>
                        <path id="Path_1731" data-name="Path 1731" d="M220.273,278.438c-.495-2.818,10.375-33.2,14.1-44.6a5.027,5.027,0,0,0-3.979-6.333h0c-1.943-.372-5.019-.133-6.473,2.653L210.8,252.589Z" transform="translate(-149.912 -193.349)" fill="#ffb1a5"/>
                        <path id="Path_1732" data-name="Path 1732" d="M223.861,258.423l-9.01-44.828a5.643,5.643,0,0,0-6.522-4.474h0a4.859,4.859,0,0,0-3.989,5.39l3.926,33.379Z" transform="translate(-154.458 -206.183)" fill="#ffb1a5"/>
                        <path id="Path_1733" data-name="Path 1733" d="M214.539,243.06,202.3,211.049a5.615,5.615,0,0,0-6.952-3.423h0a4.839,4.839,0,0,0-3.2,5.742l9.08,36.989Z" transform="translate(-163.052 -207.354)" fill="#ffb1a5"/>
                        <path id="Path_1734" data-name="Path 1734" d="M208.461,248.3,192.98,216.844a6.154,6.154,0,0,0-7.858-3.014h0a5.362,5.362,0,0,0-2.765,7.081L194.7,250.6Z" transform="translate(-170.125 -203.153)" fill="#ffb1a5"/>
                        <path id="Path_1735" data-name="Path 1735" d="M187.531,246.449l-12.148-19.27a4.351,4.351,0,0,1,2.123-5.813h0a4.972,4.972,0,0,1,6.071,1.766l15.974,22.161Z" transform="translate(-174.978 -197.841)" fill="#ffb1a5"/>
                      </g>
                    </g>
                    <path id="Path_1736" data-name="Path 1736" d="M222.652,236.122s-18.243-1.914-20.118,22.4" transform="translate(-155.696 -187.25)" fill="none" stroke="#282828" stroke-linecap="round" stroke-linejoin="round" stroke-width="1.532"/>
                  </g>
                </g>
                <g id="Group_1684" data-name="Group 1684" transform="translate(106.88 22.859)">
                  <g id="Group_1683" data-name="Group 1683" transform="translate(0 54.865)">
                    <path id="Path_1737" data-name="Path 1737" d="M237.859,387.7s14.986,51.863,44.849,44.968,76.407-70.677,76.407-70.677L348.7,253.082,264.879,356.243Z" transform="translate(-237.859 -253.082)" fill="#ffb1a5"/>
                    <path id="Path_1738" data-name="Path 1738" d="M269.051,298.775s28.3,42.685,52.44,57.736l15.8-19.944-60.953-47.152Z" transform="translate(-216.034 -227.659)" fill="#f3978e"/>
                  </g>
                  <path id="Path_1739" data-name="Path 1739" d="M394.321,220.8s-83.082,18.726-127.356,115.285c0,0,26.75,40.307,69.635,58.222l28.712-35.174Z" transform="translate(-217.493 -220.803)" fill="#739af0"/>
                </g>
              </g>
              <g id="Group_1686" data-name="Group 1686" transform="translate(229.574 15.347)">
                <path id="Path_1740" data-name="Path 1740" d="M363.653,223.6A208.065,208.065,0,0,0,310.8,262.325l6.4,282.254H521.719l-.663-280.8s-25.779-25.229-53.719-37.528C443.605,215.8,386.725,211.763,363.653,223.6Z" transform="translate(-309.518 -216.383)" fill="#739af0"/>
                <path id="Rectangle_543" data-name="Rectangle 543" d="M0,0H56.894V40.158A16.736,16.736,0,0,1,40.158,56.894H16.736A16.736,16.736,0,0,1,0,40.158Z" transform="translate(122.464 87.854)" fill="none" stroke="#282828" stroke-linecap="round" stroke-linejoin="round" stroke-width="1.397"/>
                <line id="Line_21" data-name="Line 21" y1="92.333" x2="2.654" transform="translate(211.867 94.265)" fill="none" stroke="#282828" stroke-linecap="round" stroke-linejoin="round" stroke-width="1.397"/>
                <line id="Line_22" data-name="Line 22" x1="4.419" y1="80.038" transform="translate(0 91.172)" fill="none" stroke="#282828" stroke-linecap="round" stroke-linejoin="round" stroke-width="1.397"/>
              </g>
            </g>
            <g id="Group_1696" data-name="Group 1696" transform="translate(267.568)">
              <path id="Path_1741" data-name="Path 1741" d="M347.211,190.671l-8.526-42.178c-.479-3.435-1.812-8.737-.18-13.718,2.7-8.242,12.625-24.07,29.587-16.822l3.668,16.7s-17.616,3.556-24.683,26.6Z" transform="translate(-328.674 -98.002)" fill="#282828"/>
              <path id="Path_1742" data-name="Path 1742" d="M365.3,122.313c-.308,5.541-5.2,29.789-22.4,38.624C342.908,160.937,327.845,128.633,365.3,122.313Z" transform="translate(-327.137 -93.656)" fill="#282828"/>
              <path id="Path_1743" data-name="Path 1743" d="M425.616,245.542h0V173.921H359.593v71.621L339.939,254.5s4.61,29.684,53.359,30.342,53.646-28.882,53.646-28.882Z" transform="translate(-327.12 -57.545)" fill="#ffb1a5"/>
              <path id="Path_1744" data-name="Path 1744" d="M355.588,125.4s12.117-31.966,49.482-14.973c22.615,10.285,28.949,24.076,31.645,33.846a39.31,39.31,0,0,1,1.008,11.4l-9.037,42.447L393.4,139.394,359.256,142.1Z" transform="translate(-316.17 -105.453)" fill="#282828"/>
              <g id="Group_1690" data-name="Group 1690" transform="translate(108.596 88.109)">
                <path id="Path_1745" data-name="Path 1745" d="M400.208,161.852s4.452-7.079,13.632-3.6,5.028,25.78-8.743,28.62a10.892,10.892,0,0,1-8.808-2.3S399.674,168.1,400.208,161.852Z" transform="translate(-396.288 -157.291)" fill="#f3978e"/>
                <g id="Group_1689" data-name="Group 1689" transform="translate(2.582 8.579)">
                  <g id="Group_1688" data-name="Group 1688">
                    <path id="Path_1746" data-name="Path 1746" d="M410.956,162.588s-7.691-2.567-13.149,8.759" transform="translate(-397.807 -162.338)" fill="none" stroke="#282828" stroke-linecap="round" stroke-linejoin="round" stroke-width="1.397"/>
                  </g>
                </g>
              </g>
              <g id="Group_1693" data-name="Group 1693" transform="translate(0 88.109)">
                <path id="Path_1747" data-name="Path 1747" d="M350.934,161.852s-4.452-7.079-13.632-3.6-5.028,25.78,8.743,28.62a10.893,10.893,0,0,0,8.808-2.3S351.466,168.1,350.934,161.852Z" transform="translate(-332.397 -157.291)" fill="#f3978e"/>
                <g id="Group_1692" data-name="Group 1692" transform="translate(6.726 8.579)">
                  <g id="Group_1691" data-name="Group 1691">
                    <path id="Path_1748" data-name="Path 1748" d="M336.354,162.588s7.691-2.567,13.149,8.759" transform="translate(-336.354 -162.338)" fill="none" stroke="#282828" stroke-linecap="round" stroke-linejoin="round" stroke-width="1.397"/>
                  </g>
                </g>
              </g>
              <path id="Path_1749" data-name="Path 1749" d="M438.637,167.189c.005,13.441-1.316,41.561-9.578,58.253-7.759,15.671-20.59,24.1-37.414,24.607s-29.354-5.981-39.4-26.32-9.564-56.289-9.564-56.289,0-48.015,47.456-48.015C440.121,119.424,438.637,167.189,438.637,167.189Z" transform="translate(-325.202 -95.678)" fill="#ffb1a5"/>
              <path id="Path_1750" data-name="Path 1750" d="M351.794,186.688s5.529,28.054,29.944,31.276c28.1,3.71,35.583-30.564,35.583-30.564s-12.416,15.559-32.053,15.583C363.369,203.01,351.794,186.688,351.794,186.688Z" transform="translate(-318.825 -48.612)" fill="#282828"/>
              <g id="Group_1695" data-name="Group 1695" transform="translate(18.063 60.276)">
                <path id="Path_1751" data-name="Path 1751" d="M368.917,159.254v11.113a3.633,3.633,0,0,0,.26,1.355,3.576,3.576,0,0,0,4.265,1.978l3.685-.981" transform="translate(-324.907 -128.084)" fill="none" stroke="#282828" stroke-linecap="round" stroke-linejoin="round" stroke-width="1.397"/>
                <path id="Path_1752" data-name="Path 1752" d="M364.229,157.911a4.321,4.321,0,1,1-4.321-4.321,4.321,4.321,0,0,1,4.321,4.321Z" transform="translate(-334.233 -132.047)" fill="#282828"/>
                <path id="Path_1753" data-name="Path 1753" d="M388.058,157.911a4.32,4.32,0,1,1-4.32-4.321,4.32,4.32,0,0,1,4.32,4.321Z" transform="translate(-317.559 -132.047)" fill="#282828"/>
                <path id="Path_1754" data-name="Path 1754" d="M375.454,145.288l29.046,7.5s-1.321-8.147-13.2-11.108S375.454,145.288,375.454,145.288Z" transform="translate(-320.333 -140.916)" fill="#282828"/>
                <path id="Path_1755" data-name="Path 1755" d="M376.792,145.288l-29.046,7.5s1.321-8.147,13.2-11.108S376.792,145.288,376.792,145.288Z" transform="translate(-339.72 -140.916)" fill="#282828"/>
                <path id="Path_1756" data-name="Path 1756" d="M361.436,172.379s4.285,3.284,15.554,3.284c10.248,0,16.647-3.284,16.647-3.284" transform="translate(-330.141 -118.9)" fill="none" stroke="#282828" stroke-linecap="round" stroke-linejoin="round" stroke-width="1.397"/>
                <g id="Group_1694" data-name="Group 1694" transform="translate(0 8.768)">
                  <circle id="Ellipse_147" data-name="Ellipse 147" cx="18.357" cy="18.357" r="18.357" transform="translate(6.155 0)" fill="none" stroke="#fff" stroke-miterlimit="10" stroke-width="1.951"/>
                  <circle id="Ellipse_148" data-name="Ellipse 148" cx="18.357" cy="18.357" r="18.357" transform="translate(51.252 0)" fill="none" stroke="#fff" stroke-miterlimit="10" stroke-width="1.951"/>
                  <path id="Path_1757" data-name="Path 1757" d="M368.246,157.618s4.348-4.059,8.383,0" transform="translate(-325.376 -139.26)" fill="none" stroke="#fff" stroke-miterlimit="10" stroke-width="1.951"/>
                  <line id="Line_23" data-name="Line 23" x1="6.155" y1="0.156" transform="translate(0 18.201)" fill="none" stroke="#fff" stroke-miterlimit="10" stroke-width="1.951"/>
                  <line id="Line_24" data-name="Line 24" y1="0.112" x2="6.871" transform="translate(87.967 18.246)" fill="none" stroke="#fff" stroke-miterlimit="10" stroke-width="1.951"/>
                </g>
              </g>
              <path id="Path_1750-2" data-name="Path 1750" d="M354.235,190.282s3.738,51.637,44.375,57c46.771,6.175,50.25-57,50.25-57s-12.815,10.21-45.5,10.25C366.91,200.577,354.235,190.282,354.235,190.282Z" transform="translate(-335.844 -98.33)" fill="#fff"/>
              <path id="Path_1758" data-name="Path 1758" d="M351.794,127.34s8.816,25.045,48.6,24.277c27.031-.522,33.489,19.038,33.489,19.038s-4.7-43.729-5.94-43.315-41.137-10.64-41.137-10.64Z" transform="translate(-318.825 -97.587)" fill="#282828"/>
              <g id="mask" transform="translate(-5.291 508.332)" opacity="0.15">
                <path id="Path_2" data-name="Path 2" d="M161.239-303.484c-1.55.2-5.658.836-9.1,1.451-3.444.59-7.38,1.279-8.733,1.476a8.83,8.83,0,0,0-2.9.812,1.8,1.8,0,0,0,.32,2.534c.713.541.615.541,9.594-1.033,9.643-1.7,11.709-1.968,16.6-2.116,5.559-.148,8.659.148,17.859,1.771,10.578,1.894,10.824,1.919,11.537,1.378a1.8,1.8,0,0,0,.32-2.534,15.454,15.454,0,0,0-4.256-1.033c-2.091-.344-6-1.009-8.659-1.476-2.681-.492-6.322-1.033-8.118-1.255A76.783,76.783,0,0,0,161.239-303.484Z" transform="translate(-96.393 -93.876)"/>
                <path id="Path_3" data-name="Path 3" d="M140.492-253.508a1.968,1.968,0,0,0-.492,1.23,1.968,1.968,0,0,0,.492,1.23c.492.492.812.492,28.043.492s27.551,0,28.043-.492a1.968,1.968,0,0,0,.492-1.23,1.968,1.968,0,0,0-.492-1.23c-.492-.492-.812-.492-28.043-.492S140.984-254,140.492-253.508Z" transform="translate(-96.309 -131.454)"/>
                <path id="Path_4" data-name="Path 4" d="M140.61-218.11a1.728,1.728,0,0,0-.2,2.509c.271.246,2.091.664,4.969,1.132,2.509.418,6.494,1.107,8.856,1.5,11.586,2.017,17.318,1.993,29.47-.148,2.657-.467,6.568-1.132,8.659-1.476a15.454,15.454,0,0,0,4.256-1.033,1.8,1.8,0,0,0-.32-2.534c-.713-.541-.615-.541-9.594,1.033-3.05.541-6.962,1.205-8.733,1.476a73.68,73.68,0,0,1-15.006.467c-2.681-.271-4.9-.615-16.235-2.558C141.077-218.7,141.348-218.676,140.61-218.11Z" transform="translate(-96.279 -158.217)"/>
              </g>
            </g>
          </g>
        </g>
      </g>
    </g>
    <g id="Group_1396" data-name="Group 1396" transform="translate(440.727 578.526)">
      <g id="Group_1381" data-name="Group 1381" transform="translate(4.628 46.579)">
        <path id="Path_1091" data-name="Path 1091" d="M2770.88,1093.17c-2.172-21.91-7.608-76.329-8.794-84.283-1.492-10-13.742-7.791-13.742-7.791l-2.623,101.166H2762.8a8.052,8.052,0,0,0,6.023-2.725,8.352,8.352,0,0,0,2.057-6.367Z" transform="translate(-2623.235 -991.84)" fill="#182160"/>
        <path id="Path_1092" data-name="Path 1092" d="M531.32,1105.93a9.66,9.66,0,0,1-9.453-9.863l1.742-82.13a8.511,8.511,0,0,1,8.256-8.326l119.2-3.536a6.276,6.276,0,0,1,6.462,6.292l-.286,94.168a5.957,5.957,0,0,1-6.083,5.938Z" transform="translate(-521.865 -992.959)" fill="#a1b2f2"/>
        <g id="Group_1377" data-name="Group 1377" transform="translate(4.206 14.685)">
          <path id="Path_1093" data-name="Path 1093" d="M506.5,1194.59a2.774,2.774,0,0,1-2.623-3.241c1.69-11.183,6.994-49.651,5.293-81.59a2.556,2.556,0,0,1,2.407-2.742L626.6,1103.2a2.919,2.919,0,0,1,2.959,2.871c.489,13.428,2.311,68.724-.073,88.38a2.3,2.3,0,0,1-2.292,2.067Z" transform="translate(-503.847 -1103.2)" fill="#91b3fa"/>
          <path id="Path_1094" data-name="Path 1094" d="M563.22,1230.8a2.669,2.669,0,0,1-2.524-3.119c1.626-10.762,6.731-47.781,5.093-78.518a2.46,2.46,0,0,1,2.316-2.638l110.693-3.676a2.809,2.809,0,0,1,2.847,2.763c.471,12.922,2.224,66.136-.07,85.052a2.217,2.217,0,0,1-2.205,1.989Z" transform="translate(-557.658 -1140.668)" fill="#fff" opacity="0.6"/>
        </g>
        <path id="Path_1095" data-name="Path 1095" d="M1891.83,1519.58l-.176,8.3a2.269,2.269,0,0,0,2.256,2.317l8.512.048a2.269,2.269,0,0,0,2.281-2.221l.185-8.724a2.269,2.269,0,0,0-2.369-2.315l-8.521.378a2.269,2.269,0,0,0-2.168,2.217Z" transform="translate(-1816.214 -1479.506)" fill="#fff" opacity="0.72"/>
        <path id="Path_1096" data-name="Path 1096" d="M1315.82,1551.3l8.512.048a2.269,2.269,0,0,0,2.281-2.221l.157-7.421a2.269,2.269,0,0,0-2.35-2.316l-8.52.306a2.269,2.269,0,0,0-2.187,2.219l-.15,7.066a2.269,2.269,0,0,0,2.257,2.319Z" transform="translate(-1269.956 -1500.681)" fill="#fff" opacity="0.72"/>
        <path id="Path_1097" data-name="Path 1097" d="M1305.36,2425.45l-8.1-.078a2.476,2.476,0,0,0-2.5,2.423l-.161,7.583a2.476,2.476,0,0,0,2.371,2.526l8.092.343a2.476,2.476,0,0,0,2.58-2.421l.167-7.847a2.476,2.476,0,0,0-2.449-2.529Z" transform="translate(-1252.046 -2337.862)" fill="#fff" opacity="0.72"/>
        <path id="Path_1098" data-name="Path 1098" d="M1018.83,2432.54l.157-7.414a2.434,2.434,0,0,0-2.41-2.485l-8.182-.079a2.433,2.433,0,0,0-2.457,2.382l-.152,7.147a2.434,2.434,0,0,0,2.33,2.483l8.176.346a2.434,2.434,0,0,0,2.538-2.379Z" transform="translate(-979.134 -2335.206)" fill="#fff" opacity="0.72"/>
        <path id="Path_1099" data-name="Path 1099" d="M1031.69,1845.73l.129-6.086a2.619,2.619,0,0,0-2.623-2.675l-7.813.014a2.619,2.619,0,0,0-2.614,2.563l-.123,5.816a2.619,2.619,0,0,0,2.533,2.673l7.807.256a2.62,2.62,0,0,0,2.7-2.561Z" transform="translate(-991.283 -1781.874)" fill="#fff" opacity="0.72"/>
        <path id="Path_1100" data-name="Path 1100" d="M1024.78,2110.31l.2-9.309a2.433,2.433,0,0,0-2.354-2.484l-7.99-.261a2.619,2.619,0,0,0-2.7,2.562l-.2,9.388a2.434,2.434,0,0,0,2.433,2.485h8.184a2.433,2.433,0,0,0,2.427-2.381Z" transform="translate(-984.752 -2028.767)" fill="#fff" opacity="0.72"/>
        <path id="Path_1101" data-name="Path 1101" d="M1604.85,1541.57l8.512.048a2.269,2.269,0,0,0,2.281-2.221l.171-8.083a2.269,2.269,0,0,0-2.35-2.316l-8.519.306a2.269,2.269,0,0,0-2.187,2.219l-.164,7.729a2.269,2.269,0,0,0,2.256,2.318Z" transform="translate(-1543.066 -1490.863)" fill="#fff" opacity="0.72"/>
        <path id="Path_1102" data-name="Path 1102" d="M1313.86,2119.13l.185-8.707a2.476,2.476,0,0,0-2.4-2.527l-8.093-.265a2.476,2.476,0,0,0-2.557,2.422l-.19,8.97a2.476,2.476,0,0,0,2.475,2.529h8.1a2.476,2.476,0,0,0,2.475-2.422Z" transform="translate(-1257.91 -2037.619)" fill="#fff" opacity="0.72"/>
        <path id="Path_1103" data-name="Path 1103" d="M1607.44,1835.9l-9.3.017a1.878,1.878,0,0,0-1.875,1.838l-.177,8.371a1.878,1.878,0,0,0,1.816,1.917l9.289.3a1.878,1.878,0,0,0,1.939-1.837l.184-8.692a1.878,1.878,0,0,0-1.876-1.914Z" transform="translate(-1536.926 -1780.864)" fill="#fff" opacity="0.72"/>
        <path id="Path_1104" data-name="Path 1104" d="M1885.3,1837.72l-.169,7.973a2.361,2.361,0,0,0,2.283,2.409l8.324.272a2.361,2.361,0,0,0,2.437-2.309l.175-8.26a2.36,2.36,0,0,0-2.364-2.411l-8.331.015A2.361,2.361,0,0,0,1885.3,1837.72Z" transform="translate(-1810.048 -1780.384)" fill="#fff" opacity="0.72"/>
        <path id="Path_1105" data-name="Path 1105" d="M1309.05,1848.02l9.289.3a1.878,1.878,0,0,0,1.939-1.837l.173-8.143a1.878,1.878,0,0,0-1.881-1.918l-9.3.017a1.878,1.878,0,0,0-1.874,1.838l-.166,7.822A1.878,1.878,0,0,0,1309.05,1848.02Z" transform="translate(-1263.974 -1781.357)" fill="#fff" opacity="0.72"/>
        <path id="Path_1106" data-name="Path 1106" d="M1600.7,2117.35l-8.093-.265a2.476,2.476,0,0,0-2.557,2.422l-.179,8.451a2.476,2.476,0,0,0,2.475,2.528h8.1a2.476,2.476,0,0,0,2.476-2.425l.174-8.186a2.476,2.476,0,0,0-2.4-2.525Z" transform="translate(-1531.053 -2046.553)" fill="#fff" opacity="0.72"/>
        <path id="Path_1107" data-name="Path 1107" d="M1889.93,2126.65l-8.66-.283a2.193,2.193,0,0,0-2.264,2.145l-.181,8.508a2.193,2.193,0,0,0,2.192,2.239h8.666a2.193,2.193,0,0,0,2.193-2.146l.175-8.226A2.193,2.193,0,0,0,1889.93,2126.65Z" transform="translate(-1804.088 -2055.33)" fill="#fff" opacity="0.72"/>
        <path id="Path_1108" data-name="Path 1108" d="M1028.44,1559.38l6.461.036a3.146,3.146,0,0,0,3.163-3.079l.113-5.33a2.8,2.8,0,0,0-2.9-2.86l-7.19.258a3.079,3.079,0,0,0-2.968,3.012l-.094,4.451a3.439,3.439,0,0,0,3.415,3.512Z" transform="translate(-997.313 -1508.952)" fill="#fff" opacity="0.72"/>
        <path id="Path_1109" data-name="Path 1109" d="M794.377,2423.37a2.619,2.619,0,0,0-2.593-2.675l-2.814-.027c-2.139-.021-3.888,1.393-3.926,3.174l-.109,5.153c-.037,1.766,1.623,3.246,3.742,3.335l3.021.128a2.434,2.434,0,0,0,2.536-2.38Z" transform="translate(-770.445 -2333.417)" fill="#fff" opacity="0.72"/>
        <path id="Path_1110" data-name="Path 1110" d="M2458.06,2436.64l-5.535-.053a2.478,2.478,0,0,0-2.5,2.426l-.2,9.654a2.479,2.479,0,0,0,2.373,2.529l5.51.233c2.2.093,4.04-1.34,4.079-3.169l.176-8.279C2462,2438.16,2460.25,2436.66,2458.06,2436.64Z" transform="translate(-2343.636 -2348.459)" fill="#fff" opacity="0.72"/>
        <path id="Path_1111" data-name="Path 1111" d="M794.648,2106.57H797.4a2.619,2.619,0,0,0,2.619-2.565l.2-9.462a2.619,2.619,0,0,0-2.533-2.673l-2.765-.091c-2.18-.072-4,1.356-4.034,3.171l-.176,8.279C790.668,2105.06,792.449,2106.57,794.648,2106.57Z" transform="translate(-775.9 -2022.644)" fill="#fff" opacity="0.72"/>
        <path id="Path_1112" data-name="Path 1112" d="M801.47,1848.16l3.458.113a1.981,1.981,0,0,0,2.045-1.938l.145-6.835a1.981,1.981,0,0,0-1.984-2.023l-3.492.006c-2.118,0-3.834,1.411-3.872,3.174l-.089,4.165C797.645,1846.6,799.332,1848.08,801.47,1848.16Z" transform="translate(-782.49 -1782.346)" fill="#fff" opacity="0.72"/>
        <path id="Path_1113" data-name="Path 1113" d="M2477.78,1497.69l-5.551.2a2.36,2.36,0,0,0-2.275,2.309l-.2,9.536a2.36,2.36,0,0,0,2.346,2.411l5.715.032c2.132.012,3.869-1.4,3.906-3.173l.169-7.977C2481.93,1499.14,2480.04,1497.61,2477.78,1497.69Z" transform="translate(-2362.468 -1461.272)" fill="#fff" opacity="0.72"/>
        <path id="Path_1114" data-name="Path 1114" d="M1594.18,2428.25l-8.1-.079a2.476,2.476,0,0,0-2.5,2.424l-.172,8.1a2.476,2.476,0,0,0,2.371,2.526l8.091.343a2.476,2.476,0,0,0,2.58-2.421l.177-8.365a2.476,2.476,0,0,0-2.447-2.528Z" transform="translate(-1524.945 -2340.51)" fill="#fff" opacity="0.72"/>
        <path id="Path_1115" data-name="Path 1115" d="M2471.03,1834.44l-5.626.01a2.36,2.36,0,0,0-2.355,2.31l-.192,9.072a2.361,2.361,0,0,0,2.282,2.409l5.648.185c2.18.071,4-1.356,4.034-3.171l.158-7.476C2475.02,1835.95,2473.24,1834.44,2471.03,1834.44Z" transform="translate(-2355.956 -1779.482)" fill="#fff" opacity="0.72"/>
        <path id="Path_1116" data-name="Path 1116" d="M2465.25,2145.47l-5.872-.192a2.193,2.193,0,0,0-2.264,2.145l-.158,7.47a2.193,2.193,0,0,0,2.192,2.239h5.9c2.121,0,3.843-1.408,3.881-3.174l.109-5.152C2469.07,2147.03,2467.38,2145.54,2465.25,2145.47Z" transform="translate(-2350.371 -2073.197)" fill="#fff" opacity="0.72"/>
        <path id="Path_1117" data-name="Path 1117" d="M2168.06,2137.97l-.17,7.99a2.193,2.193,0,0,0,2.192,2.239h8.666a2.193,2.193,0,0,0,2.193-2.146l.163-7.707a2.193,2.193,0,0,0-2.121-2.238l-8.659-.284a2.193,2.193,0,0,0-2.264,2.146Z" transform="translate(-2077.23 -2064.263)" fill="#fff" opacity="0.72"/>
        <path id="Path_1118" data-name="Path 1118" d="M2171.81,2433.86l-8.093-.078a2.478,2.478,0,0,0-2.5,2.426l-.194,9.135a2.479,2.479,0,0,0,2.373,2.529l8.088.342a2.48,2.48,0,0,0,2.583-2.424l.2-9.4a2.478,2.478,0,0,0-2.457-2.53Z" transform="translate(-2070.738 -2345.809)" fill="#fff" opacity="0.72"/>
        <path id="Path_1119" data-name="Path 1119" d="M807.548,1568.6l3.387.019a1.981,1.981,0,0,0,1.992-1.939l.142-6.685a1.981,1.981,0,0,0-2.051-2.021l-3.587.129a3.576,3.576,0,0,0-3.711,3.171l-.085,3.987C803.595,1567.09,805.359,1568.59,807.548,1568.6Z" transform="translate(-788.114 -1518.243)" fill="#fff" opacity="0.72"/>
        <path id="Path_1120" data-name="Path 1120" d="M1882.99,2431.08l-7.957-.077a2.615,2.615,0,0,0-2.641,2.56l-.18,8.48a2.478,2.478,0,0,0,2.373,2.529l8.087.342a2.478,2.478,0,0,0,2.583-2.423l.188-8.88a2.478,2.478,0,0,0-2.453-2.531Z" transform="translate(-1797.84 -2343.183)" fill="#fff" opacity="0.72"/>
        <path id="Path_1121" data-name="Path 1121" d="M2180.91,1508.9l-.188,8.874a2.36,2.36,0,0,0,2.346,2.41l8.33.047a2.36,2.36,0,0,0,2.373-2.31l.2-9.221a2.361,2.361,0,0,0-2.445-2.409l-8.336.3A2.36,2.36,0,0,0,2180.91,1508.9Z" transform="translate(-2089.357 -1469.399)" fill="#fff" opacity="0.72"/>
        <path id="Path_1122" data-name="Path 1122" d="M2174.18,1837.2l-.181,8.522a2.36,2.36,0,0,0,2.283,2.409l8.324.272a2.36,2.36,0,0,0,2.437-2.309l.187-8.81a2.36,2.36,0,0,0-2.364-2.41l-8.331.015a2.36,2.36,0,0,0-2.355,2.311Z" transform="translate(-2083.002 -1779.892)" fill="#fff" opacity="0.72"/>
        <path id="Path_1123" data-name="Path 1123" d="M857.652,1392.77l.383,2.81a1.846,1.846,0,0,0,1.79,1.6h.133a1.846,1.846,0,0,0,1.885-1.807l.061-2.877a1.846,1.846,0,0,0-2.047-1.874l-.577.063a1.846,1.846,0,0,0-1.628,2.085Z" transform="translate(-839.142 -1360.095)" fill="#fff"/>
        <path id="Path_1124" data-name="Path 1124" d="M1094.48,1379.64l.384,2.81a1.846,1.846,0,0,0,1.79,1.6h.133a1.846,1.846,0,0,0,1.885-1.806l.061-2.877a1.846,1.846,0,0,0-2.047-1.874l-.577.063a1.846,1.846,0,0,0-1.629,2.084Z" transform="translate(-1062.922 -1347.685)" fill="#fff"/>
        <path id="Path_1125" data-name="Path 1125" d="M1385.86,1383.65l.384,2.81a1.846,1.846,0,0,0,1.79,1.6h.133a1.846,1.846,0,0,0,1.885-1.806l.061-2.877a1.846,1.846,0,0,0-2.048-1.874l-.577.064a1.846,1.846,0,0,0-1.628,2.083Z" transform="translate(-1338.256 -1351.475)" fill="#fff"/>
        <path id="Path_1126" data-name="Path 1126" d="M1669.75,1370.93l.384,2.81a1.846,1.846,0,0,0,1.79,1.6h.133a1.846,1.846,0,0,0,1.885-1.806l.061-2.876a1.846,1.846,0,0,0-2.047-1.874l-.577.063a1.846,1.846,0,0,0-1.629,2.083Z" transform="translate(-1606.51 -1339.461)" fill="#fff"/>
        <path id="Path_1127" data-name="Path 1127" d="M1961.33,1333.85l.384,2.81a1.846,1.846,0,0,0,1.79,1.6h.133a1.846,1.846,0,0,0,1.885-1.807l.061-2.876a1.846,1.846,0,0,0-2.047-1.874l-.577.064a1.846,1.846,0,0,0-1.629,2.083Z" transform="translate(-1882.036 -1304.426)" fill="#fff"/>
        <path id="Path_1128" data-name="Path 1128" d="M2270.23,1340.41l.383,2.81a1.846,1.846,0,0,0,1.79,1.6h.133a1.846,1.846,0,0,0,1.885-1.807l.061-2.876a1.846,1.846,0,0,0-2.048-1.874l-.577.063a1.846,1.846,0,0,0-1.627,2.084Z" transform="translate(-2173.914 -1310.617)" fill="#fff"/>
        <path id="Path_1129" data-name="Path 1129" d="M2530.95,1334.95l.384,2.81a1.846,1.846,0,0,0,1.79,1.6h.133a1.846,1.846,0,0,0,1.885-1.806l.061-2.877a1.846,1.846,0,0,0-2.048-1.874l-.577.063a1.846,1.846,0,0,0-1.628,2.084Z" transform="translate(-2420.276 -1305.457)" fill="#fff"/>
        <g id="Group_1378" data-name="Group 1378" transform="translate(61.621 49.281)">
          <path id="Path_1130" data-name="Path 1130" d="M1882.07,1342.08a.682.682,0,0,0-1.137-.5c-1.32,1.04-1.857,2.654-2.507,4.16-.758,1.755-1.484,3.524-2.13,5.323a49.2,49.2,0,0,0-1.7,5.79,41.606,41.606,0,0,0-3.185-6.789.61.61,0,0,0-1.119.444c1.116,3.969,2.49,7.857,3.542,11.846a1.245,1.245,0,0,0,2.44-.277,45.187,45.187,0,0,1,2.55-10.717c.6-1.659,1.274-3.292,1.97-4.912C1881.41,1345.02,1882.17,1343.68,1882.07,1342.08Z" transform="translate(-1858.107 -1341.414)" fill="url(#linear-gradient)"/>
          <path id="Path_1131" data-name="Path 1131" d="M1675.19,1367.43a.9.9,0,0,0-.513,1.718c6.967,3.065,7.877,11.7,2.845,16.932a34.958,34.958,0,0,1-8.341,5.91c-2.966,1.637-6.277,2.887-9.72,2.542-7.979-.8-9.063-8.923-6.678-15.189a22.414,22.414,0,0,1,13.225-12.911c.777-.288.476-1.553-.321-1.267a25.308,25.308,0,0,0-13.425,11.243c-2.738,4.806-4.38,11.586-.8,16.411,3.708,4.993,10.747,5.082,16.051,3,5.833-2.289,13.1-6.537,15.419-12.7C1685.37,1376.66,1682.36,1368.77,1675.19,1367.43Z" transform="translate(-1649.408 -1363.816)" fill="url(#linear-gradient-2)"/>
        </g>
        <g id="Group_1379" data-name="Group 1379" transform="translate(134.782 24.542)">
          <path id="Path_1132" data-name="Path 1132" d="M2973.54,1893.08a.3.3,0,0,1-.3-.3l-.367-53.024a.3.3,0,0,1,.3-.3h0a.3.3,0,0,1,.3.3l.367,53.024a.3.3,0,0,1-.3.3Z" transform="translate(-2972.654 -1808.753)" fill="#91b3fa"/>
          <path id="Path_1133" data-name="Path 1133" d="M2969.44,1301.28a.3.3,0,0,1-.3-.3l-.128-18.519a.3.3,0,0,1,.3-.3h0a.3.3,0,0,1,.3.3l.128,18.519A.3.3,0,0,1,2969.44,1301.28Z" transform="translate(-2969.007 -1282.16)" fill="#91b3fa"/>
        </g>
        <circle id="Ellipse_70" data-name="Ellipse 70" cx="3.231" cy="3.231" r="3.231" transform="translate(17.696 22.73) rotate(-16.858)" fill="#91b3fa"/>
        <circle id="Ellipse_71" data-name="Ellipse 71" cx="3.231" cy="3.231" r="3.231" transform="translate(43.685 23.906) rotate(-35.783)" fill="#91b3fa"/>
        <circle id="Ellipse_72" data-name="Ellipse 72" cx="3.231" cy="3.231" r="3.231" transform="translate(71.028 21.366) rotate(-13.283)" fill="#91b3fa"/>
        <circle id="Ellipse_73" data-name="Ellipse 73" cx="3.231" cy="3.231" r="3.231" transform="translate(97.499 24.927) rotate(-76.717)" fill="#91b3fa"/>
        <g id="Group_1380" data-name="Group 1380" transform="translate(19.691)">
          <path id="Path_1134" data-name="Path 1134" d="M2325.95,836.708c-5.437,1.186-4.924,15.49-4.486,21.3a2.617,2.617,0,0,0,2.611,2.421,1.343,1.343,0,0,0,1.332-1.487c-.47-4.389-1.469-17.028,2.534-17.7,0,0,2.871-.508,3.354,5.053h3.106S2332.79,835.217,2325.95,836.708Z" transform="translate(-2241.799 -836.57)" fill="#536fae"/>
          <path id="Path_1135" data-name="Path 1135" d="M1845.34,850.061c-5.437,1.186-4.924,15.495-4.486,21.3a2.619,2.619,0,0,0,2.611,2.423,1.341,1.341,0,0,0,1.332-1.485c-.47-4.389-1.469-17.038,2.533-17.714,0,0,2.871-.4,3.354,5.043h3.106S1852.17,848.57,1845.34,850.061Z" transform="translate(-1787.657 -849.187)" fill="#536fae"/>
          <path id="Path_1136" data-name="Path 1136" d="M1364.72,863.477c-5.437,1.186-4.924,15.5-4.486,21.3a2.621,2.621,0,0,0,2.611,2.425,1.34,1.34,0,0,0,1.332-1.484c-.47-4.389-1.469-17.045,2.534-17.72,0,0,2.87-.323,3.353,5.145l3.107-.108S1371.56,861.985,1364.72,863.477Z" transform="translate(-1333.514 -861.864)" fill="#536fae"/>
          <path id="Path_1137" data-name="Path 1137" d="M884.111,878.991c-5.437,1.186-4.924,15.505-4.486,21.312a2.624,2.624,0,0,0,2.611,2.429,1.337,1.337,0,0,0,1.332-1.481c-.47-4.389-1.469-17.06,2.534-17.735,0,0,2.871-.418,3.354,5.022h3.106S890.946,877.5,884.111,878.991Z" transform="translate(-879.372 -876.523)" fill="#536fae"/>
        </g>
      </g>
    </g>
    <g id="Group_858" data-name="Group 858" transform="translate(-189.553 146.48)">
      <g id="Group_801" data-name="Group 801" transform="translate(906.352 29.705)">
        <circle id="Ellipse_18" data-name="Ellipse 18" cx="79.815" cy="79.815" r="79.815" transform="translate(0 0)" fill="#739af0"/>
      </g>
      <g id="Group_802" data-name="Group 802" transform="translate(919.818 43.171)">
        <circle id="Ellipse_19" data-name="Ellipse 19" cx="66.349" cy="66.349" r="66.349" transform="translate(0 0)" fill="#e4f2ff"/>
      </g>
      <g id="Group_860" data-name="Group 860">
        <g id="Group_803" data-name="Group 803" transform="translate(983.721 49.331)">
          <path id="Path_278" data-name="Path 278" d="M925.115,35.673a2.446,2.446,0,1,1-2.449-2.449A2.446,2.446,0,0,1,925.115,35.673Z" transform="translate(-920.223 -33.224)" fill="#03053f"/>
        </g>
        <g id="Group_804" data-name="Group 804" transform="translate(954.847 57.065)">
          <path id="Path_279" data-name="Path 279" d="M919.613,35.834a2.448,2.448,0,1,1-3.341-.892,2.448,2.448,0,0,1,3.341.892Z" transform="translate(-915.047 -34.611)" fill="#03053f"/>
        </g>
        <g id="Group_805" data-name="Group 805" transform="translate(933.713 78.202)">
          <path id="Path_280" data-name="Path 280" d="M914.926,38.728a2.445,2.445,0,1,1-1.857-.243,2.448,2.448,0,0,1,1.857.243Z" transform="translate(-911.257 -38.4)" fill="#03053f"/>
        </g>
        <g id="Group_806" data-name="Group 806" transform="translate(925.976 107.071)">
          <path id="Path_281" data-name="Path 281" d="M912.319,43.576a2.449,2.449,0,1,1-2.449,2.449,2.449,2.449,0,0,1,2.449-2.449Z" transform="translate(-909.87 -43.576)" fill="#03053f"/>
        </g>
        <g id="Group_807" data-name="Group 807" transform="translate(933.713 135.942)">
          <path id="Path_282" data-name="Path 282" d="M912.478,49.08a2.448,2.448,0,1,1-.893,3.347,2.448,2.448,0,0,1,.893-3.347Z" transform="translate(-911.257 -48.752)" fill="#03053f"/>
        </g>
        <g id="Group_808" data-name="Group 808" transform="translate(954.847 157.078)">
          <path id="Path_283" data-name="Path 283" d="M915.374,53.765a2.445,2.445,0,1,1-.245,1.861,2.448,2.448,0,0,1,.245-1.861Z" transform="translate(-915.047 -52.542)" fill="#03053f"/>
        </g>
        <g id="Group_809" data-name="Group 809" transform="translate(983.721 164.816)">
          <path id="Path_284" data-name="Path 284" d="M920.223,56.378a2.446,2.446,0,1,1,2.443,2.443,2.446,2.446,0,0,1-2.443-2.443Z" transform="translate(-920.223 -53.929)" fill="#03053f"/>
        </g>
        <g id="Group_810" data-name="Group 810" transform="translate(1012.589 157.078)">
          <path id="Path_285" data-name="Path 285" d="M925.73,56.214a2.439,2.439,0,1,1,1.483,1.145A2.448,2.448,0,0,1,925.73,56.214Z" transform="translate(-925.398 -52.542)" fill="#03053f"/>
        </g>
        <g id="Group_811" data-name="Group 811" transform="translate(1033.726 135.942)">
          <path id="Path_286" data-name="Path 286" d="M930.414,53.319a2.446,2.446,0,1,1,3.341-.892,2.446,2.446,0,0,1-3.341.892Z" transform="translate(-929.188 -48.752)" fill="#03053f"/>
        </g>
        <g id="Group_812" data-name="Group 812" transform="translate(1041.461 107.071)">
          <path id="Path_287" data-name="Path 287" d="M933.024,48.473a2.449,2.449,0,1,1,2.449-2.449,2.449,2.449,0,0,1-2.449,2.449Z" transform="translate(-930.575 -43.576)" fill="#03053f"/>
        </g>
        <g id="Group_813" data-name="Group 813" transform="translate(1033.726 78.202)">
          <path id="Path_288" data-name="Path 288" d="M932.857,42.967A2.445,2.445,0,1,1,934,41.483a2.446,2.446,0,0,1-1.143,1.484Z" transform="translate(-929.188 -38.4)" fill="#03053f"/>
        </g>
        <g id="Group_814" data-name="Group 814" transform="translate(1012.589 57.065)">
          <path id="Path_289" data-name="Path 289" d="M929.969,38.283a2.448,2.448,0,1,1-.9-3.341,2.448,2.448,0,0,1,.9,3.341Z" transform="translate(-925.398 -34.611)" fill="#03053f"/>
        </g>
      </g>
      <g id="Group_815" data-name="Group 815" transform="translate(957.343 90.375)">
        <rect id="Rectangle_394" data-name="Rectangle 394" width="5.101" height="30.554" transform="translate(0 4.413) rotate(-59.9)" fill="#739af0"/>
      </g>
      <g id="Group_816" data-name="Group 816" transform="translate(986.091 84.515)">
        <rect id="Rectangle_395" data-name="Rectangle 395" width="45.931" height="3.782" transform="translate(0 22.172) rotate(-28.863)" fill="#739af0"/>
      </g>
      <g id="Group_817" data-name="Group 817" transform="translate(974.535 97.89)">
        <path id="Path_290" data-name="Path 290" d="M941.835,53.559A11.629,11.629,0,1,1,930.206,41.93a11.629,11.629,0,0,1,11.629,11.629Z" transform="translate(-918.576 -41.93)" fill="#2a468a"/>
      </g>
    </g>
    <g id="Group_1728" data-name="Group 1728" transform="translate(192.436 404.817)">
      <g id="Group_1709" data-name="Group 1709" transform="translate(1185.751 68.414)">
        <g id="Group_1706" data-name="Group 1706">
          <rect id="Rectangle_545" data-name="Rectangle 545" width="92.492" height="78.017" rx="4.186" transform="translate(0 93.105) rotate(-79.511)" fill="#4d4d4d"/>
          <path id="Path_1759" data-name="Path 1759" d="M1252.93,92.189l-16,86.619a2.2,2.2,0,0,0,1.766,2.567l72.384,13.373a2.2,2.2,0,0,0,2.568-1.767l16-86.619a2.2,2.2,0,0,0-1.767-2.567L1255.5,90.422a2.2,2.2,0,0,0-2.567,1.767Z" transform="translate(-1236.387 -88.61)" fill="#2a468a" fill-rule="evenodd"/>
          <path id="Path_1760" data-name="Path 1760" d="M1254.18,261.355l-1.987,10.753,5.658-2.928,3.946,4.429,1.938-10.488-8.49-1.569Z" transform="translate(-1243.635 -169.558)" fill="#db1f21" fill-rule="evenodd"/>
          <g id="Group_1705" data-name="Group 1705" transform="translate(4.464 10.914)">
            <path id="Path_1761" data-name="Path 1761" d="M1326.94,121.765a1.365,1.365,0,0,1-.859-.535,1.218,1.218,0,0,1,.325-1.757,1.366,1.366,0,0,1,.993-.193,1.3,1.3,0,0,1,1.08,1.484,1.226,1.226,0,0,1-.545.807,1.365,1.365,0,0,1-.994.194Zm-79.885,73.665,2.115.391.145-.782,9.555,1.765-.144.782,60.934,11.258,16.127-87.288-4.338-8.037-2.832-.523-1.279,6.923-1.475-.272a1.21,1.21,0,0,1,.065.647,1.334,1.334,0,0,1-2.62-.484,1.2,1.2,0,0,1,.292-.581l-2.55-.471a1.2,1.2,0,0,1,.064.647,1.334,1.334,0,0,1-2.619-.484,1.2,1.2,0,0,1,.291-.581l-2.55-.471a1.2,1.2,0,0,1,.064.647,1.333,1.333,0,0,1-2.619-.483,1.2,1.2,0,0,1,.291-.582l-2.55-.471a1.2,1.2,0,0,1,.064.647,1.334,1.334,0,0,1-2.619-.484,1.2,1.2,0,0,1,.292-.581l-2.551-.471a1.2,1.2,0,0,1,.065.648,1.334,1.334,0,0,1-2.619-.484,1.2,1.2,0,0,1,.291-.582l-2.55-.471a1.2,1.2,0,0,1,.064.648,1.333,1.333,0,0,1-2.619-.484,1.206,1.206,0,0,1,.291-.582l-2.55-.471a1.2,1.2,0,0,1,.064.648,1.334,1.334,0,0,1-2.619-.484,1.2,1.2,0,0,1,.292-.582l-2.207-.408a1.2,1.2,0,0,1,.064.647,1.333,1.333,0,0,1-2.619-.484,1.2,1.2,0,0,1,.291-.581l-2.55-.471a1.2,1.2,0,0,1,.064.647,1.334,1.334,0,0,1-2.619-.484,1.2,1.2,0,0,1,.291-.581l-2.55-.471a1.2,1.2,0,0,1,.064.647,1.333,1.333,0,0,1-2.619-.484,1.2,1.2,0,0,1,.292-.581l-2.551-.471a1.2,1.2,0,0,1,.065.648,1.334,1.334,0,0,1-2.62-.484,1.2,1.2,0,0,1,.292-.581l-2.55-.471a1.2,1.2,0,0,1,.064.648,1.334,1.334,0,0,1-2.619-.484,1.2,1.2,0,0,1,.291-.582l-2.55-.471a1.2,1.2,0,0,1,.064.648,1.333,1.333,0,0,1-2.619-.484,1.207,1.207,0,0,1,.291-.582l-4.751-.878-2.2,11.915-2.237-.729L1244.42,187Z" transform="translate(-1244.416 -107.742)" fill-rule="evenodd" opacity="0.09"/>
          </g>
          <rect id="Rectangle_546" data-name="Rectangle 546" width="4.499" height="67.429" transform="translate(88.147 15.981) rotate(100.468)" opacity="0.55"/>
          <path id="Path_1762" data-name="Path 1762" d="M1242.17,179.993l71.324,13.178,16.192-87.645-71.324-13.177Zm82.457-71.593a1.274,1.274,0,1,1,1.546-1.008,1.3,1.3,0,0,1-1.553,1.008Zm-4.832-.892a1.274,1.274,0,1,1,1.546-1.008,1.306,1.306,0,0,1-1.551,1.007Zm-4.832-.893a1.274,1.274,0,1,1,1.546-1.008,1.3,1.3,0,0,1-1.549,1.007Zm-4.831-.892a1.274,1.274,0,1,1,1.545-1.008,1.306,1.306,0,0,1-1.547,1.007Zm-4.832-.893a1.274,1.274,0,1,1,1.545-1.008,1.3,1.3,0,0,1-1.545,1.007Zm-4.832-.892a1.274,1.274,0,1,1,1.546-1.008,1.305,1.305,0,0,1-1.554,1.007Zm-4.832-.892a1.274,1.274,0,1,1,1.546-1.008,1.3,1.3,0,0,1-1.552,1.006Zm-4.832-.893a1.274,1.274,0,1,1,1.546-1.008,1.306,1.306,0,0,1-1.55,1.006Zm-4.487-.829a1.274,1.274,0,1,1,1.546-1.008,1.306,1.306,0,0,1-1.553,1.006Zm-4.831-.893a1.274,1.274,0,1,1,1.545-1.008,1.306,1.306,0,0,1-1.551,1.006Zm-4.832-.892a1.274,1.274,0,1,1,1.545-1.008,1.306,1.306,0,0,1-1.549,1.006Zm-4.832-.892a1.274,1.274,0,1,1,1.546-1.008,1.306,1.306,0,0,1-1.548,1Zm-4.832-.893a1.274,1.274,0,1,1,1.546-1.008,1.306,1.306,0,0,1-1.556,1Zm-4.832-.892a1.274,1.274,0,1,1,1.546-1.008,1.306,1.306,0,0,1-1.554,1Z" transform="translate(-1238.886 -89.539)" fill="#fff" fill-rule="evenodd"/>
          <path id="Path_1763" data-name="Path 1763" d="M1324.85,96l-.515,2.787-.383,2.071a.844.844,0,0,1-.983.677l-.042-.008a.844.844,0,0,1-.677-.983l.383-2.071.515-2.787a.843.843,0,0,1,.983-.676l.042.007a.844.844,0,0,1,.677.983Zm-34.27-7.189-.042-.008a.844.844,0,0,0-.983.677l-.515,2.787-.383,2.071a.844.844,0,0,0,.677.983l.042.008a.844.844,0,0,0,.983-.677l.383-2.071.515-2.787a.844.844,0,0,0-.677-.984Zm28.729,5.328-.042-.008a.845.845,0,0,0-.984.677l-.514,2.787-.383,2.071a.844.844,0,0,0,.677.983l.042.008a.845.845,0,0,0,.983-.677l.383-2.071.515-2.786a.844.844,0,0,0-.676-.985Zm-9.648-1.8-.042-.008a.844.844,0,0,0-.983.677l-.515,2.787-.383,2.071a.844.844,0,0,0,.677.983l.042.008a.844.844,0,0,0,.983-.677l.383-2.071.515-2.787a.844.844,0,0,0-.678-.987Zm4.8.887-.042-.008a.844.844,0,0,0-.983.677l-.515,2.787-.382,2.071a.843.843,0,0,0,.677.983l.042.008a.845.845,0,0,0,.983-.677l.383-2.071.514-2.787a.844.844,0,0,0-.678-.987Zm-18.945-3.5-.042-.007a.843.843,0,0,0-.983.677l-.515,2.786-.383,2.071a.844.844,0,0,0,.677.984l.042.007a.844.844,0,0,0,.984-.677l.382-2.071.515-2.786a.844.844,0,0,0-.683-.989Zm4.8.887-.042-.008a.844.844,0,0,0-.983.677l-.515,2.787-.382,2.071a.844.844,0,0,0,.677.983l.042.008a.844.844,0,0,0,.983-.677l.383-2.071.515-2.787a.844.844,0,0,0-.684-.988Zm4.776.882-.042-.008a.845.845,0,0,0-.983.677l-.515,2.787-.383,2.071a.844.844,0,0,0,.677.983l.042.008a.844.844,0,0,0,.983-.677l.383-2.071.515-2.787a.844.844,0,0,0-.679-.987Zm23.878,4.4-.042-.008a.844.844,0,0,0-.983.677l-.515,2.787-.382,2.071a.844.844,0,0,0,.677.983l.042.008a.844.844,0,0,0,.983-.677l.383-2.071.514-2.787A.844.844,0,0,0,1328.97,95.9Zm-47.995-8.867-.042-.008a.844.844,0,0,0-.983.677l-.515,2.787-.383,2.071a.844.844,0,0,0,.677.983l.042.007a.844.844,0,0,0,.984-.676l.382-2.071.515-2.786a.843.843,0,0,0-.672-.981Zm52.793,9.754-.042-.008a.844.844,0,0,0-.983.677l-.515,2.786-.383,2.071a.844.844,0,0,0,.677.983l.042.007a.843.843,0,0,0,.983-.676l.383-2.071.515-2.786a.843.843,0,0,0-.675-.98Zm4.921.909-.042-.007a.843.843,0,0,0-.983.677l-.515,2.786-.383,2.071a.844.844,0,0,0,.677.983l.042.008a.844.844,0,0,0,.983-.677l.382-2.071.515-2.787a.844.844,0,0,0-.675-.979Zm4.8.887-.042-.008a.845.845,0,0,0-.983.677l-.515,2.787-.382,2.071a.844.844,0,0,0,.677.983l.042.008a.844.844,0,0,0,.983-.677l.383-2.071.515-2.787a.844.844,0,0,0-.677-.981Zm-57.641-10.649-.042-.007a.844.844,0,0,0-.983.676l-.514,2.787-.383,2.071a.844.844,0,0,0,.677.983l.042.008a.844.844,0,0,0,.983-.677l.383-2.071.514-2.787a.844.844,0,0,0-.675-.981Z" transform="translate(-1256.345 -87.014)" fill="#2a468a"/>
        </g>
        <g id="Group_1707" data-name="Group 1707" transform="translate(16.118 21.602)" opacity="0.41">
          <rect id="Rectangle_547" data-name="Rectangle 547" width="42.122" height="2.407" transform="translate(10.033) rotate(10.468)" fill="#6c90e8"/>
          <rect id="Rectangle_548" data-name="Rectangle 548" width="42.122" height="2.407" transform="translate(7.634 12.985) rotate(10.467)" fill="#6c90e8"/>
          <rect id="Rectangle_549" data-name="Rectangle 549" width="42.122" height="2.407" transform="translate(5.235 25.97) rotate(10.467)" fill="#6c90e8"/>
          <rect id="Rectangle_550" data-name="Rectangle 550" width="42.122" height="2.407" transform="translate(2.836 38.954) rotate(10.467)" fill="#6c90e8"/>
          <rect id="Rectangle_551" data-name="Rectangle 551" width="42.122" height="2.407" transform="translate(0.437 51.939) rotate(10.489)" fill="#6c90e8"/>
        </g>
        <g id="Group_1708" data-name="Group 1708" transform="translate(67.839 29.225)">
          <path id="Path_1764" data-name="Path 1764" d="M1376.49,147.067l-2.327-2.718,1.221-.916,1.334,1.558,3.3-2.474.993,1.159Z" transform="translate(-1369.224 -142.518)" fill="#2a468a"/>
          <path id="Path_1765" data-name="Path 1765" d="M1371.87,172.121l-2.327-2.718,1.221-.916,1.334,1.559,3.3-2.474.993,1.159Z" transform="translate(-1367.032 -154.38)" fill="#2a468a"/>
          <path id="Path_1766" data-name="Path 1766" d="M1367.1,197.891l-2.327-2.718,1.221-.916,1.334,1.558,3.3-2.474.993,1.159Z" transform="translate(-1364.778 -166.581)" fill="#2a468a"/>
        </g>
      </g>
      <g id="Group_1724" data-name="Group 1724" transform="translate(1129.939 47.729)">
        <path id="Path_1767" data-name="Path 1767" d="M1250.56,195.359l-40.338.317-69.736,3.7L1133,58.225l104.427-8.811,3.975,26.291-2.4,4.436,4.693,70.714,2.482,19.009,1.858.343Z" transform="translate(-1131.389 -48.527)" opacity="0.09"/>
        <path id="Path_1768" data-name="Path 1768" d="M1241.24,187.435l-34.075,3.343-69.736,3.7-7.486-141.15,105.561-5.6,5.537,104.4Z" transform="translate(-1129.939 -47.729)" fill="#a1b2f2"/>
        <g id="Group_1710" data-name="Group 1710" transform="translate(68.893 18.464)">
          <path id="Path_1769" data-name="Path 1769" d="M1283.58,85.518l-21.364,1.133a1.363,1.363,0,0,1-1.432-1.288h0a1.362,1.362,0,0,1,1.288-1.432l21.364-1.133a1.361,1.361,0,0,1,1.432,1.287h0A1.362,1.362,0,0,1,1283.58,85.518Z" transform="translate(-1260.782 -82.796)" fill="#fff"/>
          <path id="Path_1770" data-name="Path 1770" d="M1284.33,99.676l-21.364,1.133a1.361,1.361,0,0,1-1.432-1.287h0a1.362,1.362,0,0,1,1.288-1.432l21.364-1.133a1.362,1.362,0,0,1,1.432,1.288h0a1.361,1.361,0,0,1-1.288,1.431Z" transform="translate(-1261.138 -89.5)" fill="#fff"/>
        </g>
        <g id="Group_1711" data-name="Group 1711" transform="translate(17.033 39.923)">
          <path id="Path_1771" data-name="Path 1771" d="M1285.74,126.273l-21.364,1.133a1.362,1.362,0,0,1-1.432-1.288h0a1.361,1.361,0,0,1,1.287-1.432l21.364-1.133a1.362,1.362,0,0,1,1.432,1.287h0a1.362,1.362,0,0,1-1.287,1.433Z" transform="translate(-1209.946 -123.551)" fill="#fff"/>
          <path id="Path_1772" data-name="Path 1772" d="M1286.49,140.431l-21.364,1.133a1.361,1.361,0,0,1-1.432-1.287h0a1.362,1.362,0,0,1,1.287-1.432l21.364-1.133a1.363,1.363,0,0,1,1.432,1.288h0A1.362,1.362,0,0,1,1286.49,140.431Z" transform="translate(-1210.302 -130.255)" fill="#fff"/>
          <path id="Path_1773" data-name="Path 1773" d="M1239.03,160.075l-75.307,3.994a1.361,1.361,0,0,1-1.432-1.288h0a1.362,1.362,0,0,1,1.287-1.432l75.307-3.994a1.362,1.362,0,0,1,1.432,1.288h0a1.362,1.362,0,0,1-1.287,1.432Z" transform="translate(-1162.289 -139.555)" fill="#fff"/>
          <path id="Path_1774" data-name="Path 1774" d="M1239.7,172.688l-75.307,3.994a1.361,1.361,0,0,1-1.432-1.287h0a1.362,1.362,0,0,1,1.287-1.432l75.307-3.994a1.361,1.361,0,0,1,1.432,1.287h0a1.362,1.362,0,0,1-1.287,1.432Z" transform="translate(-1162.606 -145.527)" fill="#fff"/>
        </g>
        <g id="Group_1716" data-name="Group 1716" transform="translate(18.413 80.569)">
          <g id="Group_1712" data-name="Group 1712" transform="translate(24.25)">
            <path id="Path_1775" data-name="Path 1775" d="M1247.56,219.245l-34.405,1.824a1.361,1.361,0,0,1-1.432-1.287h0a1.362,1.362,0,0,1,1.287-1.432l34.406-1.824a1.362,1.362,0,0,1,1.432,1.287h0a1.362,1.362,0,0,1-1.288,1.432Z" transform="translate(-1211.322 -208.216)" fill="#fff"/>
            <path id="Path_1776" data-name="Path 1776" d="M1262.87,203.468l-50.473,2.677a1.362,1.362,0,0,1-1.432-1.288h0a1.361,1.361,0,0,1,1.287-1.432l50.473-2.677a1.361,1.361,0,0,1,1.432,1.287h0a1.362,1.362,0,0,1-1.287,1.433Z" transform="translate(-1210.966 -200.746)" fill="#fff"/>
          </g>
          <g id="Group_1715" data-name="Group 1715" transform="translate(0 2.69)">
            <g id="Group_1713" data-name="Group 1713">
              <path id="Path_1777" data-name="Path 1777" d="M1181.66,221.761l-15.906.844-.844-15.906,15.906-.844Zm-14.1-1.169,12.084-.641L1179,207.867l-12.084.641Z" transform="translate(-1164.91 -205.855)" fill="#a3bbc4"/>
              <path id="Path_1778" data-name="Path 1778" d="M1176.71,221.989l-4.1-2.971,1.378-1.664,2.352,1.7,3.722-4.5,1.749,1.267Z" transform="translate(-1168.554 -209.978)" fill="#c3d82e"/>
            </g>
            <g id="Group_1714" data-name="Group 1714">
              <path id="Path_1779" data-name="Path 1779" d="M1181.66,221.761l-15.906.844-.844-15.906,15.906-.844Zm-14.1-1.169,12.084-.641L1179,207.867l-12.084.641Z" transform="translate(-1164.91 -205.855)" fill="#f1f1f1"/>
              <path id="Path_1780" data-name="Path 1780" d="M1176.71,221.989l-4.1-2.971,1.378-1.664,2.352,1.7,3.722-4.5,1.749,1.267Z" transform="translate(-1168.554 -209.978)" fill="#fff"/>
            </g>
          </g>
        </g>
        <g id="Group_1721" data-name="Group 1721" transform="translate(19.466 102.683)">
          <g id="Group_1717" data-name="Group 1717" transform="translate(24.25)">
            <path id="Path_1781" data-name="Path 1781" d="M1249.56,261.245l-34.405,1.824a1.361,1.361,0,0,1-1.432-1.287h0a1.362,1.362,0,0,1,1.287-1.432l34.406-1.824a1.362,1.362,0,0,1,1.432,1.287h0A1.362,1.362,0,0,1,1249.56,261.245Z" transform="translate(-1213.322 -250.216)" fill="#f1f1f1"/>
            <path id="Path_1782" data-name="Path 1782" d="M1264.87,245.468l-50.473,2.677a1.362,1.362,0,0,1-1.432-1.288h0a1.361,1.361,0,0,1,1.287-1.432l50.473-2.677a1.362,1.362,0,0,1,1.432,1.287h0a1.362,1.362,0,0,1-1.287,1.433Z" transform="translate(-1212.966 -242.746)" fill="#f1f1f1"/>
          </g>
          <g id="Group_1720" data-name="Group 1720" transform="translate(0 2.69)">
            <g id="Group_1718" data-name="Group 1718">
              <path id="Path_1783" data-name="Path 1783" d="M1183.66,263.761l-15.906.844-.844-15.906,15.906-.844Zm-14.1-1.169,12.083-.641L1181,249.867l-12.084.641Z" transform="translate(-1166.91 -247.855)" fill="#a3bbc4"/>
              <path id="Path_1784" data-name="Path 1784" d="M1178.71,263.989l-4.1-2.971,1.378-1.664,2.352,1.7,3.722-4.5,1.749,1.267Z" transform="translate(-1170.554 -251.978)" fill="#c3d82e"/>
            </g>
            <g id="Group_1719" data-name="Group 1719">
              <path id="Path_1785" data-name="Path 1785" d="M1183.66,263.761l-15.906.844-.844-15.906,15.906-.844Zm-14.1-1.169,12.083-.641L1181,249.867l-12.084.641Z" transform="translate(-1166.91 -247.855)" fill="#f1f1f1"/>
              <path id="Path_1786" data-name="Path 1786" d="M1178.71,263.989l-4.1-2.971,1.378-1.664,2.352,1.7,3.722-4.5,1.749,1.267Z" transform="translate(-1170.554 -251.978)" fill="#fff"/>
            </g>
          </g>
        </g>
        <g id="Group_1722" data-name="Group 1722" transform="translate(16.465 20.46)" opacity="0.53">
          <rect id="Rectangle_554" data-name="Rectangle 554" width="13.859" height="20.81" transform="translate(15.768 12.035) rotate(-3.036)" fill="#fff"/>
          <rect id="Rectangle_555" data-name="Rectangle 555" width="13.859" height="14.601" transform="translate(0 19.088) rotate(-3.036)" fill="#fff"/>
          <rect id="Rectangle_556" data-name="Rectangle 556" width="13.859" height="31.272" transform="translate(31.312 0.734) rotate(-3.037)" fill="#fff"/>
        </g>
        <path id="Path_1787" data-name="Path 1787" d="M1280.94,242.485a8.3,8.3,0,1,0,8.483,8.109A8.3,8.3,0,0,0,1280.94,242.485Zm6.222,8.16a6.037,6.037,0,1,1-6.172-5.9,6.037,6.037,0,0,1,6.172,5.9Z" transform="translate(-1187.75 -125.431)" fill="#372f5f" opacity="0.18"/>
        <g id="Group_1723" data-name="Group 1723" transform="translate(83.234 115.208)">
          <path id="Path_1788" data-name="Path 1788" d="M1277.6,256.843c-.1.006-.209.009-.315.012a10.139,10.139,0,1,1,.315-.012Zm-1.044-19.458a9.353,9.353,0,1,0,.291-.011c-.1,0-.187.005-.287.01Z" transform="translate(-1266.917 -236.57)" fill="#372f5f" opacity="0.18"/>
        </g>
        <path id="Path_1789" data-name="Path 1789" d="M1289.15,266.64l-3.382-3.031,1.383-1.356,1.939,1.738,3.737-3.665,1.443,1.293Z" transform="translate(-1196.652 -137.706)" fill="#372f5f"/>
      </g>
      <g id="Group_1727" data-name="Group 1727" transform="translate(1172.542 87.507)">
        <path id="Path_1790" data-name="Path 1790" d="M1306.78,210.863l-10.285-9.25L1279.2,186.064l-1.889,2.1-7.064-6.352a30.983,30.983,0,1,0-4.822,5.361l7.064,6.353-1.889,2.1,23.151,20.819,4.425,3.979a6.431,6.431,0,1,0,8.6-9.563Zm-77.792-29.176a23.892,23.892,0,1,1,33.74-1.79,23.892,23.892,0,0,1-33.74,1.79Z" transform="translate(-1212.335 -127.851)" opacity="0.09"/>
        <rect id="Rectangle_557" data-name="Rectangle 557" width="20.066" height="7.21" transform="matrix(-0.744, -0.669, 0.669, -0.744, 61.9, 63.634)" fill="#261b43"/>
        <path id="Path_1791" data-name="Path 1791" d="M1318.39,233.733l27.576,24.8a6.431,6.431,0,0,0,9.082-.481h0a6.431,6.431,0,0,0-.482-9.082l-27.576-24.8Z" transform="translate(-1261.765 -171.045)" fill="#372f5f"/>
        <path id="Path_1794" data-name="Path 1794" d="M24.683,0A24.683,24.683,0,1,1,0,24.683,24.683,24.683,0,0,1,24.683,0Z" transform="translate(1.641 11.568) rotate(-11.366)" fill="#b0b3bf" opacity="0.73"/>
        <g id="Group_1726" data-name="Group 1726">
          <path id="Path_1792" data-name="Path 1792" d="M1218.8,133.54a30.981,30.981,0,1,0,43.753-2.32,30.981,30.981,0,0,0-43.753,2.32Zm5.272,4.741a23.892,23.892,0,1,1,1.79,33.74,23.892,23.892,0,0,1-1.79-33.74Z" transform="translate(-1210.85 -123.275)" fill="#372f5f"/>
          <g id="Group_1725" data-name="Group 1725" transform="translate(13.346 12.906)">
            <path id="Path_1793" data-name="Path 1793" d="M1237.83,163.754a1.018,1.018,0,0,0,.4-.673,15.38,15.38,0,0,1,17.362-13.1,1.021,1.021,0,1,0,.283-2.022,17.421,17.421,0,0,0-19.667,14.839,1.021,1.021,0,0,0,1.626.957Z" transform="translate(-1236.196 -147.786)" fill="#fff"/>
          </g>
        </g>
      </g>
    </g>
  </g>
</svg>
