<svg xmlns="http://www.w3.org/2000/svg" xmlns:xlink="http://www.w3.org/1999/xlink" width="644" height="623.005" viewBox="0 0 644 623.005">
  <defs>
    <clipPath id="clip-path">
      <path id="Path_233" data-name="Path 233" d="M370.1,361.285H280.365L282.76,553H299.9s12.972-96.444,17.864-149.75h11.878L333.214,553h17.138s20.225-150.361,19.683-179.346C370.493,371.482,370.1,361.285,370.1,361.285Z" transform="translate(-280.365 -361.285)" fill="none"/>
    </clipPath>
    <clipPath id="clip-path-2">
      <path id="Path_243" data-name="Path 243" d="M300.177,348.7c11.864,10.923,22.283,7.387,30.45-6.521,9.7-16.519,13.016-34.452,1.152-45.378s-28.3-10.324-39.223,1.54S288.313,337.778,300.177,348.7Z" transform="translate(-287.021 -289.01)" fill="#e98896"/>
    </clipPath>
    <clipPath id="clip-path-3">
      <path id="Path_70" data-name="Path 70" d="M199.069,341.524h-58.4l10.177,74.867h38.041Z" transform="translate(-140.673 -341.524)" fill="#ffc1c1"/>
    </clipPath>
  </defs>
  <g id="Time_log" data-name="Time log" transform="translate(-1103.744 -253.995)">
    <g id="Group_859" data-name="Group 859" transform="translate(33.744 32)">
      <g id="Group_582" data-name="Group 582" transform="translate(892.718 15.435)">
        <g id="Group_471" data-name="Group 471" transform="translate(273.173 640.328)">
          <g id="Group_468" data-name="Group 468">
            <path id="Path_170" data-name="Path 170" d="M581.923,375.185H236.7v-7.791H581.923a1.406,1.406,0,0,1,1.408,1.408v4.975A1.408,1.408,0,0,1,581.923,375.185Z" transform="translate(-236.696 -367.395)" fill="#2b74d3"/>
          </g>
          <g id="Group_469" data-name="Group 469" transform="translate(0.001 1.406)">
            <rect id="Rectangle_220" data-name="Rectangle 220" width="2.845" height="184.912" fill="#425ac2"/>
          </g>
          <g id="Group_470" data-name="Group 470" transform="translate(343.789 1.406)">
            <rect id="Rectangle_221" data-name="Rectangle 221" width="2.845" height="184.912" rx="0.489" fill="#425ac2"/>
          </g>
        </g>
        <g id="Group_523" data-name="Group 523" transform="translate(217.282 320.394)">
          <g id="Group_498" data-name="Group 498" transform="translate(0 85.683)">
            <path id="Path_188" data-name="Path 188" d="M224,299.808a4.874,4.874,0,0,1-6.351-2.677h0a4.874,4.874,0,0,1,2.675-6.354l10.776-4.387a4.876,4.876,0,0,1,6.354,2.677h0a4.87,4.87,0,0,1-2.674,6.351Z" transform="translate(-217.282 -286.027)" fill="#2b74d3"/>
          </g>
          <g id="Group_499" data-name="Group 499" transform="translate(55.65 104.587)">
            <path id="Path_189" data-name="Path 189" d="M241.362,310.084a4.876,4.876,0,0,0,6.354,2.677h0a4.874,4.874,0,0,0,2.674-6.354L246,295.632a4.875,4.875,0,0,0-6.351-2.677h0a4.873,4.873,0,0,0-2.677,6.354Z" transform="translate(-236.612 -292.594)" fill="#2b74d3"/>
          </g>
          <g id="Group_501" data-name="Group 501" transform="translate(47.63)">
            <g id="Group_500" data-name="Group 500">
              <path id="Path_190" data-name="Path 190" d="M234.055,272.608a12.954,12.954,0,0,1,.751-7.422c3.685-8.746,16.945-11.542,29.558-6.227s19.879,16.755,16.194,25.5a12.848,12.848,0,0,1-4.318,5.392l-2.519-3.42a8.66,8.66,0,0,0,2.925-3.619c2.729-6.48-3.65-15.612-13.928-19.942s-21.27-2.516-24,3.964a8.769,8.769,0,0,0-.484,5.027Z" transform="translate(-233.826 -256.266)" fill="#2b74d3"/>
            </g>
          </g>
          <g id="Group_502" data-name="Group 502" transform="translate(79.805 31.622)">
            <rect id="Rectangle_226" data-name="Rectangle 226" width="15.611" height="20.062" transform="translate(0 8.836) rotate(-34.472)" fill="#1e92e0"/>
          </g>
          <g id="Group_503" data-name="Group 503" transform="translate(84.873 27.668)">
            <path id="Path_191" data-name="Path 191" d="M246.763,269.762a14.9,14.9,0,0,1,2.125-1.6,15.161,15.161,0,1,1,13.638,26.95Z" transform="translate(-246.763 -265.876)" fill="#03053f"/>
          </g>
          <g id="Group_504" data-name="Group 504" transform="translate(27.473 13.164)">
            <rect id="Rectangle_227" data-name="Rectangle 227" width="20.062" height="15.611" transform="translate(0 3.428) rotate(-9.84)" fill="#1e92e0"/>
          </g>
          <g id="Group_505" data-name="Group 505" transform="translate(4.357 23.445)">
            <path id="Path_192" data-name="Path 192" d="M307.453,328.462a46.132,46.132,0,1,1-24.6-60.423A46.13,46.13,0,0,1,307.453,328.462Z" transform="translate(-218.796 -264.409)" fill="#1e92e0"/>
          </g>
          <g id="Group_506" data-name="Group 506" transform="translate(0.564 19.652)">
            <circle id="Ellipse_14" data-name="Ellipse 14" cx="38.349" cy="38.349" r="38.349" transform="matrix(0.927, -0.375, 0.375, 0.927, 0, 28.782)" fill="#e4f2ff"/>
          </g>
          <g id="Group_507" data-name="Group 507" transform="translate(62.042 37.416)">
            <path id="Path_193" data-name="Path 193" d="M241.552,271.225a1.415,1.415,0,1,1-.754-1.851A1.412,1.412,0,0,1,241.552,271.225Z" transform="translate(-238.833 -269.262)" fill="#425ac2"/>
          </g>
          <g id="Group_508" data-name="Group 508" transform="translate(44.928 35.059)">
            <path id="Path_194" data-name="Path 194" d="M235.706,269.681a1.415,1.415,0,1,1-1.581-1.226A1.412,1.412,0,0,1,235.706,269.681Z" transform="translate(-232.888 -268.443)" fill="#425ac2"/>
          </g>
          <g id="Group_509" data-name="Group 509" transform="translate(28.928 41.574)">
            <path id="Path_195" data-name="Path 195" d="M229.874,271.267a1.416,1.416,0,1,1-1.984-.273A1.417,1.417,0,0,1,229.874,271.267Z" transform="translate(-227.33 -270.706)" fill="#425ac2"/>
          </g>
          <g id="Group_510" data-name="Group 510" transform="translate(18.329 55.217)">
            <path id="Path_196" data-name="Path 196" d="M225.612,275.557a1.413,1.413,0,1,1-1.851.754A1.411,1.411,0,0,1,225.612,275.557Z" transform="translate(-223.649 -275.445)" fill="#425ac2"/>
          </g>
          <g id="Group_511" data-name="Group 511" transform="translate(15.972 72.332)">
            <path id="Path_197" data-name="Path 197" d="M224.068,281.4a1.415,1.415,0,1,1-1.226,1.578A1.414,1.414,0,0,1,224.068,281.4Z" transform="translate(-222.83 -281.39)" fill="#425ac2"/>
          </g>
          <g id="Group_512" data-name="Group 512" transform="translate(22.487 88.331)">
            <path id="Path_198" data-name="Path 198" d="M225.654,287.234a1.415,1.415,0,1,1-.273,1.984A1.414,1.414,0,0,1,225.654,287.234Z" transform="translate(-225.093 -286.947)" fill="#425ac2"/>
          </g>
          <g id="Group_513" data-name="Group 513" transform="translate(36.128 98.929)">
            <path id="Path_199" data-name="Path 199" d="M229.942,291.5a1.415,1.415,0,1,1,.757,1.851A1.419,1.419,0,0,1,229.942,291.5Z" transform="translate(-229.832 -290.629)" fill="#425ac2"/>
          </g>
          <g id="Group_514" data-name="Group 514" transform="translate(53.242 101.288)">
            <path id="Path_200" data-name="Path 200" d="M235.787,293.04a1.415,1.415,0,1,1,1.581,1.226A1.414,1.414,0,0,1,235.787,293.04Z" transform="translate(-235.776 -291.448)" fill="#425ac2"/>
          </g>
          <g id="Group_515" data-name="Group 515" transform="translate(69.243 94.773)">
            <path id="Path_201" data-name="Path 201" d="M241.622,291.454a1.415,1.415,0,1,1,1.981.273A1.411,1.411,0,0,1,241.622,291.454Z" transform="translate(-241.334 -289.185)" fill="#425ac2"/>
          </g>
          <g id="Group_516" data-name="Group 516" transform="translate(79.842 81.13)">
            <path id="Path_202" data-name="Path 202" d="M245.881,287.164a1.414,1.414,0,1,1,1.854-.754A1.413,1.413,0,0,1,245.881,287.164Z" transform="translate(-245.016 -284.446)" fill="#425ac2"/>
          </g>
          <g id="Group_517" data-name="Group 517" transform="translate(82.201 64.015)">
            <path id="Path_203" data-name="Path 203" d="M247.424,281.319a1.414,1.414,0,1,1,1.229-1.578A1.411,1.411,0,0,1,247.424,281.319Z" transform="translate(-245.835 -278.501)" fill="#425ac2"/>
          </g>
          <g id="Group_518" data-name="Group 518" transform="translate(75.684 48.016)">
            <path id="Path_204" data-name="Path 204" d="M245.842,275.486a1.415,1.415,0,1,1,.273-1.984A1.417,1.417,0,0,1,245.842,275.486Z" transform="translate(-243.571 -272.944)" fill="#425ac2"/>
          </g>
          <g id="Group_519" data-name="Group 519" transform="translate(38.226 53.659)">
            <rect id="Rectangle_228" data-name="Rectangle 228" width="2.949" height="17.66" transform="translate(0 1.864) rotate(-39.215)" fill="#425ac2"/>
          </g>
          <g id="Group_520" data-name="Group 520" transform="translate(51.097 65.275)">
            <rect id="Rectangle_229" data-name="Rectangle 229" width="26.548" height="2.186" transform="translate(0 2.79) rotate(-6.033)" fill="#425ac2"/>
          </g>
          <g id="Group_521" data-name="Group 521" transform="translate(43.778 62.865)">
            <path id="Path_205" data-name="Path 205" d="M245.4,287.433a6.721,6.721,0,1,1-3.584-8.8A6.721,6.721,0,0,1,245.4,287.433Z" transform="translate(-232.489 -278.102)" fill="#03053f"/>
          </g>
          <g id="Group_522" data-name="Group 522" transform="translate(22.426 4.165)">
            <path id="Path_206" data-name="Path 206" d="M255.384,272.248a15.162,15.162,0,1,0-29.152,6.432Z" transform="translate(-225.072 -257.712)" fill="#03053f"/>
          </g>
        </g>
        <g id="Group_549" data-name="Group 549" transform="translate(562.429 320.394)">
          <g id="Group_524" data-name="Group 524" transform="translate(90.013 85.683)">
            <path id="Path_207" data-name="Path 207" d="M382.25,299.808a4.874,4.874,0,0,0,6.351-2.677h0a4.874,4.874,0,0,0-2.675-6.354l-10.776-4.387a4.876,4.876,0,0,0-6.354,2.677h0a4.872,4.872,0,0,0,2.677,6.351Z" transform="translate(-368.436 -286.027)" fill="#2b74d3"/>
          </g>
          <g id="Group_525" data-name="Group 525" transform="translate(40.751 104.587)">
            <path id="Path_208" data-name="Path 208" d="M360.714,310.084a4.876,4.876,0,0,1-6.354,2.677h0a4.874,4.874,0,0,1-2.674-6.354l4.387-10.776a4.878,4.878,0,0,1,6.354-2.677h0a4.874,4.874,0,0,1,2.674,6.354Z" transform="translate(-351.324 -292.594)" fill="#2b74d3"/>
          </g>
          <g id="Group_527" data-name="Group 527" transform="translate(15.22)">
            <g id="Group_526" data-name="Group 526">
              <path id="Path_209" data-name="Path 209" d="M389.918,272.608a12.954,12.954,0,0,0-.751-7.422c-3.685-8.746-16.945-11.542-29.558-6.227s-19.879,16.755-16.194,25.5a12.848,12.848,0,0,0,4.318,5.392l2.519-3.42a8.66,8.66,0,0,1-2.925-3.619c-2.729-6.48,3.65-15.612,13.928-19.942s21.27-2.516,24,3.964a8.769,8.769,0,0,1,.484,5.027Z" transform="translate(-342.456 -256.266)" fill="#2b74d3"/>
            </g>
          </g>
          <g id="Group_528" data-name="Group 528" transform="translate(6.511 31.622)">
            <rect id="Rectangle_230" data-name="Rectangle 230" width="20.062" height="15.611" transform="translate(0 16.539) rotate(-55.528)" fill="#1e92e0"/>
          </g>
          <g id="Group_529" data-name="Group 529" transform="translate(0.374 27.668)">
            <path id="Path_210" data-name="Path 210" d="M362.593,269.762a15.16,15.16,0,1,0-18.134,24.154,15.276,15.276,0,0,0,2.372,1.2Z" transform="translate(-337.299 -265.876)" fill="#03053f"/>
          </g>
          <g id="Group_530" data-name="Group 530" transform="translate(60.633 13.164)">
            <rect id="Rectangle_231" data-name="Rectangle 231" width="15.611" height="20.062" transform="translate(0 15.382) rotate(-80.16)" fill="#1e92e0"/>
          </g>
          <g id="Group_531" data-name="Group 531" transform="translate(0 9.548)">
            <circle id="Ellipse_15" data-name="Ellipse 15" cx="46.131" cy="46.131" r="46.131" transform="translate(0 34.518) rotate(-21.97)" fill="#1e92e0"/>
          </g>
          <g id="Group_532" data-name="Group 532" transform="translate(21.682 31.229)">
            <path id="Path_211" data-name="Path 211" d="M347.719,320.359a38.348,38.348,0,1,0,20.452-50.229A38.349,38.349,0,0,0,347.719,320.359Z" transform="translate(-344.701 -267.113)" fill="#e4f2ff"/>
          </g>
          <g id="Group_533" data-name="Group 533" transform="translate(45.669 37.416)">
            <path id="Path_212" data-name="Path 212" d="M353.143,271.225a1.415,1.415,0,1,0,.754-1.851A1.415,1.415,0,0,0,353.143,271.225Z" transform="translate(-353.032 -269.262)" fill="#425ac2"/>
          </g>
          <g id="Group_534" data-name="Group 534" transform="translate(62.783 35.059)">
            <path id="Path_213" data-name="Path 213" d="M358.988,269.681a1.415,1.415,0,1,0,1.581-1.226A1.412,1.412,0,0,0,358.988,269.681Z" transform="translate(-358.977 -268.443)" fill="#425ac2"/>
          </g>
          <g id="Group_535" data-name="Group 535" transform="translate(78.784 41.574)">
            <path id="Path_214" data-name="Path 214" d="M364.823,271.267a1.415,1.415,0,1,0,1.981-.273A1.417,1.417,0,0,0,364.823,271.267Z" transform="translate(-364.535 -270.706)" fill="#425ac2"/>
          </g>
          <g id="Group_536" data-name="Group 536" transform="translate(89.381 55.217)">
            <path id="Path_215" data-name="Path 215" d="M369.082,275.557a1.413,1.413,0,1,0,1.851.754A1.411,1.411,0,0,0,369.082,275.557Z" transform="translate(-368.216 -275.445)" fill="#425ac2"/>
          </g>
          <g id="Group_537" data-name="Group 537" transform="translate(91.739 72.332)">
            <path id="Path_216" data-name="Path 216" d="M370.627,281.4a1.415,1.415,0,1,0,1.226,1.578A1.415,1.415,0,0,0,370.627,281.4Z" transform="translate(-369.035 -281.39)" fill="#425ac2"/>
          </g>
          <g id="Group_538" data-name="Group 538" transform="translate(85.224 88.331)">
            <path id="Path_217" data-name="Path 217" d="M369.041,287.234a1.415,1.415,0,1,0,.273,1.984A1.414,1.414,0,0,0,369.041,287.234Z" transform="translate(-366.772 -286.947)" fill="#425ac2"/>
          </g>
          <g id="Group_539" data-name="Group 539" transform="translate(71.582 98.929)">
            <path id="Path_218" data-name="Path 218" d="M364.753,291.5a1.415,1.415,0,1,0-.754,1.851A1.419,1.419,0,0,0,364.753,291.5Z" transform="translate(-362.034 -290.629)" fill="#425ac2"/>
          </g>
          <g id="Group_540" data-name="Group 540" transform="translate(54.468 101.288)">
            <path id="Path_219" data-name="Path 219" d="M358.907,293.04a1.415,1.415,0,1,0-1.581,1.226A1.414,1.414,0,0,0,358.907,293.04Z" transform="translate(-356.089 -291.448)" fill="#425ac2"/>
          </g>
          <g id="Group_541" data-name="Group 541" transform="translate(38.467 94.773)">
            <path id="Path_220" data-name="Path 220" d="M353.073,291.454a1.415,1.415,0,1,0-1.981.273A1.411,1.411,0,0,0,353.073,291.454Z" transform="translate(-350.531 -289.185)" fill="#425ac2"/>
          </g>
          <g id="Group_542" data-name="Group 542" transform="translate(27.868 81.13)">
            <path id="Path_221" data-name="Path 221" d="M348.814,287.164a1.414,1.414,0,1,0-1.854-.754A1.413,1.413,0,0,0,348.814,287.164Z" transform="translate(-346.849 -284.446)" fill="#425ac2"/>
          </g>
          <g id="Group_543" data-name="Group 543" transform="translate(25.512 64.015)">
            <path id="Path_222" data-name="Path 222" d="M347.269,281.319a1.414,1.414,0,1,0-1.226-1.578A1.415,1.415,0,0,0,347.269,281.319Z" transform="translate(-346.031 -278.501)" fill="#425ac2"/>
          </g>
          <g id="Group_544" data-name="Group 544" transform="translate(32.027 48.016)">
            <path id="Path_223" data-name="Path 223" d="M348.853,275.486a1.415,1.415,0,1,0-.271-1.984A1.417,1.417,0,0,0,348.853,275.486Z" transform="translate(-348.294 -272.944)" fill="#425ac2"/>
          </g>
          <g id="Group_545" data-name="Group 545" transform="translate(58.866 53.659)">
            <rect id="Rectangle_232" data-name="Rectangle 232" width="17.66" height="2.949" transform="translate(0 13.683) rotate(-50.789)" fill="#425ac2"/>
          </g>
          <g id="Group_546" data-name="Group 546" transform="translate(32.814 65.275)">
            <rect id="Rectangle_233" data-name="Rectangle 233" width="2.186" height="26.547" transform="translate(0 2.174) rotate(-83.967)" fill="#425ac2"/>
          </g>
          <g id="Group_547" data-name="Group 547" transform="translate(53.317 62.865)">
            <path id="Path_224" data-name="Path 224" d="M356.218,287.433a6.721,6.721,0,1,0,3.584-8.8A6.721,6.721,0,0,0,356.218,287.433Z" transform="translate(-355.689 -278.102)" fill="#03053f"/>
          </g>
          <g id="Group_548" data-name="Group 548" transform="translate(57.802 4.165)">
            <path id="Path_225" data-name="Path 225" d="M357.247,272.248a15.466,15.466,0,0,1,.34-2.637,15.163,15.163,0,1,1,28.812,9.069Z" transform="translate(-357.247 -257.712)" fill="#03053f"/>
          </g>
        </g>
        <g id="Group_550" data-name="Group 550" transform="translate(398.893 622.738)">
          <path id="Path_226" data-name="Path 226" d="M370.1,361.285H280.365L282.76,553H299.9s12.972-96.444,17.864-149.75h11.878L333.214,553h17.138s20.225-150.361,19.683-179.346C370.493,371.482,370.1,361.285,370.1,361.285Z" transform="translate(-280.365 -361.285)" fill="#2b74d3"/>
        </g>
        <g id="Group_551" data-name="Group 551" transform="translate(387.617 485.476)">
          <path id="Path_227" data-name="Path 227" d="M377.46,450.869H287.724l-11.2-119.193c-1-9.722,8.392-18.068,20.345-18.068h71.449c11.953,0,21.35,8.346,20.348,18.068Z" transform="translate(-276.448 -313.607)" fill="#0cb6f1"/>
        </g>
        <g id="Group_552" data-name="Group 552" transform="translate(428.796 463.454)">
          <path id="Path_228" data-name="Path 228" d="M301.467,349.934a3.742,3.742,0,0,0,6.855.285c3.973-8.193,12.765-20.42,12.765-23.017v-17.59c0-3.982-5.942-3.648-9.477-3.648h-11.38c-3.533,0-9.477,3.23-9.477,7.215V327.2C290.752,329.77,298.295,341.747,301.467,349.934Z" transform="translate(-290.752 -305.958)" fill="#ffb3b6"/>
        </g>
        <g id="Group_553" data-name="Group 553" transform="translate(418.057 414.665)">
          <path id="Path_229" data-name="Path 229" d="M300.177,348.7c11.864,10.923,22.283,7.387,30.45-6.521,9.7-16.519,13.016-34.452,1.152-45.378s-28.3-10.324-39.223,1.54S288.313,337.778,300.177,348.7Z" transform="translate(-287.021 -289.01)" fill="#ffa6ad"/>
        </g>
        <g id="Group_554" data-name="Group 554" transform="translate(285.921 467.454)">
          <path id="Path_230" data-name="Path 230" d="M380.245,356.571l-64.191,26.408a15.861,15.861,0,0,1-17.449-3.656l-57.481-59.286,11.153-12.69,55.972,42.533s33.629-20.23,47.088-23.691C361.36,324.641,376.3,340.8,376.3,340.8Z" transform="translate(-241.124 -307.347)" fill="#0cb6f1"/>
        </g>
        <g id="Group_555" data-name="Group 555" transform="translate(380.872 814.201)">
          <path id="Path_231" data-name="Path 231" d="M294.283,427.79h17.423v13.364H276.367c-2.332,0-3.135-5.24-1.091-6.368Z" transform="translate(-274.105 -427.79)" fill="#112256"/>
        </g>
        <g id="Group_556" data-name="Group 556" transform="translate(451.819 814.201)">
          <path id="Path_232" data-name="Path 232" d="M316.172,427.79H298.749v13.364h35.339c2.335,0,3.135-5.24,1.094-6.368Z" transform="translate(-298.749 -427.79)" fill="#112256"/>
        </g>
        <g id="Group_567" data-name="Group 567" transform="translate(398.893 622.738)">
          <g id="Group_566" data-name="Group 566" clip-path="url(#clip-path)">
            <g id="Group_565" data-name="Group 565" transform="translate(6.752 -20.563)">
              <g id="Group_557" data-name="Group 557">
                <rect id="Rectangle_234" data-name="Rectangle 234" width="3.688" height="232.783" fill="#03053f"/>
              </g>
              <g id="Group_558" data-name="Group 558" transform="translate(10.142)">
                <rect id="Rectangle_235" data-name="Rectangle 235" width="3.688" height="232.783" fill="#03053f"/>
              </g>
              <g id="Group_559" data-name="Group 559" transform="translate(20.284)">
                <rect id="Rectangle_236" data-name="Rectangle 236" width="3.688" height="232.783" fill="#03053f"/>
              </g>
              <g id="Group_560" data-name="Group 560" transform="translate(30.426)">
                <rect id="Rectangle_237" data-name="Rectangle 237" width="3.688" height="232.783" fill="#03053f"/>
              </g>
              <g id="Group_561" data-name="Group 561" transform="translate(40.568)">
                <rect id="Rectangle_238" data-name="Rectangle 238" width="3.688" height="232.783" fill="#03053f"/>
              </g>
              <g id="Group_562" data-name="Group 562" transform="translate(50.71)">
                <rect id="Rectangle_239" data-name="Rectangle 239" width="3.688" height="232.783" fill="#03053f"/>
              </g>
              <g id="Group_563" data-name="Group 563" transform="translate(60.852)">
                <rect id="Rectangle_240" data-name="Rectangle 240" width="3.688" height="232.783" fill="#03053f"/>
              </g>
              <g id="Group_564" data-name="Group 564" transform="translate(70.994)">
                <rect id="Rectangle_241" data-name="Rectangle 241" width="3.688" height="232.783" fill="#03053f"/>
              </g>
            </g>
          </g>
        </g>
        <g id="Group_568" data-name="Group 568" transform="translate(398.894 622.739)">
          <rect id="Rectangle_242" data-name="Rectangle 242" width="89.815" height="6.355" fill="#03053f"/>
        </g>
        <g id="Group_569" data-name="Group 569" transform="translate(264.76 451.131)">
          <path id="Path_234" data-name="Path 234" d="M266.088,318s3.075-14.487-.386-14.487-4.638,8.507-6.152,8.974c-3.334,1.025-7.819-3.717-12.82-7.949s-13.278-3.6-12.947.772c.642,8.458,21.151,25.381,21.151,25.381Z" transform="translate(-233.774 -301.677)" fill="#ffb3b6"/>
        </g>
        <g id="Group_570" data-name="Group 570" transform="translate(461.651 467.454)">
          <path id="Path_235" data-name="Path 235" d="M302.164,356.571l64.191,26.408a15.86,15.86,0,0,0,17.449-3.656l57.481-59.286-11.15-12.69L374.163,349.88s-33.629-20.23-47.088-23.691c-6.026-1.549-20.961,14.611-20.961,14.611Z" transform="translate(-302.164 -307.347)" fill="#0cb6f1"/>
        </g>
        <g id="Group_571" data-name="Group 571" transform="translate(588.361 451.131)">
          <path id="Path_236" data-name="Path 236" d="M347.438,318s-3.078-14.487.383-14.487,4.638,8.507,6.152,8.974c3.334,1.025,7.822-3.717,12.82-7.949s13.278-3.6,12.947.772c-.639,8.458-21.151,25.381-21.151,25.381Z" transform="translate(-346.177 -301.677)" fill="#ffb3b6"/>
        </g>
        <g id="Group_573" data-name="Group 573" transform="translate(327.78 608.841)">
          <g id="Group_572" data-name="Group 572">
            <path id="Path_237" data-name="Path 237" d="M255.664,368.069a11.609,11.609,0,1,0,11.611-11.611A11.61,11.61,0,0,0,255.664,368.069Zm4.146,0a7.464,7.464,0,1,1,7.465,7.462A7.465,7.465,0,0,1,259.81,368.069Z" transform="translate(-255.664 -356.458)" fill="#03053f"/>
          </g>
        </g>
        <g id="Group_574" data-name="Group 574" transform="translate(303.646 598.586)">
          <path id="Path_238" data-name="Path 238" d="M285.774,352.9H247.281l7.332,42.16h23.829Z" transform="translate(-247.281 -352.896)" fill="#03053f"/>
        </g>
        <g id="Group_578" data-name="Group 578" transform="translate(502.51 580.128)">
          <g id="Group_575" data-name="Group 575" transform="translate(20.562)">
            <path id="Path_239" data-name="Path 239" d="M323.5,398.553h84.095l11.538-52.069H335.037Z" transform="translate(-323.499 -346.484)" fill="#a8c5f6"/>
          </g>
          <g id="Group_576" data-name="Group 576" transform="translate(0 51.699)">
            <rect id="Rectangle_243" data-name="Rectangle 243" width="104.731" height="8.875" fill="#a8c5f6"/>
          </g>
          <g id="Group_577" data-name="Group 577" transform="translate(63.498 20.906)">
            <path id="Path_240" data-name="Path 240" d="M338.757,360.62a6.528,6.528,0,1,0,6.527-6.53A6.527,6.527,0,0,0,338.757,360.62Z" transform="translate(-338.757 -354.09)" fill="#fff"/>
          </g>
        </g>
        <g id="Group_581" data-name="Group 581" transform="translate(418.057 414.665)">
          <path id="Path_241" data-name="Path 241" d="M300.177,348.7c11.864,10.923,22.283,7.387,30.45-6.521,9.7-16.519,13.016-34.452,1.152-45.378s-28.3-10.324-39.223,1.54S288.313,337.778,300.177,348.7Z" transform="translate(-287.021 -289.01)" fill="#ffb3b6"/>
          <g id="Group_580" data-name="Group 580" clip-path="url(#clip-path-2)">
            <g id="Group_579" data-name="Group 579" transform="translate(-9.079 -11.431)">
              <path id="Path_242" data-name="Path 242" d="M293.674,345.99c-2.306-6.152-1.8-19.562,5.191-18.267,5.194.962.386,8.075,5,8.847s-4.808-21.344,6.921-26.921c11.165-5.306,23.075-2.113,23.843,11.539.694,12.31-3.846,16.919,0,16.919s0-8.461,6.921-7.693,6.924,17.691,10.767,17.691,1.54-53.839,1.54-53.839l-55.376-9.227L283.868,315.8Z" transform="translate(-283.868 -285.04)" fill="#112256"/>
            </g>
          </g>
        </g>
      </g>
      <g id="Rectangle_244" data-name="Rectangle 244" transform="translate(1070 843)" fill="none" stroke="#6d6d6d" stroke-width="1">
        <rect width="644" height="2" stroke="none"/>
        <rect x="0.5" y="0.5" width="643" height="1" fill="none"/>
      </g>
      <g id="Group_858" data-name="Group 858" transform="translate(356.447 192.29)">
        <g id="Group_801" data-name="Group 801" transform="translate(906.352 29.705)">
          <circle id="Ellipse_18" data-name="Ellipse 18" cx="79.815" cy="79.815" r="79.815" fill="#2b74d3"/>
        </g>
        <g id="Group_802" data-name="Group 802" transform="translate(919.818 43.171)">
          <circle id="Ellipse_19" data-name="Ellipse 19" cx="66.349" cy="66.349" r="66.349" fill="#e4f2ff"/>
        </g>
        <g id="Group_860" data-name="Group 860">
          <g id="Group_803" data-name="Group 803" transform="translate(983.721 49.331)">
            <path id="Path_278" data-name="Path 278" d="M925.115,35.673a2.446,2.446,0,1,1-2.449-2.449A2.448,2.448,0,0,1,925.115,35.673Z" transform="translate(-920.223 -33.224)" fill="#03053f"/>
          </g>
          <g id="Group_804" data-name="Group 804" transform="translate(954.847 57.065)">
            <path id="Path_279" data-name="Path 279" d="M919.613,35.834a2.448,2.448,0,1,1-3.341-.892A2.455,2.455,0,0,1,919.613,35.834Z" transform="translate(-915.047 -34.611)" fill="#03053f"/>
          </g>
          <g id="Group_805" data-name="Group 805" transform="translate(933.713 78.202)">
            <path id="Path_280" data-name="Path 280" d="M914.926,38.728a2.448,2.448,0,1,1-3.341.9A2.445,2.445,0,0,1,914.926,38.728Z" transform="translate(-911.257 -38.4)" fill="#03053f"/>
          </g>
          <g id="Group_806" data-name="Group 806" transform="translate(925.976 107.071)">
            <path id="Path_281" data-name="Path 281" d="M912.319,43.576a2.449,2.449,0,1,1-2.449,2.449A2.452,2.452,0,0,1,912.319,43.576Z" transform="translate(-909.87 -43.576)" fill="#03053f"/>
          </g>
          <g id="Group_807" data-name="Group 807" transform="translate(933.713 135.942)">
            <path id="Path_282" data-name="Path 282" d="M912.478,49.08a2.448,2.448,0,1,1-.893,3.347A2.452,2.452,0,0,1,912.478,49.08Z" transform="translate(-911.257 -48.752)" fill="#03053f"/>
          </g>
          <g id="Group_808" data-name="Group 808" transform="translate(954.847 157.078)">
            <path id="Path_283" data-name="Path 283" d="M915.374,53.765a2.448,2.448,0,1,1,.9,3.347A2.445,2.445,0,0,1,915.374,53.765Z" transform="translate(-915.047 -52.542)" fill="#03053f"/>
          </g>
          <g id="Group_809" data-name="Group 809" transform="translate(983.721 164.816)">
            <path id="Path_284" data-name="Path 284" d="M920.223,56.378a2.446,2.446,0,1,1,2.443,2.443A2.443,2.443,0,0,1,920.223,56.378Z" transform="translate(-920.223 -53.929)" fill="#03053f"/>
          </g>
          <g id="Group_810" data-name="Group 810" transform="translate(1012.589 157.078)">
            <path id="Path_285" data-name="Path 285" d="M925.73,56.214a2.448,2.448,0,1,1,3.341.9A2.439,2.439,0,0,1,925.73,56.214Z" transform="translate(-925.398 -52.542)" fill="#03053f"/>
          </g>
          <g id="Group_811" data-name="Group 811" transform="translate(1033.726 135.942)">
            <path id="Path_286" data-name="Path 286" d="M930.414,53.319a2.446,2.446,0,1,1,3.341-.892A2.445,2.445,0,0,1,930.414,53.319Z" transform="translate(-929.188 -48.752)" fill="#03053f"/>
          </g>
          <g id="Group_812" data-name="Group 812" transform="translate(1041.461 107.071)">
            <path id="Path_287" data-name="Path 287" d="M933.024,48.473a2.449,2.449,0,1,1,2.449-2.449A2.448,2.448,0,0,1,933.024,48.473Z" transform="translate(-930.575 -43.576)" fill="#03053f"/>
          </g>
          <g id="Group_813" data-name="Group 813" transform="translate(1033.726 78.202)">
            <path id="Path_288" data-name="Path 288" d="M932.857,42.967a2.446,2.446,0,1,1,.9-3.341A2.445,2.445,0,0,1,932.857,42.967Z" transform="translate(-929.188 -38.4)" fill="#03053f"/>
          </g>
          <g id="Group_814" data-name="Group 814" transform="translate(1012.589 57.065)">
            <path id="Path_289" data-name="Path 289" d="M929.969,38.283a2.448,2.448,0,1,1-.9-3.341A2.453,2.453,0,0,1,929.969,38.283Z" transform="translate(-925.398 -34.611)" fill="#03053f"/>
          </g>
        </g>
        <g id="Group_815" data-name="Group 815" transform="translate(957.343 90.375)">
          <rect id="Rectangle_394" data-name="Rectangle 394" width="5.101" height="30.554" transform="translate(0 4.413) rotate(-59.9)" fill="#2b74d3"/>
        </g>
        <g id="Group_816" data-name="Group 816" transform="translate(986.091 84.515)">
          <rect id="Rectangle_395" data-name="Rectangle 395" width="45.931" height="3.782" transform="translate(0 22.172) rotate(-28.863)" fill="#2b74d3"/>
        </g>
        <g id="Group_817" data-name="Group 817" transform="translate(974.535 97.89)">
          <path id="Path_290" data-name="Path 290" d="M941.835,53.559A11.629,11.629,0,1,1,930.206,41.93,11.626,11.626,0,0,1,941.835,53.559Z" transform="translate(-918.576 -41.93)" fill="#1e92e0"/>
        </g>
      </g>
    </g>
    <g id="Group_1232" data-name="Group 1232" transform="translate(1219.201 236.821)">
      <g id="Group_219" data-name="Group 219" transform="translate(373.17 250.406)">
        <g id="Group_210" data-name="Group 210" transform="translate(80.116 174.385)">
          <path id="Path_60" data-name="Path 60" d="M153.134,451.288c5.034-1.006,18.63-11.58,29.7-40.783,6.329-16.683,24.169-102.71,0-108.75S163.2,339.011,163.2,378.788C163.2,403.036,153.134,451.288,153.134,451.288Z" transform="translate(-153.134 -301.187)" fill="#1e92e0"/>
        </g>
        <g id="Group_211" data-name="Group 211" transform="translate(33.707)">
          <path id="Path_61" data-name="Path 61" d="M174.954,578.921c12.706-.848,10.069-129.4,11.075-159.606s7.05-142.988-10.069-161.113-34.739-2.012-36.25,21.4c-.718,11.1,3.019,91.886,5.034,115.045s4.53,75.522,6.545,108.754S159.847,579.927,174.954,578.921Z" transform="translate(-139.62 -250.406)" fill="#7bd9ff"/>
        </g>
        <g id="Group_212" data-name="Group 212" transform="translate(0 80.289)">
          <path id="Path_62" data-name="Path 62" d="M175.181,523.522s-28.214-55.663-35.244-98.685c-12.586-77.03-15.1-152.051,2.012-151.041s18.359,76.535,19.135,108.75c2.012,83.579,21.648,135.938,21.648,135.938Z" transform="translate(-129.804 -273.786)" fill="#1e92e0"/>
        </g>
        <g id="Group_213" data-name="Group 213" transform="translate(15.984 196.069)">
          <path id="Path_63" data-name="Path 63" d="M166.217,439.174l1.308-.47c-.1-.275-10.041-27.864-16.614-46.319-12.9-36.229-15.045-84.4-15.065-84.883l-1.387.058c.021.484,2.167,48.86,15.144,85.292C156.176,411.306,166.118,438.9,166.217,439.174Z" transform="translate(-134.459 -307.501)" fill="#fff"/>
        </g>
        <g id="Group_214" data-name="Group 214" transform="translate(61.802 251.942)">
          <path id="Path_64" data-name="Path 64" d="M150.82,391.786h1.391c0-17.194-2.995-67.507-3.025-68.015l-1.384.086C147.829,324.362,150.82,374.633,150.82,391.786Z" transform="translate(-147.801 -323.771)" fill="#fff"/>
        </g>
        <g id="Group_215" data-name="Group 215" transform="translate(83.752 229.28)">
          <path id="Path_65" data-name="Path 65" d="M155.477,411.887c.106-.257,10.663-25.989,16.648-49.179a161.728,161.728,0,0,0,4.55-45.536l-1.387.1a160.142,160.142,0,0,1-4.512,45.093c-5.958,23.094-16.477,48.74-16.583,49Z" transform="translate(-154.193 -317.172)" fill="#fff"/>
        </g>
        <g id="Group_216" data-name="Group 216" transform="translate(57.963 249.215)">
          <path id="Path_66" data-name="Path 66" d="M146.683,326.755a3.776,3.776,0,1,0,3.777-3.778A3.777,3.777,0,0,0,146.683,326.755Z" transform="translate(-146.683 -322.977)" fill="#fff"/>
        </g>
        <g id="Group_217" data-name="Group 217" transform="translate(101.768 226.056)">
          <path id="Path_67" data-name="Path 67" d="M159.439,320.01a3.776,3.776,0,1,0,3.774-3.777A3.774,3.774,0,0,0,159.439,320.01Z" transform="translate(-159.439 -316.233)" fill="#fff"/>
        </g>
        <g id="Group_218" data-name="Group 218" transform="translate(12.901 192.323)">
          <path id="Path_68" data-name="Path 68" d="M133.561,310.188a3.776,3.776,0,1,0,3.777-3.778A3.777,3.777,0,0,0,133.561,310.188Z" transform="translate(-133.561 -306.41)" fill="#fff"/>
        </g>
      </g>
      <g id="Group_222" data-name="Group 222" transform="translate(410.495 563.312)">
        <path id="Path_69" data-name="Path 69" d="M199.069,341.524h-58.4l10.177,74.867h38.041Z" transform="translate(-140.673 -341.524)" fill="#0fb0ee"/>
        <g id="Group_221" data-name="Group 221" transform="translate(0)" clip-path="url(#clip-path-3)">
          <g id="Group_220" data-name="Group 220" transform="translate(-36.003 6.294)">
            <rect id="Rectangle_111" data-name="Rectangle 111" width="108.752" height="6.042" fill="#fff"/>
          </g>
        </g>
      </g>
    </g>
  </g>
</svg>
